<?xml version="1.0" encoding="UTF-8" standalone="no"?><!-- Generator: Gravit.io --><svg xmlns="http://www.w3.org/2000/svg" xmlns:xlink="http://www.w3.org/1999/xlink" style="isolation:isolate" viewBox="180.289 264.718 80 80" width="80pt" height="80pt"><g><circle vector-effect="non-scaling-stroke" cx="220.2887139107612" cy="304.71788109591085" r="40" fill="rgb(245,236,243)"/><path d=" M 223.882 295.546 C 223.039 295.65 222.527 295.759 221.908 295.963 C 220.051 296.574 218.43 297.778 217.288 299.394 C 216.59 300.382 216.05 301.614 215.806 302.779 C 215.596 303.781 215.56 304.518 215.664 305.61 C 215.683 305.834 215.708 306.128 215.72 306.265 L 215.736 306.514 L 214.188 306.497 C 213.337 306.489 212.427 306.467 212.163 306.45 C 210.735 306.36 209.344 306.226 208.05 306.058 C 207.823 306.027 207.624 306.002 207.61 306.002 C 207.596 306.002 207.585 305.279 207.585 304.327 L 207.585 302.653 L 207.916 302.588 C 209.022 302.37 210.237 302.216 211.113 302.18 C 211.573 302.163 211.878 302.138 211.864 302.121 C 211.813 302.073 208.316 302.261 207.692 302.348 L 207.585 302.362 L 207.585 300.122 L 207.585 297.881 L 211.855 297.881 L 216.126 297.881 L 216.126 296.887 L 216.126 295.893 L 210.164 295.893 L 204.205 295.893 L 198.082 304.728 C 194.716 309.583 191.952 313.579 191.944 313.604 C 191.927 313.641 192.053 313.646 193.1 313.646 L 194.273 313.646 L 199.972 305.509 C 203.102 301.032 205.681 297.349 205.701 297.324 C 205.729 297.288 205.734 297.845 205.737 299.954 L 205.737 302.63 L 205.474 302.681 C 204.082 302.939 202.867 303.457 202.265 304.047 C 201.626 304.672 201.582 305.335 202.145 305.904 C 202.758 306.525 203.811 306.974 205.675 307.416 L 205.737 307.43 L 205.737 310.538 L 205.737 313.646 L 210.931 313.646 L 216.126 313.646 L 216.126 312.736 L 216.126 311.826 L 211.855 311.826 L 207.585 311.826 L 207.585 309.821 L 207.585 307.816 L 207.692 307.833 C 207.921 307.87 208.784 307.962 209.391 308.015 C 210.909 308.15 211.836 308.183 214.23 308.206 L 216.238 308.222 L 216.313 308.393 C 216.761 309.412 217.453 310.412 218.296 311.252 C 219.774 312.733 221.633 313.627 223.711 313.856 C 224.291 313.921 225.43 313.904 225.968 313.82 C 227.043 313.652 228.088 313.302 228.987 312.806 C 231.106 311.636 232.68 309.656 233.355 307.318 C 234.038 304.955 233.769 302.401 232.61 300.262 C 231.988 299.116 231.084 298.072 230.014 297.274 C 229.057 296.557 227.855 296.005 226.668 295.739 C 225.974 295.585 225.666 295.552 224.792 295.543 C 224.347 295.538 223.935 295.541 223.882 295.546 Z  M 225.702 297.559 C 226.108 297.621 226.783 297.789 227.147 297.923 C 227.573 298.08 228.284 298.439 228.656 298.688 C 229.107 298.99 229.407 299.234 229.779 299.604 C 230.846 300.665 231.568 302.059 231.806 303.521 C 232.112 305.38 231.692 307.276 230.627 308.844 C 229.899 309.916 228.939 310.754 227.788 311.322 C 227.139 311.644 226.539 311.837 225.794 311.969 C 225.369 312.045 224.442 312.073 223.988 312.022 C 222.686 311.882 221.387 311.345 220.34 310.51 C 219.783 310.068 219.167 309.39 218.775 308.791 C 218.565 308.469 218.354 308.105 218.371 308.091 C 218.374 308.085 218.562 308.06 218.786 308.035 C 221.493 307.721 223.666 307.206 224.96 306.576 C 225.422 306.352 225.71 306.159 225.954 305.918 C 226.212 305.66 226.324 305.433 226.34 305.137 C 226.408 303.975 224.932 303.163 221.776 302.63 C 221.143 302.521 219.841 302.353 219.769 302.37 C 219.743 302.376 219.839 302.395 219.976 302.415 C 220.869 302.544 221.93 302.784 222.678 303.031 C 223.529 303.314 224.089 303.597 224.448 303.927 C 224.672 304.134 224.758 304.283 224.761 304.462 C 224.764 305.193 222.667 305.884 219.374 306.237 C 218.632 306.318 217.713 306.394 217.696 306.377 C 217.607 306.293 217.545 304.613 217.607 303.994 C 217.853 301.544 219.337 299.363 221.51 298.257 C 222.269 297.87 223.025 297.638 223.882 297.529 C 224.28 297.478 225.274 297.495 225.702 297.559 Z  M 205.737 304.389 L 205.737 305.604 L 205.572 305.565 C 205.479 305.545 205.261 305.481 205.087 305.425 C 204.158 305.125 203.623 304.697 203.743 304.35 C 203.864 304.011 204.483 303.613 205.401 303.283 C 205.563 303.224 205.703 303.177 205.717 303.177 C 205.729 303.174 205.737 303.72 205.737 304.389 Z  M 234.746 304.77 L 234.746 313.646 L 235.671 313.646 L 236.595 313.646 L 236.6 306.489 L 236.609 299.335 L 241.635 306.489 L 246.661 313.646 L 247.65 313.646 L 248.635 313.646 L 248.635 304.77 L 248.635 295.893 L 247.65 295.899 L 246.661 295.907 L 246.647 303.109 L 246.633 310.311 L 241.61 303.101 L 236.586 295.893 L 235.665 295.893 L 234.746 295.893 L 234.746 304.77 Z " fill-rule="evenodd" fill="rgb(153,61,134)"/></g></svg>