<?xml version="1.0" encoding="UTF-8" standalone="no"?><!-- Generator: Gravit.io -->
<svg xmlns="http://www.w3.org/2000/svg"
     style="isolation:isolate"
     viewBox="253.718 24.967 80 80"
     width="80pt"
     height="80pt">
    <g>
        <path d="M 293.718 24.967 L 293.718 24.967 C 315.794 24.967 333.718 42.89 333.718 64.967 L 333.718 64.967 C 333.718 87.044 315.794 104.967 293.718 104.967 L 293.718 104.967 C 271.641 104.967 253.718 87.044 253.718 64.967 L 253.718 64.967 C 253.718 42.89 271.641 24.967 293.718 24.967 Z"
              style="stroke:none;fill:#FEEFEA;stroke-miterlimit:10;"/>
        <g>
            <g>
                <path d=" M 290.47 44.603 L 290.459 44.806 L 290.414 45.016 L 290.377 45.144 L 290.335 45.279 L 290.256 45.549 L 290.199 45.82 L 290.173 45.956 L 290.117 46.226 L 290.09 46.361 L 290.038 46.632 L 290.012 46.767 L 289.948 47.038 L 289.911 47.173 L 289.88 47.309 L 289.847 47.443 L 289.82 47.579 L 289.767 47.85 L 289.711 48.12 L 289.658 48.391 L 289.605 48.662 L 289.572 48.797 L 289.541 48.932 L 289.504 49.068 L 289.44 49.339 L 289.414 49.473 L 289.362 49.744 L 289.335 49.88 L 289.301 50.015 L 289.272 50.15 L 289.234 50.285 L 289.17 50.556 L 289.144 50.692 L 289.091 50.962 L 289.064 51.097 L 289 51.368 L 288.963 51.503 L 288.899 51.774 L 288.857 52.037 L 288.851 52.173 L 288.846 52.45 L 293.177 52.45 L 293.312 52.315 L 293.323 52.037 L 293.342 51.902 L 293.364 51.774 L 293.421 51.503 L 293.473 51.233 L 293.5 51.097 L 293.563 50.826 L 293.601 50.692 L 293.665 50.421 L 293.691 50.285 L 293.744 50.015 L 293.771 49.88 L 293.804 49.744 L 293.834 49.609 L 293.872 49.473 L 293.936 49.211 L 293.958 49.075 L 293.977 49 L 293.989 48.797 L 299.807 48.797 L 301.565 48.797 L 301.837 48.797 L 301.972 48.797 L 302.108 48.797 L 302.378 48.809 L 302.649 48.854 L 302.919 48.937 L 303.054 48.988 L 303.325 49.135 L 303.592 49.35 L 303.72 49.478 L 303.832 49.609 L 303.933 49.744 L 304.013 49.88 L 304.133 50.15 L 304.216 50.421 L 304.261 50.692 L 304.272 50.962 L 304.261 51.233 L 304.216 51.503 L 304.178 51.638 L 304.084 51.909 L 304.024 52.045 L 303.885 52.315 L 303.802 52.45 L 303.584 52.722 L 303.456 52.856 L 303.19 53.116 L 302.919 53.341 L 302.649 53.529 L 302.513 53.612 L 302.242 53.747 L 302.108 53.8 L 301.837 53.883 L 301.701 53.913 L 301.431 53.966 L 301.16 54.022 L 301.024 54.044 L 300.889 54.063 L 300.619 54.075 L 300.483 54.075 L 300.348 54.075 L 300.078 54.075 L 298.725 54.075 L 288.305 54.075 L 286.275 54.075 L 285.87 54.075 L 285.599 54.075 L 285.328 54.07 L 285.193 54.063 L 284.922 54.022 L 284.787 53.992 L 284.517 53.95 L 284.381 53.942 L 284.246 53.935 L 283.975 53.909 L 283.84 53.883 L 283.569 53.804 L 283.434 53.762 L 283.298 53.721 L 283.164 53.687 L 282.893 53.609 L 282.622 53.495 L 282.487 53.42 L 282.352 53.345 L 282.216 53.258 L 281.945 53.082 L 281.675 52.898 L 281.404 52.691 L 281.268 52.575 L 280.998 52.315 L 280.866 52.179 L 280.738 52.045 L 280.509 51.774 L 280.408 51.638 L 280.303 51.503 L 280.111 51.233 L 280.029 51.097 L 279.867 50.826 L 279.787 50.692 L 279.653 50.421 L 279.596 50.285 L 279.483 50.015 L 279.427 49.88 L 279.329 49.613 L 279.288 49.489 L 279.235 49.38 L 279.213 49.308 L 279.104 49.203 L 278.995 49.308 L 278.972 49.38 L 278.924 49.489 L 278.86 49.744 L 278.807 50.015 L 278.751 50.285 L 278.698 50.556 L 278.645 50.826 L 278.615 50.962 L 278.574 51.233 L 278.562 51.503 L 278.562 51.638 L 278.562 51.909 L 278.562 52.179 L 278.567 52.45 L 278.574 52.586 L 278.615 52.856 L 278.645 52.992 L 278.671 53.127 L 278.724 53.398 L 278.754 53.533 L 278.836 53.804 L 278.886 53.939 L 279.003 54.209 L 279.073 54.345 L 279.134 54.48 L 279.209 54.616 L 279.27 54.751 L 279.344 54.886 L 279.408 55.021 L 279.574 55.292 L 279.679 55.428 L 279.909 55.698 L 280.021 55.83 L 280.239 56.074 L 280.352 56.187 L 280.596 56.401 L 280.727 56.51 L 280.998 56.724 L 281.134 56.822 L 281.404 56.998 L 281.675 57.152 L 281.811 57.216 L 281.945 57.292 L 282.08 57.352 L 282.216 57.427 L 282.487 57.559 L 282.622 57.615 L 282.757 57.675 L 283.028 57.78 L 283.298 57.885 L 283.434 57.935 L 283.569 57.969 L 283.84 58.025 L 284.11 58.081 L 284.381 58.122 L 284.651 58.145 L 284.787 58.164 L 285.058 58.217 L 285.328 58.258 L 285.463 58.265 L 285.734 58.269 L 286.004 58.269 L 286.411 58.269 L 288.305 58.269 L 297.236 58.269 L 299.942 58.269 L 300.619 58.269 L 300.889 58.269 L 301.024 58.273 L 301.16 58.281 L 301.431 58.326 L 301.701 58.409 L 301.837 58.457 L 302.108 58.577 L 302.242 58.656 L 302.378 58.739 L 302.513 58.844 L 302.78 59.085 L 302.908 59.216 L 303.122 59.487 L 303.269 59.757 L 303.321 59.893 L 303.403 60.164 L 303.449 60.434 L 303.456 60.569 L 303.461 60.84 L 303.456 61.11 L 303.449 61.246 L 303.403 61.517 L 303.314 61.787 L 303.25 61.922 L 303.179 62.058 L 302.998 62.328 L 302.772 62.599 L 302.644 62.735 L 302.513 62.87 L 302.242 63.129 L 301.972 63.355 L 301.837 63.452 L 301.565 63.629 L 301.431 63.704 L 301.295 63.779 L 301.16 63.84 L 301.024 63.899 L 300.889 63.949 L 300.619 64.043 L 300.483 64.088 L 300.212 64.166 L 300.078 64.192 L 299.942 64.211 L 299.671 64.223 L 299.536 64.223 L 299.401 64.223 L 299.13 64.223 L 297.506 64.223 L 290.74 64.223 L 290.752 64.019 L 290.771 63.944 L 290.793 63.809 L 290.857 63.547 L 290.895 63.411 L 290.925 63.276 L 290.959 63.14 L 290.985 63.005 L 291.038 62.735 L 291.094 62.464 L 291.121 62.328 L 291.173 62.058 L 291.2 61.922 L 291.264 61.651 L 291.301 61.517 L 291.331 61.381 L 291.398 61.11 L 291.436 60.975 L 291.5 60.705 L 291.541 60.434 L 291.549 60.306 L 291.552 60.17 L 291.552 59.893 L 287.223 59.893 L 287.211 60.096 L 287.192 60.17 L 287.17 60.306 L 287.106 60.569 L 287.069 60.705 L 287.038 60.84 L 287 60.975 L 286.971 61.11 L 286.933 61.246 L 286.869 61.517 L 286.843 61.651 L 286.816 61.787 L 286.764 62.058 L 286.707 62.328 L 286.656 62.599 L 286.629 62.735 L 286.595 62.87 L 286.565 63.005 L 286.528 63.14 L 286.464 63.411 L 286.437 63.547 L 286.385 63.817 L 286.358 63.952 L 286.328 64.088 L 286.302 64.223 L 286.249 64.493 L 286.223 64.629 L 286.193 64.764 L 286.166 64.9 L 286.113 65.17 L 286.087 65.305 L 286.054 65.441 L 286.023 65.576 L 285.986 65.711 L 285.922 65.982 L 285.895 66.117 L 285.844 66.387 L 285.817 66.523 L 285.783 66.658 L 285.753 66.794 L 285.716 66.93 L 285.652 67.199 L 285.625 67.335 L 285.572 67.606 L 285.516 67.876 L 285.474 68.139 L 285.463 68.417 L 296.153 68.417 L 298.725 68.417 L 299.536 68.417 L 299.807 68.417 L 299.942 68.414 L 300.078 68.406 L 300.348 68.365 L 300.483 68.334 L 300.619 68.312 L 300.754 68.289 L 300.889 68.275 L 301.16 68.23 L 301.295 68.196 L 301.431 68.166 L 301.701 68.094 L 301.972 68.008 L 302.242 67.903 L 302.513 67.793 L 302.784 67.689 L 302.919 67.628 L 303.054 67.568 L 303.19 67.493 L 303.325 67.418 L 303.595 67.252 L 303.866 67.09 L 304.137 66.925 L 304.407 66.741 L 304.543 66.64 L 304.678 66.542 L 304.814 66.437 L 304.948 66.336 L 305.219 66.106 L 305.355 65.979 L 305.614 65.711 L 305.843 65.441 L 305.949 65.305 L 306.167 65.034 L 306.272 64.9 L 306.373 64.764 L 306.546 64.493 L 306.625 64.358 L 306.791 64.088 L 306.866 63.952 L 306.945 63.817 L 307.08 63.547 L 307.137 63.411 L 307.196 63.276 L 307.302 63.005 L 307.407 62.735 L 307.46 62.599 L 307.497 62.464 L 307.539 62.328 L 307.569 62.194 L 307.636 61.922 L 307.673 61.787 L 307.737 61.517 L 307.76 61.381 L 307.79 61.11 L 307.801 60.975 L 307.843 60.705 L 307.873 60.569 L 307.915 60.298 L 307.926 60.028 L 307.926 59.893 L 307.915 59.622 L 307.873 59.352 L 307.843 59.216 L 307.798 58.945 L 307.782 58.811 L 307.734 58.54 L 307.651 58.269 L 307.603 58.134 L 307.482 57.863 L 307.407 57.728 L 307.332 57.592 L 307.155 57.322 L 307.057 57.186 L 306.831 56.915 L 306.573 56.656 L 306.437 56.54 L 306.301 56.431 L 306.031 56.243 L 305.76 56.081 L 305.625 56.006 L 305.363 55.897 L 305.152 55.844 L 304.948 55.833 L 305.054 55.642 L 305.126 55.589 L 305.235 55.484 L 305.49 55.325 L 305.625 55.258 L 305.896 55.096 L 306.031 54.999 L 306.167 54.904 L 306.301 54.8 L 306.573 54.586 L 306.708 54.469 L 306.844 54.341 L 307.103 54.075 L 307.332 53.804 L 307.433 53.668 L 307.633 53.398 L 307.731 53.263 L 307.892 52.992 L 307.955 52.856 L 308.031 52.722 L 308.091 52.586 L 308.226 52.315 L 308.298 52.179 L 308.407 51.909 L 308.485 51.638 L 308.516 51.503 L 308.554 51.368 L 308.583 51.233 L 308.651 50.962 L 308.685 50.826 L 308.711 50.692 L 308.764 50.421 L 308.791 50.285 L 308.82 50.15 L 308.861 49.88 L 308.869 49.744 L 308.873 49.473 L 308.873 49.339 L 308.873 49.203 L 308.861 48.932 L 308.842 48.797 L 308.82 48.662 L 308.764 48.391 L 308.711 48.12 L 308.644 47.85 L 308.549 47.579 L 308.434 47.309 L 308.362 47.173 L 308.298 47.038 L 308.215 46.902 L 308.038 46.632 L 307.84 46.365 L 307.737 46.237 L 307.508 46.008 L 307.249 45.802 L 307.114 45.704 L 306.978 45.602 L 306.708 45.418 L 306.573 45.336 L 306.301 45.2 L 306.031 45.091 L 305.896 45.035 L 305.625 44.933 L 305.355 44.854 L 305.219 44.824 L 304.948 44.756 L 304.814 44.718 L 304.678 44.689 L 304.543 44.655 L 304.272 44.614 L 304.137 44.606 L 303.866 44.603 L 303.595 44.603 L 302.649 44.603 L 299.942 44.603 L 290.47 44.603 Z "
                      fill="rgb(238,93,47)"/>
                <circle vector-effect="non-scaling-stroke"
                        cx="291.27453876348375"
                        cy="71.8087464100636"
                        r="2.2919605077573806"
                        fill="rgb(110,115,121)"/>
                <circle vector-effect="non-scaling-stroke"
                        cx="299.96283579309454"
                        cy="71.73271502783498"
                        r="2.2919605077573806"
                        fill="rgb(110,115,121)"/>
            </g>
            <g>
                <path d=" M 318.345 76.416 Q 317.388 77.025 317.329 77.066 C 317.27 77.108 317.26 77.113 317.228 77.145 C 317.196 77.177 317.129 77.278 317.092 77.359 C 317.056 77.442 317.045 77.527 317.025 77.619 C 317.005 77.711 317.008 77.706 316.999 77.755 C 316.989 77.802 316.965 77.925 316.942 78.017 Q 316.919 78.109 316.89 78.296 L 316.322 78.296 L 316.078 79.378 L 316.619 79.378 L 316.608 79.58 L 316.589 79.657 L 316.536 79.919 L 316.51 80.054 L 316.458 80.325 L 316.431 80.461 L 316.4 80.595 L 316.374 80.731 L 316.322 81.002 L 316.266 81.272 L 316.224 81.543 L 316.216 81.678 L 316.213 81.948 L 316.227 82.22 L 316.254 82.355 L 316.363 82.614 L 316.54 82.84 L 316.765 83.027 L 316.893 83.11 L 317.025 83.178 L 317.287 83.269 L 317.363 83.291 L 317.54 83.32 L 318.027 82.491 L 317.697 82.291 L 317.574 82.182 L 317.393 81.945 L 317.311 81.678 L 317.306 81.407 L 317.348 81.137 L 317.378 81.002 L 317.431 80.731 L 317.484 80.461 L 317.513 80.325 L 317.54 80.19 L 317.593 79.919 L 317.619 79.791 L 317.668 79.58 L 317.702 79.378 L 318.513 79.378 L 318.718 78.296 L 317.972 78.296 L 318.345 76.416 Z "
                      fill="rgb(238,93,47)"/>
                <path d=" M 300.788 76.807 L 299.434 83.302 L 300.652 83.302 L 301.376 79.547 L 302.839 81.002 L 304.711 79.513 L 303.899 83.32 L 305.087 83.302 L 306.334 76.807 L 303.087 79.649 L 300.788 76.807 Z "
                      fill="rgb(238,93,47)"/>
                <path d=" M 294.698 78.431 L 294.563 78.566 L 294.552 78.769 L 294.533 78.844 L 294.48 79.108 L 294.454 79.242 L 294.401 79.513 L 294.374 79.649 L 294.345 79.784 L 294.318 79.919 L 294.265 80.19 L 294.239 80.325 L 294.175 80.595 L 294.138 80.731 L 294.108 80.866 L 294.074 81.002 L 294.022 81.272 L 293.969 81.543 L 293.913 81.814 L 293.86 82.084 L 293.833 82.22 L 293.799 82.355 L 293.769 82.491 L 293.732 82.625 L 293.668 82.888 L 293.645 83.024 L 293.626 83.099 L 293.615 83.302 L 294.698 83.302 L 294.709 83.099 L 294.728 83.024 L 294.781 82.761 L 294.807 82.625 L 294.859 82.355 L 294.886 82.22 L 294.915 82.084 L 294.942 81.948 L 294.995 81.678 L 295.021 81.543 L 295.085 81.272 L 295.123 81.137 L 295.19 80.866 L 295.221 80.731 L 295.303 80.461 L 295.367 80.325 L 295.544 80.059 L 295.656 79.931 L 295.916 79.716 L 296.186 79.58 L 296.322 79.547 L 296.593 79.517 L 296.863 79.529 L 296.998 79.558 L 297.13 79.611 L 297.254 79.694 L 297.363 79.799 L 297.514 80.043 L 297.547 80.16 L 297.562 80.378 L 297.555 80.491 L 297.514 80.735 L 297.487 80.866 L 297.456 81.002 L 297.43 81.137 L 297.378 81.407 L 297.352 81.543 L 297.296 81.814 L 297.243 82.084 L 297.216 82.22 L 297.182 82.355 L 297.152 82.491 L 297.115 82.625 L 297.051 82.888 L 297.028 83.024 L 297.009 83.099 L 296.998 83.302 L 298.081 83.302 L 298.092 83.099 L 298.111 83.024 L 298.164 82.761 L 298.19 82.625 L 298.242 82.355 L 298.269 82.22 L 298.298 82.084 L 298.325 81.948 L 298.378 81.678 L 298.404 81.543 L 298.468 81.272 L 298.505 81.137 L 298.569 80.866 L 298.596 80.731 L 298.649 80.461 L 298.705 80.19 L 298.724 80.054 L 298.735 79.919 L 298.701 79.649 L 298.618 79.378 L 298.566 79.242 L 298.42 78.976 L 298.317 78.848 L 298.077 78.634 L 297.81 78.498 L 297.675 78.464 L 297.405 78.434 L 297.134 78.431 L 296.998 78.431 L 296.728 78.442 L 296.593 78.464 L 296.457 78.495 L 296.186 78.604 L 296.052 78.679 L 295.788 78.829 L 295.713 78.879 L 295.509 78.972 L 295.607 78.776 L 295.611 78.701 L 295.645 78.431 L 294.698 78.431 Z "
                      fill="rgb(110,115,121)"/>
                <path d=" M 314.453 78.972 L 314.589 78.566 L 313.507 78.566 L 312.548 83.291 L 313.642 83.302 Q 314.169 80.582 314.202 80.461 C 314.235 80.34 314.301 80.136 314.333 80.059 C 314.365 79.98 314.427 79.893 314.495 79.817 C 314.563 79.741 314.562 79.746 314.604 79.713 C 314.645 79.679 314.763 79.601 314.86 79.562 C 314.957 79.523 315.027 79.502 315.123 79.495 Q 315.218 79.487 315.258 79.495 L 315.536 79.513 L 316.078 78.431 L 315.8 78.431 L 315.536 78.434 Q 315.448 78.437 315.401 78.442 C 315.354 78.447 315.222 78.468 315.13 78.498 C 315.038 78.529 314.954 78.57 314.868 78.626 C 314.781 78.682 314.781 78.693 314.732 78.728 C 314.684 78.762 314.683 78.761 314.657 78.781 Q 314.631 78.799 314.453 78.972 Z "
                      fill="rgb(238,93,47)"/>
                <path d=" M 279.272 82.761 L 279.137 83.302 L 280.219 83.302 L 281.167 78.431 L 280.219 78.431 L 280.084 78.972 Q 279.959 78.84 279.881 78.781 C 279.803 78.721 279.833 78.746 279.806 78.728 C 279.78 78.709 279.72 78.658 279.671 78.626 C 279.621 78.594 279.505 78.53 279.407 78.498 C 279.309 78.466 279.32 78.474 279.272 78.464 C 279.224 78.454 279.185 78.448 279.137 78.442 C 279.089 78.436 278.961 78.432 278.866 78.431 C 278.771 78.429 278.373 78.43 278.325 78.431 C 278.278 78.431 278.149 78.431 278.054 78.442 C 277.959 78.453 277.877 78.465 277.784 78.495 C 277.692 78.524 277.559 78.579 277.513 78.6 C 277.467 78.621 277.425 78.646 277.378 78.671 C 277.33 78.697 277.201 78.763 277.108 78.814 C 277.013 78.865 277.018 78.861 276.972 78.89 C 276.925 78.917 276.884 78.945 276.837 78.976 C 276.789 79.006 276.748 79.033 276.701 79.066 C 276.655 79.099 276.527 79.194 276.442 79.273 C 276.356 79.352 276.289 79.426 276.216 79.517 C 276.143 79.608 276.152 79.601 276.118 79.649 C 276.085 79.695 275.999 79.821 275.942 79.919 C 275.884 80.017 275.893 80.007 275.867 80.054 C 275.84 80.102 275.816 80.141 275.792 80.19 C 275.767 80.238 275.709 80.364 275.672 80.461 C 275.633 80.557 275.607 80.635 275.577 80.731 C 275.548 80.828 275.552 80.818 275.54 80.866 C 275.529 80.915 275.504 81.042 275.494 81.137 C 275.485 81.233 275.485 81.313 275.483 81.407 C 275.482 81.503 275.482 81.496 275.483 81.543 C 275.485 81.59 275.483 81.719 275.494 81.814 C 275.507 81.908 275.508 81.901 275.518 81.948 C 275.526 81.996 275.533 82.038 275.547 82.084 C 275.562 82.131 275.58 82.172 275.6 82.22 C 275.62 82.267 275.683 82.398 275.736 82.491 C 275.788 82.582 275.786 82.579 275.818 82.625 C 275.849 82.671 275.953 82.805 276.035 82.893 C 276.119 82.98 276.117 82.975 276.163 83.016 C 276.211 83.058 276.327 83.154 276.431 83.208 C 276.534 83.262 276.517 83.249 276.565 83.269 C 276.614 83.287 276.741 83.325 276.837 83.351 C 276.932 83.377 276.924 83.374 276.972 83.384 C 277.019 83.395 277.146 83.417 277.242 83.426 C 277.338 83.435 277.418 83.437 277.513 83.437 C 277.608 83.437 277.689 83.436 277.784 83.426 C 277.879 83.416 277.96 83.403 278.054 83.381 C 278.148 83.359 278.23 83.33 278.325 83.298 C 278.419 83.266 278.413 83.267 278.461 83.25 Q 278.507 83.231 278.731 83.129 L 278.859 83.058 L 279.069 82.926 L 279.272 82.761 Z  M 277.919 79.569 C 277.825 79.594 277.74 79.621 277.649 79.663 C 277.557 79.706 277.559 79.707 277.513 79.735 C 277.467 79.762 277.424 79.791 277.378 79.825 C 277.332 79.859 277.29 79.895 277.246 79.934 C 277.201 79.974 277.083 80.094 277.006 80.19 C 276.928 80.286 276.876 80.361 276.818 80.461 C 276.759 80.56 276.724 80.633 276.682 80.731 C 276.64 80.829 276.645 80.818 276.629 80.866 C 276.614 80.915 276.586 81.041 276.581 81.137 C 276.575 81.233 276.578 81.225 276.581 81.272 C 276.584 81.319 276.603 81.45 276.634 81.543 C 276.665 81.636 276.71 81.723 276.769 81.81 C 276.829 81.897 276.832 81.894 276.871 81.937 C 276.908 81.98 276.941 82.013 276.983 82.05 C 277.025 82.087 277.064 82.119 277.111 82.152 C 277.158 82.184 277.195 82.203 277.242 82.227 C 277.29 82.252 277.329 82.269 277.378 82.287 C 277.427 82.304 277.552 82.332 277.649 82.344 C 277.745 82.355 277.824 82.354 277.919 82.351 C 278.014 82.348 278.007 82.348 278.054 82.344 C 278.102 82.34 278.232 82.322 278.325 82.299 C 278.419 82.275 278.504 82.246 278.595 82.204 C 278.688 82.163 278.684 82.162 278.731 82.137 C 278.778 82.112 278.908 82.03 278.997 81.964 C 279.088 81.898 279.159 81.839 279.239 81.761 C 279.317 81.683 279.309 81.69 279.343 81.649 C 279.379 81.607 279.459 81.497 279.505 81.404 C 279.552 81.312 279.543 81.319 279.562 81.272 C 279.58 81.226 279.599 81.186 279.614 81.137 C 279.63 81.088 279.657 80.963 279.667 80.866 C 279.676 80.769 279.673 80.778 279.674 80.731 C 279.676 80.683 279.679 80.556 279.674 80.461 C 279.67 80.365 279.671 80.373 279.663 80.325 C 279.656 80.278 279.647 80.236 279.633 80.19 C 279.619 80.144 279.603 80.103 279.58 80.059 C 279.557 80.014 279.531 79.973 279.498 79.931 C 279.465 79.888 279.359 79.779 279.268 79.716 C 279.178 79.653 279.101 79.616 279.002 79.58 C 278.901 79.546 278.828 79.534 278.731 79.524 C 278.634 79.514 278.644 79.519 278.595 79.517 C 278.548 79.515 278.42 79.513 278.325 79.517 C 278.23 79.521 278.237 79.52 278.19 79.524 C 278.142 79.529 278.012 79.546 277.919 79.569 Z "
                      fill-rule="evenodd"
                      fill="rgb(110,115,121)"/>
                <path d=" M 285.226 82.761 L 285.188 82.963 L 285.11 83.174 L 285.053 83.302 L 284.974 83.437 L 284.787 83.697 L 284.545 83.914 L 284.279 84.076 L 284.008 84.196 L 283.873 84.246 L 283.738 84.291 L 283.602 84.324 L 283.331 84.34 L 283.061 84.268 L 282.926 84.212 L 282.798 84.14 L 282.587 84.009 L 282.385 83.844 L 281.301 84.34 Q 281.732 84.894 281.978 85.024 C 282.225 85.153 282.288 85.158 282.385 85.192 C 282.482 85.227 282.558 85.253 282.655 85.275 C 282.752 85.297 282.743 85.294 282.79 85.302 C 282.839 85.309 282.878 85.316 282.926 85.32 C 282.973 85.326 283.101 85.332 283.197 85.331 C 283.291 85.331 283.284 85.33 283.331 85.328 C 283.38 85.326 283.419 85.325 283.467 85.32 C 283.514 85.316 283.643 85.297 283.738 85.28 C 283.832 85.261 283.914 85.24 284.008 85.216 C 284.102 85.19 284.185 85.169 284.279 85.136 Q 284.372 85.103 284.55 85.024 L 284.684 84.948 L 284.955 84.787 L 285.091 84.697 L 285.35 84.489 L 285.467 84.374 L 285.576 84.246 L 285.763 83.978 L 285.85 83.844 L 286 83.573 L 286.113 83.302 L 286.151 83.167 L 286.192 83.032 L 286.256 82.761 L 286.282 82.625 L 287.121 78.431 L 286.173 78.431 L 286.14 78.626 L 286.095 78.776 L 286.037 78.972 L 285.839 78.728 L 285.73 78.626 L 285.493 78.498 L 285.226 78.442 L 285.091 78.435 L 284.955 78.431 L 284.684 78.431 L 284.55 78.431 L 284.414 78.431 Q 284.238 78.432 284.143 78.442 C 284.049 78.452 283.967 78.464 283.873 78.487 C 283.779 78.509 283.785 78.511 283.738 78.525 C 283.69 78.539 283.56 78.583 283.467 78.623 C 283.374 78.663 283.289 78.706 283.197 78.757 C 283.104 78.81 283.018 78.866 282.926 78.93 C 282.833 78.995 282.746 79.06 282.655 79.138 C 282.563 79.215 282.569 79.211 282.523 79.254 C 282.478 79.296 282.363 79.417 282.283 79.513 C 282.204 79.609 282.212 79.599 282.177 79.649 C 282.143 79.698 282.123 79.736 282.095 79.784 C 282.066 79.832 282.042 79.87 282.017 79.919 C 281.99 79.967 281.934 80.093 281.895 80.19 C 281.858 80.287 281.83 80.364 281.802 80.461 C 281.773 80.557 281.776 80.548 281.764 80.595 C 281.752 80.644 281.744 80.683 281.734 80.731 C 281.723 80.778 281.7 80.906 281.682 81.002 C 281.663 81.097 281.642 81.176 281.629 81.272 C 281.615 81.369 281.617 81.36 281.614 81.407 C 281.611 81.456 281.611 81.496 281.614 81.543 C 281.617 81.59 281.622 81.631 281.629 81.679 C 281.636 81.726 281.646 81.766 281.655 81.814 C 281.664 81.861 281.687 81.989 281.708 82.084 C 281.729 82.179 281.741 82.263 281.775 82.355 C 281.809 82.447 281.852 82.535 281.911 82.622 C 281.969 82.709 282.041 82.786 282.125 82.862 C 282.208 82.939 282.206 82.934 282.252 82.968 C 282.3 83.002 282.337 83.023 282.385 83.05 C 282.432 83.078 282.558 83.144 282.655 83.186 C 282.753 83.227 282.742 83.223 282.79 83.238 C 282.84 83.253 282.878 83.259 282.926 83.269 C 282.973 83.277 283.013 83.285 283.061 83.291 C 283.109 83.297 283.236 83.301 283.331 83.302 C 283.427 83.304 283.555 83.303 283.602 83.302 C 283.65 83.302 283.777 83.304 283.873 83.298 C 283.968 83.293 284.05 83.285 284.143 83.269 C 284.238 83.251 284.231 83.251 284.279 83.238 Q 284.326 83.226 284.55 83.133 L 284.684 83.061 L 284.812 83.005 L 284.948 82.926 L 285.023 82.896 L 285.226 82.761 Z  M 283.873 79.58 C 283.826 79.597 283.784 79.618 283.738 79.641 C 283.691 79.664 283.557 79.748 283.467 79.817 C 283.377 79.887 283.293 79.967 283.208 80.059 C 283.123 80.149 283.058 80.223 282.993 80.325 C 282.929 80.427 282.89 80.494 282.858 80.595 C 282.825 80.698 282.834 80.683 282.824 80.731 C 282.814 80.779 282.808 80.819 282.801 80.866 C 282.796 80.914 282.791 81.042 282.79 81.137 C 282.789 81.232 282.788 81.313 282.795 81.407 C 282.8 81.502 282.798 81.496 282.806 81.543 C 282.812 81.59 282.821 81.632 282.835 81.679 C 282.85 81.725 282.908 81.856 282.971 81.937 C 283.034 82.019 283.036 82.013 283.076 82.05 C 283.115 82.087 283.233 82.178 283.331 82.227 C 283.429 82.276 283.504 82.299 283.602 82.321 C 283.7 82.343 283.689 82.339 283.738 82.344 C 283.785 82.348 283.825 82.35 283.873 82.351 C 283.921 82.353 284.049 82.355 284.143 82.344 C 284.238 82.332 284.231 82.33 284.279 82.321 Q 284.326 82.312 284.414 82.291 L 284.55 82.238 L 284.82 82.103 L 284.955 82.02 L 285.214 81.802 L 285.429 81.543 L 285.568 81.272 L 285.609 81.137 L 285.68 80.866 L 285.726 80.595 L 285.722 80.461 L 285.699 80.325 L 285.594 80.059 L 285.432 79.817 L 285.214 79.641 L 284.955 79.547 L 284.82 79.524 L 284.55 79.513 L 284.414 79.513 Q 284.238 79.513 284.143 79.524 C 284.049 79.536 284.055 79.538 284.008 79.547 C 283.961 79.557 283.92 79.565 283.873 79.58 Z "
                      fill-rule="evenodd"
                      fill="rgb(110,115,121)"/>
                <path d=" M 271.153 78.025 L 270.849 79.529 L 272.101 79.513 L 272.506 79.513 L 272.777 79.513 L 273.048 79.51 Q 273.136 79.506 273.183 79.498 C 273.23 79.491 273.272 79.482 273.318 79.468 C 273.364 79.454 273.494 79.398 273.574 79.333 C 273.653 79.269 273.647 79.269 273.68 79.228 C 273.713 79.187 273.784 79.069 273.814 78.972 C 273.845 78.874 273.837 78.885 273.845 78.837 C 273.853 78.788 273.858 78.666 273.859 78.573 C 273.861 78.481 273.851 78.804 273.859 78.438 C 273.868 78.073 273.645 78.107 273.446 78.054 C 273.247 78.003 273.363 78.041 273.318 78.036 Q 273.273 78.031 273.048 78.025 L 272.913 78.025 L 272.777 78.025 L 272.372 78.025 L 271.153 78.025 L 271.153 78.025 L 271.153 78.025 Z  M 270.342 76.943 L 269.8 79.513 L 268.989 79.513 L 268.718 80.595 L 269.53 80.595 L 268.989 83.302 L 271.965 83.302 L 272.372 83.302 L 272.642 83.302 L 272.913 83.298 L 273.048 83.291 L 273.318 83.238 L 273.454 83.186 L 273.589 83.129 L 273.725 83.05 L 273.859 82.968 L 274.127 82.75 L 274.255 82.622 L 274.472 82.355 L 274.634 82.084 L 274.746 81.814 L 274.785 81.678 L 274.822 81.543 L 274.86 81.272 L 274.849 81.002 L 274.829 80.866 L 274.804 80.731 L 274.709 80.464 L 274.529 80.227 L 274.405 80.118 L 274.13 79.919 L 274.322 79.848 L 274.378 79.795 L 274.491 79.716 L 274.69 79.502 L 274.785 79.374 L 274.95 79.108 L 275.01 78.972 L 275.044 78.837 L 275.066 78.701 L 275.078 78.431 L 275.078 78.296 L 275.073 78.025 L 275.062 77.889 L 275.033 77.755 L 274.98 77.619 L 274.897 77.487 L 274.791 77.363 L 274.668 77.254 L 274.401 77.092 L 274.266 77.039 L 274.13 76.999 L 273.859 76.954 L 273.725 76.946 L 273.454 76.943 L 273.318 76.943 L 272.913 76.943 L 270.342 76.943 L 270.342 76.943 L 270.342 76.943 Z  M 270.628 80.589 L 270.342 82.22 L 272.236 82.22 L 272.506 82.22 L 272.642 82.22 L 272.913 82.204 Q 273.093 82.166 273.183 82.121 C 273.273 82.077 273.36 82.013 273.438 81.934 C 273.518 81.855 273.51 81.856 273.544 81.81 C 273.577 81.763 273.602 81.727 273.627 81.678 C 273.651 81.629 273.697 81.507 273.706 81.407 C 273.714 81.308 273.707 81.231 273.68 81.141 C 273.651 81.05 273.607 80.974 273.544 80.901 C 273.481 80.826 273.479 80.831 273.438 80.799 C 273.399 80.766 273.28 80.696 273.183 80.664 C 273.087 80.631 273.096 80.639 273.048 80.629 Q 273 80.62 272.777 80.6 L 272.506 80.595 L 272.236 80.595 L 270.628 80.589 Z "
                      fill-rule="evenodd"
                      fill="rgb(110,115,121)"/>
                <path d=" M 291.327 82.761 L 291.191 83.302 L 292.274 83.302 L 293.221 78.431 L 292.274 78.431 L 292.139 78.972 Q 292.014 78.84 291.936 78.781 C 291.858 78.721 291.886 78.746 291.861 78.728 C 291.835 78.709 291.775 78.658 291.725 78.626 C 291.675 78.594 291.56 78.53 291.462 78.498 C 291.364 78.466 291.375 78.474 291.327 78.464 C 291.279 78.454 291.24 78.448 291.191 78.442 C 291.144 78.436 291.016 78.432 290.921 78.431 C 290.825 78.429 290.427 78.43 290.38 78.431 C 290.332 78.431 290.204 78.431 290.109 78.442 C 290.014 78.453 289.93 78.465 289.838 78.495 C 289.745 78.524 289.614 78.579 289.568 78.6 C 289.522 78.621 289.48 78.646 289.432 78.671 C 289.385 78.697 289.256 78.763 289.161 78.814 C 289.068 78.865 289.073 78.861 289.027 78.89 C 288.979 78.917 288.939 78.945 288.891 78.976 C 288.844 79.006 288.802 79.033 288.756 79.066 C 288.71 79.099 288.582 79.194 288.497 79.273 C 288.411 79.352 288.207 79.601 288.173 79.649 C 288.14 79.695 288.054 79.821 287.997 79.919 C 287.939 80.017 287.948 80.007 287.922 80.054 C 287.895 80.102 287.871 80.141 287.847 80.19 C 287.821 80.238 287.764 80.364 287.726 80.461 C 287.688 80.557 287.661 80.635 287.632 80.731 C 287.603 80.828 287.605 80.818 287.594 80.866 C 287.583 80.915 287.559 81.042 287.549 81.137 C 287.539 81.233 287.539 81.313 287.538 81.407 C 287.537 81.503 287.537 81.496 287.538 81.543 C 287.538 81.59 287.537 81.719 287.549 81.814 C 287.561 81.908 287.562 81.901 287.571 81.948 C 287.581 81.996 287.588 82.038 287.602 82.084 C 287.616 82.131 287.634 82.172 287.655 82.22 C 287.675 82.267 287.737 82.398 287.789 82.491 C 287.842 82.582 287.841 82.579 287.872 82.625 C 287.904 82.671 288.007 82.805 288.09 82.893 C 288.174 82.98 288.171 82.975 288.218 83.016 C 288.265 83.058 288.382 83.154 288.485 83.208 C 288.588 83.262 288.572 83.249 288.62 83.269 C 288.669 83.287 288.795 83.325 288.891 83.351 C 288.987 83.377 288.978 83.374 289.027 83.384 C 289.074 83.395 289.201 83.417 289.297 83.426 C 289.393 83.435 289.472 83.437 289.568 83.437 C 289.663 83.437 289.743 83.436 289.838 83.426 C 289.933 83.416 290.015 83.403 290.109 83.381 C 290.203 83.359 290.285 83.33 290.38 83.298 C 290.474 83.266 290.468 83.267 290.514 83.25 Q 290.562 83.231 290.786 83.129 L 290.913 83.058 L 291.124 82.926 L 291.327 82.761 Z  M 289.973 79.569 C 289.88 79.594 289.795 79.621 289.703 79.663 C 289.612 79.706 289.614 79.707 289.568 79.735 C 289.522 79.762 289.479 79.791 289.432 79.825 C 289.386 79.859 289.345 79.895 289.301 79.934 C 289.256 79.974 289.138 80.094 289.06 80.19 C 288.983 80.286 288.931 80.361 288.873 80.461 C 288.813 80.56 288.779 80.633 288.737 80.731 C 288.695 80.829 288.7 80.818 288.684 80.866 C 288.669 80.915 288.641 81.041 288.636 81.137 C 288.63 81.233 288.632 81.225 288.636 81.272 C 288.639 81.319 288.657 81.45 288.689 81.543 C 288.719 81.636 288.764 81.723 288.823 81.81 C 288.883 81.897 288.887 81.894 288.924 81.937 C 288.963 81.98 288.996 82.013 289.038 82.05 C 289.08 82.087 289.118 82.12 289.166 82.152 C 289.213 82.184 289.249 82.203 289.297 82.227 C 289.344 82.252 289.384 82.269 289.432 82.287 C 289.481 82.304 289.606 82.332 289.703 82.344 C 289.799 82.355 289.879 82.354 289.973 82.351 C 290.069 82.348 290.062 82.348 290.109 82.344 C 290.156 82.34 290.286 82.322 290.38 82.299 C 290.474 82.275 290.559 82.246 290.65 82.204 C 290.743 82.163 290.739 82.162 290.786 82.137 C 290.832 82.112 290.963 82.03 291.052 81.964 C 291.143 81.898 291.214 81.839 291.292 81.761 C 291.372 81.683 291.364 81.69 291.398 81.649 C 291.432 81.607 291.514 81.497 291.56 81.404 C 291.606 81.312 291.598 81.319 291.616 81.272 C 291.635 81.226 291.654 81.186 291.669 81.137 C 291.685 81.088 291.712 80.963 291.721 80.866 C 291.731 80.769 291.728 80.778 291.729 80.731 C 291.731 80.683 291.734 80.556 291.729 80.461 C 291.723 80.365 291.724 80.373 291.718 80.325 C 291.71 80.278 291.702 80.236 291.688 80.19 C 291.674 80.144 291.658 80.103 291.635 80.059 C 291.612 80.014 291.584 79.973 291.552 79.931 C 291.519 79.888 291.414 79.779 291.323 79.716 C 291.232 79.653 291.156 79.616 291.057 79.58 C 290.956 79.546 290.883 79.534 290.786 79.524 C 290.689 79.514 290.697 79.519 290.65 79.517 C 290.603 79.515 290.475 79.513 290.38 79.517 C 290.284 79.521 290.292 79.52 290.244 79.524 C 290.197 79.529 290.067 79.546 289.973 79.569 Z "
                      fill-rule="evenodd"
                      fill="rgb(110,115,121)"/>
                <path d=" M 310.259 82.762 L 310.124 83.303 L 311.206 83.303 L 312.154 78.431 L 311.206 78.431 L 311.07 78.972 Q 310.946 78.84 310.868 78.781 C 310.789 78.721 310.819 78.746 310.793 78.728 C 310.766 78.709 310.708 78.659 310.657 78.626 C 310.608 78.594 310.492 78.53 310.394 78.498 C 310.296 78.468 310.307 78.475 310.259 78.465 C 310.211 78.455 310.171 78.449 310.124 78.442 C 310.075 78.437 309.949 78.432 309.853 78.431 C 309.758 78.43 309.359 78.43 309.312 78.431 C 309.264 78.432 309.136 78.431 309.041 78.442 C 308.947 78.453 308.863 78.465 308.771 78.495 C 308.678 78.525 308.546 78.579 308.5 78.6 C 308.453 78.622 308.413 78.646 308.364 78.671 C 308.317 78.697 308.188 78.763 308.094 78.815 C 307.999 78.866 308.005 78.862 307.959 78.89 C 307.912 78.917 307.871 78.946 307.823 78.977 C 307.776 79.008 307.735 79.033 307.688 79.066 C 307.641 79.099 307.515 79.194 307.429 79.273 C 307.344 79.352 307.139 79.603 307.106 79.649 C 307.072 79.696 306.986 79.822 306.928 79.92 C 306.871 80.018 306.88 80.007 306.853 80.055 C 306.827 80.103 306.804 80.141 306.779 80.19 C 306.753 80.238 306.696 80.364 306.658 80.461 C 306.62 80.558 306.593 80.635 306.564 80.732 C 306.535 80.828 306.538 80.819 306.526 80.866 C 306.515 80.915 306.491 81.042 306.481 81.137 C 306.471 81.233 306.471 81.313 306.47 81.409 C 306.469 81.503 306.47 81.496 306.47 81.543 C 306.471 81.59 306.47 81.719 306.481 81.814 C 306.493 81.909 306.495 81.902 306.504 81.95 C 306.513 81.997 306.52 82.038 306.534 82.085 C 306.548 82.131 306.567 82.173 306.587 82.22 C 306.607 82.267 306.669 82.398 306.722 82.491 C 306.775 82.583 306.774 82.58 306.805 82.626 C 306.836 82.672 306.939 82.805 307.023 82.893 C 307.106 82.981 307.104 82.975 307.151 83.017 C 307.197 83.058 307.315 83.155 307.418 83.209 C 307.52 83.262 307.505 83.25 307.553 83.269 C 307.602 83.287 307.727 83.326 307.823 83.351 C 307.919 83.377 307.911 83.374 307.959 83.385 C 308.006 83.395 308.134 83.417 308.23 83.426 C 308.326 83.436 308.405 83.438 308.5 83.438 C 308.596 83.438 308.676 83.436 308.771 83.426 C 308.866 83.416 308.947 83.403 309.041 83.381 C 309.136 83.359 309.218 83.331 309.312 83.298 C 309.406 83.266 309.4 83.269 309.447 83.25 Q 309.495 83.231 309.717 83.13 L 309.845 83.058 L 310.056 82.927 L 310.259 82.762 Z  M 308.906 79.571 C 308.813 79.594 308.727 79.621 308.635 79.664 C 308.544 79.706 308.546 79.708 308.5 79.736 C 308.453 79.763 308.41 79.792 308.364 79.826 C 308.319 79.859 308.278 79.895 308.233 79.934 C 308.188 79.975 308.07 80.094 307.993 80.19 C 307.915 80.287 307.864 80.361 307.804 80.461 C 307.746 80.561 307.711 80.634 307.669 80.732 C 307.628 80.829 307.631 80.818 307.617 80.866 C 307.602 80.916 307.573 81.041 307.568 81.137 C 307.562 81.234 307.565 81.226 307.568 81.273 C 307.571 81.32 307.59 81.452 307.62 81.543 C 307.651 81.636 307.696 81.724 307.756 81.81 C 307.815 81.897 307.819 81.896 307.857 81.939 C 307.896 81.98 307.928 82.013 307.97 82.051 C 308.012 82.088 308.05 82.12 308.098 82.152 C 308.145 82.184 308.181 82.203 308.23 82.227 C 308.277 82.252 308.316 82.27 308.364 82.288 C 308.414 82.305 308.538 82.333 308.635 82.344 C 308.732 82.355 308.811 82.354 308.906 82.352 C 309.001 82.348 308.993 82.348 309.041 82.344 C 309.088 82.34 309.218 82.322 309.312 82.299 C 309.406 82.275 309.49 82.246 309.583 82.205 C 309.674 82.164 309.671 82.162 309.717 82.137 C 309.765 82.112 309.895 82.031 309.985 81.964 C 310.074 81.898 310.147 81.839 310.225 81.761 C 310.304 81.683 310.296 81.691 310.33 81.649 C 310.365 81.607 310.446 81.497 310.492 81.404 C 310.538 81.312 310.529 81.319 310.548 81.273 C 310.568 81.226 310.586 81.186 310.601 81.137 C 310.617 81.089 310.644 80.963 310.654 80.866 C 310.664 80.771 310.659 80.779 310.662 80.732 C 310.663 80.683 310.666 80.556 310.662 80.461 C 310.656 80.366 310.657 80.373 310.65 80.325 C 310.643 80.278 310.634 80.237 310.62 80.19 C 310.605 80.144 310.59 80.103 310.567 80.059 C 310.545 80.015 310.517 79.974 310.484 79.931 C 310.452 79.888 310.347 79.78 310.255 79.717 C 310.165 79.653 310.088 79.616 309.988 79.582 C 309.889 79.547 309.814 79.535 309.717 79.525 C 309.621 79.514 309.63 79.519 309.583 79.518 C 309.534 79.515 309.407 79.514 309.312 79.518 C 309.217 79.521 309.224 79.521 309.176 79.525 C 309.129 79.529 309 79.546 308.906 79.571 Z "
                      fill-rule="evenodd"
                      fill="rgb(238,93,47)"/>
            </g>
        </g>
    </g>
</svg>
