<?xml version="1.0" encoding="UTF-8" standalone="no"?><!-- Generator: Gravit.io -->
<svg xmlns="http://www.w3.org/2000/svg"
     style="isolation:isolate" viewBox="484.863 313.529 80 80" width="80pt" height="80pt">
    <g>
        <circle vector-effect="non-scaling-stroke"
                cx="524.8627952755905"
                cy="353.5294619422572"
                r="40"
                fill="rgb(249,235,233)"/>
        <path d=" M 535.804 344.779 C 535.656 344.807 535.646 345.121 535.637 348.435 C 535.637 351.286 535.609 352.026 535.526 351.888 C 535.22 351.388 534.647 350.879 534.091 350.62 L 533.499 350.333 L 533.952 350.073 C 534.961 349.5 535.406 348.768 535.406 347.713 C 535.396 346.297 534.397 345.306 532.592 344.927 C 532.027 344.807 531.472 344.788 529.676 344.825 C 528.352 344.844 527.353 344.908 527.205 344.964 L 526.945 345.075 L 526.945 350.851 L 526.945 356.636 L 527.158 356.756 C 527.492 356.951 531.601 356.914 532.536 356.71 C 533.453 356.516 534.304 356.127 534.813 355.664 C 535.22 355.294 535.665 354.516 535.785 353.961 L 535.859 353.637 L 535.97 353.961 C 536.368 355.09 537.025 355.914 537.886 356.349 C 539.876 357.358 542.755 356.997 544.06 355.572 C 544.967 354.572 545.347 353.461 545.384 351.619 C 545.393 350.999 545.421 350.453 545.439 350.407 C 545.467 350.37 545.671 350.675 545.893 351.092 L 546.309 351.841 L 546.3 354.183 C 546.291 355.47 546.309 356.59 546.346 356.673 C 546.393 356.812 546.569 356.83 547.689 356.83 L 548.975 356.83 L 548.975 354.368 L 548.975 351.906 L 549.475 351.018 C 549.753 350.527 550.401 349.37 550.919 348.454 C 552.27 346.065 552.863 345.001 552.863 344.945 C 552.863 344.918 552.196 344.89 551.391 344.89 C 550.299 344.89 549.91 344.918 549.873 345.001 C 549.845 345.066 549.41 346.121 548.901 347.343 C 548.392 348.565 547.948 349.666 547.911 349.786 C 547.827 350.073 547.744 349.972 547.402 349.101 C 547.115 348.38 545.634 344.871 545.597 344.816 C 545.578 344.797 544.958 344.788 544.199 344.788 L 542.82 344.788 L 542.764 348.703 C 542.699 352.971 542.662 353.267 542.153 353.998 C 541.774 354.526 541.293 354.748 540.506 354.748 C 539.738 354.748 539.367 354.572 538.923 353.98 C 538.386 353.285 538.331 352.785 538.331 348.555 C 538.331 345.612 538.303 344.797 538.219 344.797 C 537.099 344.76 535.924 344.76 535.804 344.779 Z  M 531.768 346.843 C 532.425 347.01 532.832 347.685 532.684 348.361 C 532.499 349.185 531.898 349.527 530.537 349.592 L 529.63 349.638 L 529.63 348.194 L 529.63 346.75 L 530.167 346.723 C 530.796 346.686 531.314 346.732 531.768 346.843 Z  M 531.851 351.702 C 532.388 351.878 532.703 352.165 532.897 352.647 C 533.11 353.165 533.092 353.359 532.832 353.933 C 532.573 354.479 532.231 354.701 531.361 354.887 C 530.861 354.988 530.009 354.998 529.75 354.905 C 529.658 354.877 529.63 354.452 529.63 353.221 C 529.63 351.989 529.658 351.554 529.75 351.527 C 529.963 351.434 531.435 351.554 531.851 351.702 Z "
              fill="rgb(198,49,27)"/>
        <path d=" M 498.436 345.038 C 498.362 345.047 497.974 345.094 497.585 345.121 L 496.863 345.186 L 496.863 351.045 C 496.863 355.636 496.891 356.932 496.983 356.988 C 497.039 357.025 498.057 357.071 499.223 357.09 C 501.065 357.117 501.482 357.099 502.296 356.932 C 503.944 356.608 504.916 355.951 505.453 354.803 C 505.767 354.128 505.786 353.017 505.499 352.369 C 505.221 351.749 504.629 351.156 503.99 350.851 C 503.685 350.703 503.435 350.564 503.435 350.527 C 503.435 350.499 503.601 350.397 503.814 350.305 C 504.268 350.092 504.832 349.546 505.064 349.074 C 505.193 348.824 505.24 348.528 505.24 347.944 C 505.24 347.26 505.212 347.102 504.99 346.732 C 504.481 345.871 503.611 345.343 502.342 345.112 C 501.713 345.001 498.853 344.945 498.436 345.038 Z  M 501.907 347.167 C 502.565 347.5 502.805 348.38 502.417 349.018 C 502.102 349.509 501.509 349.74 500.454 349.777 L 499.547 349.814 L 499.547 349.574 C 499.538 349.444 499.538 348.916 499.538 348.407 C 499.538 347.898 499.538 347.352 499.547 347.195 L 499.547 346.908 L 500.547 346.945 C 501.324 346.963 501.62 347.01 501.907 347.167 Z  M 501.88 351.962 C 502.565 352.258 502.879 352.739 502.879 353.461 C 502.879 354.572 501.991 355.164 500.306 355.164 L 499.547 355.164 L 499.547 353.443 L 499.547 351.712 L 500.547 351.758 C 501.158 351.795 501.667 351.869 501.88 351.962 Z "
              fill="rgb(198,49,27)"/>
        <path d=" M 506.313 345.223 C 506.119 345.464 506.119 345.556 506.119 350.12 C 506.119 353.822 506.147 354.785 506.239 354.822 C 506.304 354.85 506.859 354.859 507.461 354.85 L 508.572 354.84 L 508.627 353.406 C 508.664 352.619 508.692 351.878 508.701 351.758 C 508.711 351.554 508.72 351.554 510.266 351.554 L 511.812 351.554 L 511.302 351.277 C 510.784 350.99 510.219 350.471 510.016 350.092 C 509.923 349.907 509.84 349.888 509.248 349.888 L 508.59 349.888 L 508.655 348.481 C 508.692 347.704 508.748 347.037 508.766 347 C 508.794 346.954 509.072 346.926 509.396 346.926 C 509.97 346.926 509.97 346.926 510.173 346.575 C 510.368 346.223 511.127 345.455 511.58 345.149 C 511.802 345.001 511.682 344.992 509.155 344.992 L 506.498 344.982 L 506.313 345.223 Z "
              fill="rgb(198,49,27)"/>
        <path d=" M 512.691 345.205 C 510.84 345.825 509.821 347.047 509.942 348.5 C 510.007 349.287 510.257 349.823 510.821 350.407 C 511.386 350.981 511.932 351.267 513.894 352.063 C 515.496 352.711 515.782 352.887 515.986 353.378 C 516.301 354.1 515.986 354.748 515.153 355.118 C 514.579 355.377 513.367 355.442 509.099 355.442 L 506.304 355.442 L 506.721 356.275 L 507.137 357.108 L 511.191 357.108 C 514.986 357.108 515.292 357.099 515.986 356.914 C 517.236 356.59 518.309 355.896 518.754 355.118 C 519.217 354.313 519.281 353.109 518.92 352.276 C 518.532 351.406 517.782 350.805 516.393 350.268 C 514.116 349.379 513.635 349.139 513.256 348.722 C 513.024 348.481 512.876 348.231 512.876 348.093 C 512.876 347.704 513.367 347.25 514.126 346.936 L 514.811 346.649 L 519.79 346.649 L 524.77 346.639 L 525.307 345.871 C 525.594 345.436 525.835 345.066 525.835 345.038 C 525.835 345.01 523.012 344.982 519.568 344.992 C 513.357 345.001 513.283 345.001 512.691 345.205 Z "
              fill="rgb(198,49,27)"/>
        <path d=" M 519.911 351.925 L 519.911 356.923 L 520.42 356.923 C 520.947 356.923 521.494 356.747 521.78 356.488 C 521.938 356.349 521.947 356.034 521.947 351.628 L 521.947 346.926 L 520.929 346.926 L 519.911 346.926 L 519.911 351.925 Z "
              fill="rgb(198,49,27)"/>
        <path d=" M 547.217 359.931 L 547.217 362.199 L 547.726 362.199 L 548.235 362.199 L 548.235 359.931 L 548.235 357.663 L 547.726 357.663 L 547.217 357.663 L 547.217 359.931 Z "
              fill="rgb(43,29,68)"/>
        <path d=" M 530.926 358.469 C 530.185 358.858 529.861 359.413 529.861 360.301 C 529.87 361.588 530.611 362.292 531.962 362.292 C 532.305 362.292 532.675 362.255 532.805 362.208 C 532.999 362.134 533.018 362.088 532.971 361.718 L 532.916 361.32 L 532.481 361.347 C 531.574 361.403 531.046 360.903 531.138 360.079 C 531.176 359.755 531.25 359.598 531.49 359.394 C 531.768 359.144 531.833 359.126 532.323 359.172 L 532.86 359.219 L 532.953 358.793 C 532.999 358.552 533.018 358.339 532.99 358.311 C 532.971 358.284 532.61 358.256 532.194 358.237 C 531.509 358.21 531.388 358.228 530.926 358.469 Z "
              fill="rgb(43,29,68)"/>
        <path d=" M 534.434 358.432 C 533.804 358.765 533.48 359.293 533.443 360.07 C 533.36 361.496 534.082 362.292 535.433 362.292 C 536.664 362.282 537.396 361.625 537.479 360.44 C 537.581 359.033 536.85 358.228 535.452 358.219 C 534.989 358.219 534.748 358.274 534.434 358.432 Z  M 535.887 359.265 C 536.516 359.811 536.202 361.459 535.461 361.459 C 535.165 361.459 534.813 361.07 534.711 360.644 C 534.6 360.116 534.739 359.524 535.045 359.256 C 535.35 358.996 535.572 358.996 535.887 359.265 Z "
              fill="rgb(43,29,68)"/>
        <path d=" M 539.997 358.284 C 539.923 358.311 539.747 358.441 539.608 358.571 L 539.349 358.811 L 539.349 358.561 C 539.349 358.321 539.33 358.311 538.793 358.311 L 538.229 358.311 L 538.238 360.255 L 538.247 362.199 L 538.849 362.199 L 539.441 362.199 L 539.451 361.292 C 539.46 359.885 539.506 359.589 539.775 359.348 C 540.071 359.089 540.136 359.089 540.413 359.376 C 540.635 359.589 540.645 359.644 540.645 360.903 L 540.645 362.199 L 541.246 362.199 L 541.848 362.199 L 541.848 360.996 C 541.848 360.089 541.885 359.718 541.987 359.515 C 542.07 359.357 542.172 359.237 542.209 359.237 C 542.255 359.237 542.357 359.209 542.44 359.181 C 542.524 359.154 542.681 359.228 542.82 359.367 C 543.042 359.589 543.051 359.626 543.051 360.894 C 543.051 361.662 543.088 362.199 543.144 362.218 C 543.19 362.227 543.468 362.227 543.745 362.218 L 544.255 362.181 L 544.255 360.838 C 544.255 359.283 544.162 358.876 543.727 358.497 C 543.468 358.265 543.329 358.219 542.949 358.219 C 542.45 358.219 542.209 358.311 541.866 358.626 L 541.654 358.821 L 541.496 358.626 C 541.413 358.515 541.246 358.376 541.135 358.321 C 540.932 358.219 540.247 358.191 539.997 358.284 Z "
              fill="rgb(43,29,68)"/>
        <path d=" M 528.241 360.931 C 528.093 361.005 527.982 361.172 527.927 361.394 C 527.806 361.875 528.065 362.236 528.556 362.273 C 529.315 362.338 529.611 361.412 528.991 360.931 C 528.797 360.783 528.528 360.783 528.241 360.931 Z "
              fill="rgb(43,29,68)"/>
        <path d=" M 545.43 360.996 C 545.236 361.144 545.18 361.273 545.18 361.542 C 545.18 362.051 545.393 362.292 545.837 362.292 C 546.3 362.292 546.569 362.042 546.569 361.607 C 546.569 360.968 545.921 360.616 545.43 360.996 Z "
              fill="rgb(43,29,68)"/>
        <path d=" M 497.048 361.681 C 497.048 362.162 497.057 362.19 497.307 362.218 C 497.446 362.236 504.166 362.236 512.237 362.218 L 526.918 362.199 L 526.936 361.69 L 526.955 361.181 L 511.997 361.181 L 497.048 361.181 L 497.048 361.681 Z "
              fill="rgb(43,29,68)"/>
        <path d=" M 549.595 358.358 C 549.401 358.422 549.216 358.497 549.197 358.524 C 549.17 358.552 549.197 358.737 549.253 358.95 L 549.355 359.33 L 549.688 359.191 C 550.169 358.987 550.78 359.006 551.012 359.237 C 551.123 359.348 551.178 359.459 551.16 359.505 C 551.132 359.542 550.882 359.607 550.595 359.635 C 549.929 359.7 549.281 360.015 549.058 360.385 C 548.707 360.968 548.892 361.82 549.438 362.143 C 549.799 362.356 550.521 362.338 550.9 362.106 C 551.261 361.884 551.289 361.884 551.289 362.051 C 551.289 362.218 551.465 362.255 552.02 362.218 L 552.446 362.181 L 552.418 360.783 C 552.381 359.08 552.261 358.719 551.622 358.413 C 551.16 358.182 550.151 358.154 549.595 358.358 Z  M 551.139 360.404 C 551.189 360.454 551.178 360.947 551.124 361.072 C 550.93 361.516 550.27 361.608 550.065 361.221 C 549.946 360.994 550.034 360.703 550.274 360.532 C 550.469 360.393 551.043 360.308 551.139 360.404 Z "
              fill-rule="evenodd"
              fill="rgb(43,29,68)"/>
    </g>
</svg>
