<?xml version="1.0" encoding="UTF-8" standalone="no"?><!-- Generator: Gravit.io --><svg xmlns="http://www.w3.org/2000/svg" xmlns:xlink="http://www.w3.org/1999/xlink" style="isolation:isolate" viewBox="112.433 292.245 80 80" width="80pt" height="80pt"><g><path d=" M 152.885 313.3 C 143.723 316.62 136.924 324.958 135.384 335.129 C 133.605 347.877 141.944 357.835 154.903 357.702 C 157.745 357.676 163.932 357.065 166.774 355.844 L 169.589 339.033 C 166.641 341.503 163.401 343.282 159.63 343.309 C 154.77 343.362 151.212 339.458 151.849 334.572 C 152.619 329.685 157.16 325.728 162.047 325.675 C 165.685 325.649 168.686 327.773 170.996 330.19 L 173.36 313.114 C 173.36 313.114 166.375 311.574 161.861 311.786 C 158.329 311.919 152.885 313.3 152.885 313.3 L 152.885 313.3 L 152.885 313.3 Z  M 112.433 332.245 C 112.433 310.168 130.357 292.245 152.433 292.245 C 174.51 292.245 192.433 310.168 192.433 332.245 C 192.433 354.321 174.51 372.245 152.433 372.245 C 130.357 372.245 112.433 354.321 112.433 332.245 L 112.433 332.245 L 112.433 332.245 Z  M 132.45 321.15 L 132.277 322.329 L 137.137 322.276 C 138.89 322.276 140.908 321.559 141.173 319.541 C 141.282 318.429 140.926 317.693 140.258 317.236 C 140.364 317.555 140.393 317.935 140.35 318.372 C 139.952 320.391 138.066 321.108 136.314 321.108 L 132.45 321.15 L 132.45 321.15 Z  M 140.095 316.856 C 140.836 316.486 141.268 315.651 141.386 314.92 C 141.504 313.715 141.104 312.975 140.435 312.547 L 140.435 312.547 C 140.498 312.861 140.503 313.223 140.43 313.645 C 140.297 314.601 139.766 315.557 138.836 315.823 C 139.425 316.038 139.858 316.37 140.095 316.856 L 140.095 316.856 Z  M 136.644 314.784 L 136.659 314.575 L 136.924 314.575 C 136.934 314.575 136.944 314.575 136.956 314.574 C 137.081 314.456 137.172 314.291 137.216 314.07 C 137.349 313.247 136.659 313.406 136.128 313.406 L 135.862 313.406 L 135.597 314.893 L 135.995 314.893 L 135.995 314.893 C 136.218 314.893 136.445 314.865 136.644 314.784 L 136.644 314.784 Z  M 136.091 318.665 L 136.154 318.24 L 136.553 318.24 C 136.669 318.24 136.805 318.24 136.948 318.24 C 137.032 318.149 137.085 318.023 137.11 317.868 C 137.243 317.045 136.314 317.071 135.756 317.071 L 135.358 317.071 L 135.092 318.691 L 135.092 318.691 L 135.49 318.691 C 135.666 318.691 135.878 318.691 136.091 318.665 L 136.091 318.665 Z " fill-rule="evenodd" fill="rgb(237,29,36)" fill-opacity="0.1"/><path d=" M 132.45 321.15 L 132.277 322.329 L 137.137 322.276 C 138.89 322.276 140.908 321.559 141.173 319.541 C 141.282 318.429 140.926 317.693 140.258 317.236 C 140.364 317.555 140.393 317.935 140.35 318.372 C 139.952 320.391 138.066 321.108 136.314 321.108 L 132.45 321.15 Z  M 140.095 316.856 C 140.836 316.486 141.268 315.651 141.386 314.92 C 141.504 313.715 141.104 312.975 140.435 312.547 L 140.435 312.547 C 140.498 312.861 140.503 313.223 140.43 313.645 C 140.297 314.601 139.766 315.557 138.836 315.823 C 139.425 316.038 139.858 316.37 140.095 316.856 Z  M 136.644 314.784 L 136.659 314.575 L 136.924 314.575 C 136.934 314.575 136.944 314.575 136.956 314.574 C 137.081 314.456 137.172 314.291 137.216 314.07 C 137.349 313.247 136.659 313.406 136.128 313.406 L 135.862 313.406 L 135.597 314.893 L 135.995 314.893 L 135.995 314.893 C 136.218 314.893 136.445 314.865 136.644 314.784 Z  M 136.091 318.665 L 136.154 318.24 L 136.553 318.24 C 136.669 318.24 136.805 318.24 136.948 318.24 C 137.032 318.149 137.085 318.023 137.11 317.868 C 137.243 317.045 136.314 317.071 135.756 317.071 L 135.358 317.071 L 135.092 318.691 L 135.092 318.691 L 135.49 318.691 C 135.666 318.691 135.878 318.691 136.091 318.665 Z " fill-rule="evenodd" fill="rgb(0,0,0)"/><path d=" M 142.163 321.206 L 141.997 322.382 L 145.396 322.356 L 146.405 315.026 L 145.287 315.035 L 144.44 321.187 L 142.163 321.206 Z " fill="rgb(0,0,0)"/><path d=" M 139.2 321.902 C 136.609 325.451 134.833 329.675 134.136 334.28 C 132.357 347.027 140.695 356.985 153.655 356.853 C 156.496 356.826 162.711 356.215 165.526 354.967 L 168.341 338.157 C 165.393 340.627 162.18 342.406 158.382 342.433 C 153.522 342.486 149.964 338.582 150.601 333.695 C 151.371 328.809 155.939 324.852 160.799 324.799 C 164.437 324.746 167.438 326.897 169.748 329.314 L 172.112 312.238 C 172.112 312.238 165.552 310.459 161.277 310.565 C 157.479 310.724 151.637 312.45 151.637 312.45 C 149.787 313.126 148.034 314.004 146.401 315.058 L 146.401 315.058 L 145.396 322.356 L 141.997 322.382 L 142.613 318.019 C 142.113 318.488 141.63 318.976 141.176 319.493 C 141.176 319.508 141.175 319.525 141.173 319.541 C 141.012 320.766 140.205 321.512 139.2 321.902 Z  M 151.318 319.594 C 150.76 319.594 150.362 319.196 150.495 318.664 C 150.627 318.107 151.026 317.576 151.557 317.576 C 152.088 317.576 152.38 318.107 152.247 318.664 C 152.247 319.169 151.849 319.567 151.318 319.594 L 151.318 319.594 L 151.318 319.594 Z  M 154.983 321.851 L 155.992 314.947 L 152.619 314.973 L 152.619 316.062 L 152.486 316.062 C 152.194 315.265 151.53 314.84 150.707 314.867 C 148.689 314.893 147.361 316.806 147.095 318.691 C 146.83 320.444 147.653 322.489 149.565 322.462 C 150.388 322.462 151.318 322.037 151.849 321.214 L 151.716 321.878 C 151.584 322.834 150.92 323.524 149.99 323.524 C 149.167 323.524 148.211 323.259 147.68 322.728 L 146.617 325.171 L 146.883 325.304 C 147.839 325.702 148.662 325.835 149.725 325.835 C 152.168 325.808 154.584 324.693 154.983 321.851 L 154.983 321.851 L 154.983 321.851 Z " fill-rule="evenodd" fill="rgb(237,29,36)"/><path d=" M 145.373 314.407 C 146.076 314.21 146.672 313.676 146.777 312.716 C 146.978 311.993 146.632 311.437 145.976 311.227 C 145.973 311.332 145.969 311.438 145.954 311.547 C 145.847 312.769 144.891 313.327 143.802 313.327 C 143.56 313.327 143.325 313.292 143.127 313.203 C 143.157 313.471 143.244 313.694 143.372 313.875 L 145.449 313.858 L 145.373 314.407 Z " fill="rgb(0,0,0)"/><path d=" M 154.886 314.955 L 155.992 314.947 L 154.983 321.851 C 154.584 324.693 152.168 325.808 149.725 325.835 C 148.662 325.835 147.839 325.702 146.883 325.304 L 146.617 325.171 L 146.961 324.381 C 147.572 324.541 148.189 324.658 148.928 324.64 C 151.345 324.64 153.761 323.524 154.16 320.683 L 154.16 320.683 L 154.886 314.955 Z  M 147.309 320.79 C 147.598 321.57 148.148 322.193 148.961 322.38 C 148.985 322.382 149.01 322.382 149.034 322.382 C 149.99 322.382 150.787 321.692 150.92 320.736 L 151.052 320.045 L 150.92 320.045 C 150.521 320.869 149.592 321.294 148.769 321.294 C 148.18 321.302 147.695 321.108 147.309 320.79 Z  M 150.573 318.417 C 150.729 318.015 151.021 317.671 151.394 317.589 C 151.407 317.56 151.416 317.528 151.424 317.496 C 151.557 316.938 151.265 316.407 150.734 316.407 C 150.203 316.407 149.671 316.938 149.671 317.496 C 149.539 318.027 149.804 318.425 150.495 318.425 L 150.495 318.425 C 150.522 318.424 150.548 318.422 150.573 318.417 Z " fill-rule="evenodd" fill="rgb(0,0,0)"/><path d=" M 142.209 313.884 L 141.2 321.214 L 144.44 321.187 L 145.449 313.858 L 142.209 313.884 Z " fill-rule="evenodd" fill="rgb(255,221,0)"/><path d=" M 132.861 310.857 L 131.454 321.161 L 136.314 321.108 C 138.066 321.108 139.952 320.391 140.35 318.372 C 140.483 317.018 139.925 316.221 138.836 315.823 C 139.766 315.557 140.297 314.601 140.43 313.645 C 140.828 311.335 138.916 310.804 137.031 310.83 L 132.861 310.857 Z  M 135.995 314.893 L 135.597 314.893 L 135.862 313.406 L 136.128 313.406 C 136.659 313.406 137.349 313.247 137.216 314.07 C 137.084 314.734 136.526 314.893 135.995 314.893 Z  M 135.092 318.691 L 135.358 317.071 L 135.756 317.071 C 136.314 317.071 137.243 317.045 137.11 317.868 C 136.977 318.691 136.048 318.691 135.49 318.691 L 135.092 318.691 Z " fill-rule="evenodd" fill="rgb(255,221,0)"/><path d=" M 150.495 318.425 C 149.804 318.425 149.539 318.027 149.671 317.496 C 149.671 316.938 150.203 316.407 150.734 316.407 C 151.265 316.407 151.557 316.938 151.424 317.496 C 151.291 318.001 151.026 318.399 150.495 318.425 Z  M 154.16 320.683 L 155.036 313.778 L 151.796 313.805 L 151.796 314.893 L 151.663 314.893 C 151.265 314.097 150.707 313.672 149.778 313.698 C 147.892 313.698 146.538 315.61 146.299 317.523 C 146.06 319.275 146.883 321.32 148.769 321.294 C 149.592 321.294 150.521 320.869 150.92 320.045 L 151.052 320.045 L 150.92 320.736 C 150.787 321.692 149.99 322.382 149.034 322.382 C 148.211 322.382 147.414 322.117 146.724 321.586 L 145.661 324.029 L 146.086 324.135 C 147.016 324.401 147.839 324.666 148.928 324.64 C 151.345 324.64 153.761 323.524 154.16 320.683 Z " fill-rule="evenodd" fill="rgb(255,221,0)"/><path d=" M 145.954 311.547 C 146.086 310.591 145.396 309.927 144.307 309.927 C 143.218 309.927 142.422 310.618 142.289 311.574 C 142.023 312.795 142.846 313.327 143.802 313.327 C 144.891 313.327 145.847 312.769 145.954 311.547 Z " fill-rule="evenodd" fill="rgb(255,221,0)"/></g></svg>