<?xml version="1.0" encoding="UTF-8" standalone="no"?><!-- Generator: Gravit.io -->
<svg xmlns="http://www.w3.org/2000/svg"
     style="isolation:isolate" viewBox="776.697 433.529 80 80" width="80pt" height="80pt">
    <g>
        <circle vector-effect="non-scaling-stroke"
                cx="816.6969696969695"
                cy="473.5294619422573"
                r="40"
                fill="rgb(196,13,66)"
                fill-opacity="0.1"/>
        <g>
            <g>
                <path d=" M 794.981 484.08 C 795.348 483.621 795.57 482.985 795.512 482.234 C 795.443 481.374 795.012 480.818 794.369 480.474 C 793.694 480.116 792.814 480.092 791.791 480.092 L 788.946 480.092 C 788.808 480.092 788.697 480.203 788.697 480.34 L 788.697 488.741 C 788.697 488.879 788.808 488.99 788.946 488.99 L 791.984 488.99 C 792.537 488.99 793.051 488.996 793.514 488.924 C 794.154 488.819 794.679 488.589 795.061 488.224 C 795.156 488.148 796.349 487.089 795.826 485.303 C 795.661 484.826 795.369 484.403 794.981 484.08 L 794.981 484.08 Z  M 791.059 481.917 L 792.453 481.917 L 792.453 481.917 C 793.002 481.941 793.438 482.314 793.438 482.77 C 793.438 483.226 793 483.601 792.453 483.624 L 792.453 483.624 L 791.06 483.624 C 790.923 483.624 790.811 483.513 790.811 483.376 L 790.811 482.152 C 790.819 482.021 790.927 481.918 791.059 481.917 Z  M 792.624 487.212 L 791.056 487.212 C 790.919 487.212 790.808 487.1 790.808 486.963 L 790.808 485.739 C 790.81 485.603 790.92 485.494 791.056 485.494 L 792.623 485.494 C 793.197 485.494 793.663 485.877 793.663 486.353 C 793.663 486.83 793.197 487.212 792.623 487.212 L 792.624 487.212 Z "
                      fill="rgb(196,13,66)"/>
                <path d=" M 802.244 480.883 L 800.626 480.883 C 800.491 480.885 800.382 480.996 800.381 481.131 L 800.381 485.993 C 799.982 486.176 799.546 486.266 799.107 486.256 C 798.824 486.236 798.586 486.035 798.518 485.76 L 798.518 485.76 C 798.451 485.465 798.456 485.08 798.441 484.771 C 798.419 484.301 798.441 483.829 798.441 483.4 L 798.441 481.131 C 798.441 480.994 798.329 480.883 798.192 480.883 L 796.573 480.883 C 796.437 480.885 796.328 480.995 796.328 481.131 L 796.328 484.358 C 796.328 484.835 796.335 485.293 796.376 485.716 C 796.465 486.474 796.864 487.162 797.478 487.615 C 798.093 488.068 798.867 488.247 799.618 488.108 L 799.618 488.108 C 799.667 488.099 799.716 488.089 799.763 488.077 C 800.244 487.961 802.038 487.28 802.492 487.121 L 802.492 481.131 C 802.492 480.994 802.381 480.883 802.244 480.883 L 802.244 480.883 Z "
                      fill="rgb(196,13,66)"/>
                <path d=" M 807.494 482.777 C 807.272 482.771 807.061 482.875 806.931 483.056 C 806.486 483.683 805.699 484.832 805.699 484.832 C 805.671 484.875 805.623 484.901 805.571 484.9 C 805.487 484.9 805.418 484.832 805.418 484.747 L 805.418 480.395 C 805.418 480.258 805.307 480.147 805.17 480.147 L 803.545 480.147 C 803.409 480.149 803.3 480.26 803.299 480.395 L 803.299 488.741 C 803.299 488.741 803.299 489.008 803.548 489.008 L 805.164 489.008 C 805.301 489.007 805.412 488.896 805.413 488.759 L 805.413 487.365 C 805.412 487.297 805.456 487.236 805.521 487.216 C 805.587 487.196 805.657 487.222 805.694 487.28 C 806.048 487.729 806.524 488.364 806.835 488.717 C 806.835 488.717 807.065 489.007 807.38 489.007 L 809.496 489.007 L 807.189 486.023 L 809.496 482.779 L 807.494 482.777 Z "
                      fill="rgb(196,13,66)"/>
                <path d=" M 825.714 486.619 L 825.637 486.615 C 825.117 486.598 824.961 486.436 824.914 486.22 C 824.899 486.152 824.904 485.838 824.904 485.733 L 824.904 483.34 C 824.904 482.412 824.761 481.746 824.249 481.267 C 823.761 480.808 822.872 480.708 821.94 480.766 C 821.656 480.782 821.377 480.806 821.102 480.835 L 821.102 480.835 C 820.532 480.896 820.362 480.926 820.087 480.968 C 819.827 481.006 819.615 481.197 819.552 481.453 C 819.533 481.525 819.527 481.601 819.535 481.676 L 819.603 483.076 L 819.603 483.11 C 819.603 483.11 819.653 483.11 819.603 483.116 C 820.304 482.999 820.388 482.963 821.354 482.833 C 821.687 482.789 822.49 482.697 822.668 482.811 C 822.828 482.911 822.821 482.989 822.804 483.239 C 822.12 483.315 821.449 483.315 820.856 483.433 C 820.263 483.551 819.785 483.809 819.479 484.235 C 819.173 484.661 819.061 485.322 819.143 486.011 C 819.187 486.432 819.343 486.833 819.597 487.172 C 819.73 487.333 819.896 487.465 820.082 487.56 C 820.487 487.78 820.938 487.902 821.398 487.917 C 821.533 487.921 821.668 487.914 821.801 487.897 C 821.932 487.879 822.062 487.854 822.189 487.82 C 822.495 487.735 822.784 487.599 823.045 487.419 L 823.08 487.449 L 823.08 487.449 C 823.642 487.915 824.656 488.265 825.636 487.931 L 825.713 487.907 L 825.714 486.619 Z  M 822.8 485.881 C 822.806 486.001 822.718 486.105 822.599 486.12 L 822.569 486.12 L 822.565 486.12 L 821.989 486.174 C 821.799 486.21 821.603 486.16 821.454 486.037 C 821.305 485.914 821.219 485.731 821.218 485.538 C 821.219 485.18 821.509 484.889 821.867 484.889 L 822.8 484.8 L 822.8 485.881 Z "
                      fill="rgb(196,13,66)"/>
                <path d=" M 833.079 489.007 L 839.187 489.007 L 838.498 488.115 L 838.422 488.11 C 837.902 488.094 837.745 487.931 837.699 487.716 C 837.684 487.648 837.689 487.333 837.689 487.228 L 837.689 484.837 C 837.689 483.909 837.546 483.243 837.034 482.764 C 836.547 482.305 835.657 482.205 834.724 482.263 C 834.44 482.279 834.161 482.303 833.883 482.332 L 833.883 482.332 C 833.312 482.394 833.143 482.423 832.867 482.465 C 832.607 482.504 832.395 482.695 832.332 482.95 C 832.313 483.023 832.307 483.099 832.316 483.174 L 832.382 484.573 L 832.382 484.586 L 832.382 484.604 C 832.382 484.604 832.431 484.604 832.382 484.61 C 833.083 484.493 833.167 484.457 834.133 484.327 C 834.466 484.283 835.269 484.191 835.447 484.305 C 835.607 484.404 835.6 484.484 835.584 484.732 C 834.9 484.809 834.229 484.809 833.635 484.926 C 833.041 485.044 832.564 485.302 832.258 485.728 C 831.952 486.154 831.84 486.814 831.922 487.504 C 831.966 487.925 832.123 488.326 832.376 488.665 C 832.554 488.87 832.808 488.994 833.079 489.007 L 833.079 489.007 Z  M 834.654 486.387 L 835.587 486.297 L 835.587 487.376 C 835.593 487.496 835.505 487.6 835.386 487.615 L 835.356 487.615 L 835.352 487.615 L 834.776 487.669 C 834.736 487.676 834.695 487.68 834.655 487.68 C 834.296 487.68 834.005 487.389 834.005 487.03 C 834.005 486.671 834.296 486.38 834.655 486.38 L 834.654 486.387 Z "
                      fill="rgb(196,13,66)"/>
                <path d=" M 842.695 482.777 C 842.473 482.771 842.262 482.875 842.133 483.056 C 841.687 483.683 840.898 484.832 840.898 484.832 C 840.862 484.891 840.79 484.918 840.724 484.898 C 840.657 484.878 840.613 484.816 840.615 484.747 L 840.615 480.395 C 840.615 480.258 840.503 480.147 840.366 480.147 L 838.747 480.147 C 838.611 480.149 838.502 480.26 838.501 480.395 L 838.501 488.741 C 838.501 488.741 838.501 489.008 838.75 489.008 L 840.364 489.008 C 840.501 489.007 840.613 488.896 840.613 488.759 L 840.613 487.365 C 840.612 487.297 840.656 487.236 840.722 487.216 C 840.787 487.196 840.858 487.222 840.895 487.28 C 841.248 487.729 841.725 488.364 842.036 488.717 C 842.036 488.717 842.265 489.007 842.58 489.007 L 844.697 489.007 L 842.39 486.023 L 844.697 482.779 L 842.695 482.777 Z "
                      fill="rgb(196,13,66)"/>
                <path d=" M 831.534 482.47 C 831.345 481.195 830.831 480.321 829.535 480.155 C 828.258 479.991 826.989 480.408 825.844 480.941 C 825.821 480.953 825.799 480.968 825.779 480.984 C 825.722 481.032 825.688 481.102 825.688 481.177 L 825.688 488.741 C 825.688 488.877 825.797 488.987 825.933 488.989 L 827.55 488.989 C 827.687 488.989 827.799 488.878 827.799 488.741 L 827.799 486.912 C 828.419 486.98 829.067 486.97 829.589 486.848 C 830.73 486.583 831.391 485.728 831.548 484.491 C 831.636 483.82 831.631 483.14 831.534 482.47 L 831.534 482.47 Z  M 829.108 484.707 C 828.845 484.87 828.428 484.849 828.011 484.848 L 827.786 484.848 L 827.786 482.39 C 828.032 482.331 828.282 482.29 828.534 482.269 C 829.368 482.216 829.473 482.773 829.507 483.437 C 829.537 483.984 829.472 484.487 829.108 484.707 Z "
                      fill="rgb(196,13,66)"/>
                <path d=" M 820.985 487.71 L 820.011 487.312 L 819.578 487.153 C 819.582 487.159 819.586 487.165 819.591 487.17 C 819.595 487.176 819.613 487.197 819.624 487.21 L 817.717 487.21 L 817.717 480.377 C 817.712 480.243 817.6 480.138 817.465 480.142 L 815.859 480.142 C 815.859 480.142 815.602 480.142 815.602 480.396 L 815.602 482.881 C 815.602 483.531 815.602 484.187 815.602 484.831 L 815.602 486.308 L 815.593 486.308 L 815.516 486.303 C 814.996 486.287 814.84 486.124 814.793 485.909 C 814.778 485.841 814.783 485.526 814.783 485.421 L 814.783 483.034 C 814.783 482.106 814.64 481.44 814.128 480.961 C 813.641 480.502 812.752 480.402 811.82 480.46 C 811.535 480.476 811.257 480.5 810.982 480.529 L 810.982 480.529 C 810.411 480.59 810.242 480.62 809.967 480.662 C 809.707 480.701 809.495 480.892 809.431 481.147 C 809.413 481.22 809.407 481.296 809.415 481.371 L 809.482 482.77 L 809.482 482.783 L 809.482 482.802 C 809.482 482.802 809.531 482.802 809.482 482.807 C 810.183 482.691 810.267 482.654 811.233 482.524 C 811.566 482.481 812.369 482.389 812.547 482.503 C 812.706 482.602 812.7 482.681 812.683 482.93 C 812 483.006 811.328 483.006 810.736 483.124 C 810.144 483.242 809.665 483.5 809.359 483.926 C 809.053 484.352 808.941 485.013 809.023 485.702 C 809.067 486.121 809.223 486.521 809.476 486.859 C 809.609 487.02 809.774 487.151 809.961 487.246 C 810.366 487.466 810.816 487.588 811.277 487.603 C 811.411 487.607 811.546 487.601 811.679 487.583 C 811.81 487.566 811.939 487.54 812.067 487.507 C 812.372 487.421 812.661 487.285 812.921 487.104 L 812.957 487.134 L 812.957 487.134 C 813.52 487.601 814.532 487.95 815.514 487.617 L 815.6 487.59 L 815.6 488.216 L 815.6 488.216 L 815.6 488.771 C 815.61 488.901 815.718 489 815.847 489.001 L 820.854 489.001 C 820.977 488.995 821.078 488.901 821.091 488.778 C 821.091 488.702 821.098 488.619 821.101 488.531 L 821.101 487.887 C 821.141 487.892 821.178 487.894 821.222 487.898 L 820.985 487.71 Z  M 812.678 485.568 C 812.684 485.687 812.596 485.792 812.477 485.806 L 812.446 485.806 L 812.442 485.806 L 811.866 485.861 C 811.826 485.868 811.785 485.872 811.745 485.872 C 811.386 485.872 811.095 485.581 811.095 485.222 C 811.095 484.863 811.386 484.572 811.745 484.572 L 812.678 484.483 L 812.678 485.568 Z "
                      fill="rgb(196,13,66)"/>
            </g>
            <g>
                <path d=" M 824.473 476.051 C 825.119 476.051 825.685 475.264 825.685 474.601 L 825.685 459.464 C 825.685 458.813 825.119 458.051 824.473 458.051 L 808.956 458.051 C 808.289 458.051 807.709 458.647 807.709 459.313 L 807.709 474.766 C 807.709 475.43 808.446 476.051 808.938 476.051 L 824.473 476.051 Z "
                      fill="rgb(196,13,65)"/>
                <linearGradient id="_lgradient_0"
                                x1="0.4999107720839593"
                                y1="1.0554529294770583"
                                x2="0.49991077208395934"
                                y2="0.4997347333798803"
                                gradientTransform="matrix(6.416,0,0,7.803,811.123,463.16)"
                                gradientUnits="userSpaceOnUse">
                    <stop offset="0%" stop-opacity="1" style="stop-color:rgb(253,242,247)"/>
                    <stop offset="100%" stop-opacity="1" style="stop-color:rgb(255,255,255)"/>
                </linearGradient>
                <path d=" M 816.679 466.649 C 817.038 466.187 817.206 465.607 817.148 465.027 C 817.087 464.272 816.706 463.783 816.137 463.481 C 815.541 463.167 814.763 463.16 813.858 463.16 L 811.343 463.16 C 811.284 463.16 811.228 463.183 811.187 463.224 C 811.146 463.265 811.123 463.321 811.123 463.379 L 811.123 470.744 C 811.122 470.863 811.219 470.961 811.34 470.962 L 814.03 470.962 C 814.515 470.962 814.974 470.968 815.38 470.903 C 815.946 470.812 816.41 470.61 816.747 470.291 C 816.828 470.22 817.886 469.293 817.421 467.721 C 817.277 467.303 817.02 466.932 816.679 466.649 L 816.679 466.649 Z  M 813.307 464.721 L 814.657 464.721 L 814.657 464.721 C 814.867 464.716 815.069 464.797 815.218 464.944 C 815.367 465.091 815.449 465.292 815.445 465.5 C 815.445 465.902 815.18 466.28 814.657 466.28 L 814.657 466.28 L 813.309 466.28 C 813.25 466.28 813.195 466.257 813.153 466.216 C 813.112 466.175 813.089 466.119 813.089 466.062 L 813.089 464.929 C 813.095 464.813 813.19 464.721 813.307 464.72 L 813.307 464.721 Z  M 814.657 469.403 L 813.306 469.403 C 813.247 469.403 813.191 469.38 813.15 469.339 C 813.109 469.298 813.086 469.242 813.086 469.184 L 813.086 468.06 C 813.088 467.941 813.186 467.845 813.306 467.845 L 814.656 467.845 C 815.163 467.845 815.442 468.194 815.442 468.611 C 815.442 469.028 815.164 469.402 814.657 469.402 L 814.657 469.403 Z "
                      fill="url(#_lgradient_0)"/>
                <linearGradient id="_lgradient_1"
                                x1="0"
                                y1="0.5"
                                x2="6.123233995736766e-17"
                                y2="-0.5"
                                gradientTransform="matrix(4.723,0,0,7.803,817.799,463.16)"
                                gradientUnits="userSpaceOnUse">
                    <stop offset="0%" stop-opacity="1" style="stop-color:rgb(255,255,255)"/>
                </linearGradient>
                <path d=" M 822.521 469.402 L 819.761 469.402 L 819.761 463.364 C 819.754 463.25 819.658 463.16 819.543 463.16 L 818.017 463.16 C 817.901 463.16 817.806 463.25 817.799 463.364 L 817.799 470.759 C 817.806 470.873 817.902 470.963 818.017 470.963 L 822.309 470.963 C 822.418 470.959 822.507 470.875 822.518 470.768 C 822.518 470.752 822.518 470.737 822.518 470.722 L 822.518 470.722 C 822.523 470.667 822.521 469.402 822.521 469.402 Z "
                      fill="url(#_lgradient_1)"/>
            </g>
        </g>
    </g>
</svg>
