<?xml version="1.0" encoding="UTF-8" standalone="no"?><!-- Generator: Gravit.io -->
<svg xmlns="http://www.w3.org/2000/svg"
     style="isolation:isolate"
     viewBox="92.8 167.2 80 80"
     width="80pt"
     height="80pt">
    <g>
        <circle vector-effect="non-scaling-stroke"
                cx="132.7999999999995"
                cy="207.20000000000005"
                r="40"
                fill="rgb(141,199,63)"
                fill-opacity="0.2"/>
        <path d=" M 123.093 223.454 C 122.676 223.576 122.381 223.981 122.381 224.426 C 122.381 224.765 122.493 225.009 122.743 225.215 C 123.415 225.776 124.509 225.415 124.631 224.593 C 124.687 224.259 124.62 224.037 124.42 223.804 C 124.109 223.454 123.57 223.309 123.093 223.454 Z "
              fill="rgb(14,99,57)"/>
        <path d=" M 148.374 194.607 C 148.374 194.541 148.141 193.958 147.902 193.424 C 147.863 193.336 147.741 193.058 147.636 192.813 C 147.53 192.569 147.319 192.08 147.163 191.73 C 146.914 191.158 146.78 190.836 146.419 190.008 C 146.364 189.87 146.291 189.709 146.264 189.647 C 146.236 189.586 146.047 189.153 145.847 188.681 C 145.647 188.209 145.447 187.748 145.408 187.653 C 145.119 187.015 144.875 186.448 144.875 186.426 C 144.875 186.415 144.814 186.27 144.742 186.109 C 144.664 185.948 144.464 185.493 144.292 185.093 C 144.12 184.699 143.959 184.321 143.931 184.26 C 143.775 183.91 143.575 183.454 143.292 182.788 C 143.12 182.377 142.931 181.938 142.876 181.816 C 142.564 181.127 142.487 180.938 142.509 180.916 C 142.559 180.866 144.236 181.016 144.797 181.122 C 146.141 181.377 147.658 181.927 148.635 182.516 C 149.235 182.871 149.93 183.399 149.93 183.493 C 149.93 183.532 149.963 183.565 150.007 183.565 C 150.146 183.565 150.468 184.004 152.979 187.642 C 153.273 188.064 153.507 188.437 153.501 188.459 C 153.49 188.487 153.507 188.509 153.534 188.509 C 153.59 188.509 154.301 189.509 154.362 189.67 C 154.379 189.72 154.423 189.786 154.462 189.814 C 154.578 189.909 155.373 191.08 155.373 191.158 C 155.373 191.197 155.395 191.23 155.423 191.23 C 155.489 191.23 157.222 193.73 157.222 193.819 C 157.222 193.858 157.245 193.88 157.267 193.869 C 157.3 193.841 157.761 194.502 157.761 194.58 C 157.761 194.602 155.673 194.619 153.118 194.619 C 150.568 194.619 148.458 194.63 148.424 194.646 C 148.397 194.669 148.374 194.646 148.374 194.607 Z "
              fill="rgb(21,136,77)"/>
        <path d=" M 107.822 194.605 Q 107.822 194.56 117.346 180.886 Q 123.155 180.897 123.155 180.908 Q 123.155 180.924 117.208 194.619 Q 107.822 194.632 107.822 194.605 Z "
              fill="rgb(21,136,77)"/>
        <path d=" M 128.379 184.537 C 128.879 181.633 128.99 180.977 128.99 180.944 Q 128.99 180.916 134.844 180.944 Q 134.977 182.499 135.099 183.871 C 135.222 185.248 135.483 188.17 135.683 190.37 C 135.883 192.569 136.044 194.424 136.044 194.491 L 136.044 194.619 L 126.546 194.667 Q 128.284 185.087 128.379 184.537 Z "
              fill="rgb(21,136,77)"/>
        <path d=" M 121.13 211.554 C 121.008 211.52 120.797 211.47 120.658 211.443 C 120.325 211.365 119.736 211.109 119.431 210.904 C 119.353 210.854 119.192 210.743 119.07 210.665 C 118.575 210.326 118.014 209.66 117.692 209.01 C 117.509 208.643 117.337 208.043 117.27 207.56 C 117.242 207.316 117.215 204.583 117.215 200.884 L 117.215 194.619 L 121.936 194.607 L 126.657 194.591 L 126.657 201.15 C 126.657 207.532 126.651 207.716 126.546 208.038 C 126.485 208.216 126.435 208.399 126.435 208.438 C 126.435 208.571 125.996 209.432 125.79 209.704 C 125.463 210.137 124.885 210.659 124.435 210.926 C 124.207 211.059 123.996 211.17 123.963 211.17 C 123.93 211.17 123.819 211.215 123.713 211.276 C 123.263 211.515 121.669 211.687 121.13 211.554 Z "
              fill="rgb(141,199,63)"/>
        <path d=" M 120.218 223.781 C 120.113 223.831 119.974 223.948 119.913 224.031 C 119.801 224.181 119.796 224.281 119.768 225.976 C 119.751 226.959 119.724 227.653 119.701 227.52 C 119.646 227.153 119.351 226.603 119.085 226.37 C 118.307 225.692 116.857 225.609 115.84 226.187 C 115.485 226.392 115.04 226.87 114.868 227.237 C 114.796 227.387 114.718 227.509 114.696 227.514 C 114.668 227.514 114.663 227.492 114.679 227.47 C 114.729 227.392 114.601 226.603 114.485 226.248 C 114.151 225.248 113.279 224.537 112.085 224.287 C 111.668 224.203 111.335 224.181 110.268 224.181 C 108.74 224.181 108.585 224.22 108.379 224.626 C 108.268 224.848 108.263 224.903 108.279 227.726 C 108.296 230.598 108.296 230.598 108.418 230.77 C 108.668 231.12 108.785 231.137 110.374 231.109 C 111.924 231.087 112.135 231.053 112.824 230.731 C 113.557 230.392 114.118 229.803 114.39 229.098 L 114.513 228.776 L 114.579 229.17 C 114.751 230.203 115.418 230.909 116.44 231.153 C 116.89 231.259 117.79 231.259 118.285 231.153 C 118.763 231.053 119.201 230.82 119.368 230.57 C 119.479 230.409 119.496 230.326 119.474 230.076 C 119.457 229.831 119.424 229.748 119.296 229.637 C 119.157 229.52 119.101 229.503 118.801 229.531 C 118.613 229.548 118.301 229.587 118.113 229.62 C 117.729 229.692 117.285 229.637 117.001 229.492 C 116.84 229.409 116.657 229.181 116.657 229.07 C 116.657 229.037 117.085 229.014 117.913 229.014 C 119.079 229.014 119.185 229.003 119.351 228.903 C 119.529 228.792 119.701 228.514 119.724 228.309 C 119.729 228.253 119.746 228.659 119.763 229.209 C 119.796 230.187 119.801 230.214 119.963 230.509 C 120.207 230.948 120.568 231.142 121.207 231.17 C 121.746 231.198 122.051 231.131 122.346 230.931 L 122.557 230.792 L 122.718 230.931 C 122.94 231.114 123.285 231.198 123.668 231.164 C 124.057 231.131 124.307 230.992 124.44 230.737 C 124.54 230.559 124.546 230.387 124.546 228.509 C 124.546 226.487 124.546 226.476 124.418 226.287 C 124.235 226.009 123.985 225.903 123.49 225.903 C 122.996 225.903 122.74 226.014 122.574 226.298 C 122.468 226.47 122.463 226.603 122.446 228.053 L 122.429 229.626 L 122.251 229.626 C 121.89 229.626 121.907 229.776 121.879 226.892 C 121.846 223.914 121.857 223.992 121.418 223.787 C 121.107 223.648 120.479 223.642 120.218 223.781 Z  M 111.785 225.976 C 112.274 226.264 112.451 226.698 112.457 227.626 C 112.457 228.048 112.429 228.287 112.363 228.498 C 112.118 229.209 111.679 229.514 110.896 229.514 L 110.435 229.514 L 110.435 227.648 L 110.435 225.781 L 110.979 225.803 C 111.451 225.82 111.557 225.842 111.785 225.976 Z  M 117.557 227.348 C 117.635 227.409 117.724 227.559 117.757 227.681 L 117.813 227.903 L 117.213 227.903 L 116.607 227.903 L 116.657 227.731 C 116.713 227.548 116.79 227.42 116.929 227.303 C 117.057 227.198 117.401 227.22 117.557 227.348 Z "
              fill="rgb(14,99,57)"/>
        <path d=" M 126.446 225.853 C 125.985 225.926 125.54 226.098 125.251 226.314 C 124.59 226.82 124.413 227.859 124.885 228.509 C 125.157 228.887 125.357 228.987 126.685 229.387 C 126.979 229.476 127.018 229.503 127.018 229.626 C 127.018 229.759 127.007 229.764 126.601 229.781 C 126.363 229.792 125.974 229.759 125.701 229.703 C 125.301 229.631 125.185 229.626 125.051 229.681 C 124.818 229.776 124.707 229.92 124.674 230.17 C 124.585 230.82 125.279 231.231 126.451 231.237 C 127.424 231.237 128.201 230.97 128.651 230.487 C 128.935 230.176 129.035 229.953 129.079 229.526 C 129.124 229.114 129.001 228.676 128.768 228.392 C 128.557 228.137 127.963 227.842 127.379 227.709 C 126.857 227.587 126.646 227.481 126.668 227.359 C 126.69 227.226 127.257 227.203 127.74 227.32 C 128.285 227.442 128.457 227.431 128.668 227.242 C 128.829 227.098 128.851 227.042 128.851 226.803 C 128.851 226.503 128.746 226.309 128.485 226.114 C 128.174 225.881 127.135 225.748 126.446 225.853 Z "
              fill="rgb(14,99,57)"/>
        <path d=" M 129.601 223.787 C 129.496 223.842 129.357 223.953 129.296 224.037 C 129.19 224.187 129.185 224.27 129.168 227.364 C 129.157 230.37 129.163 230.553 129.257 230.731 C 129.518 231.214 130.54 231.337 130.985 230.937 C 131.24 230.709 131.268 230.553 131.268 229.187 L 131.268 227.909 L 131.463 227.714 C 131.679 227.498 131.968 227.414 132.157 227.514 C 132.401 227.642 132.435 227.864 132.435 229.248 C 132.435 230.403 132.446 230.564 132.54 230.737 C 132.701 231.048 132.94 231.153 133.463 231.153 C 133.957 231.153 134.19 231.059 134.401 230.776 C 134.501 230.642 134.524 230.514 134.551 229.887 C 134.568 229.481 134.585 229.214 134.59 229.292 C 134.607 229.542 134.968 230.203 135.224 230.464 C 135.74 230.976 136.457 231.237 137.357 231.237 C 138.829 231.231 139.801 230.614 140.163 229.453 C 140.224 229.264 140.274 229.037 140.279 228.942 C 140.285 228.842 140.307 229.703 140.324 230.848 C 140.351 232.798 140.357 232.942 140.463 233.114 C 140.624 233.376 140.946 233.514 141.413 233.514 C 141.868 233.514 142.124 233.403 142.307 233.131 C 142.424 232.953 142.435 232.881 142.435 232.092 L 142.435 231.237 L 142.896 231.237 C 144.668 231.231 145.763 230.281 145.863 228.653 C 145.94 227.398 145.507 226.414 144.713 226.026 C 143.957 225.659 142.885 225.798 142.374 226.331 C 142.157 226.548 142.124 226.553 142.079 226.381 C 142.029 226.181 141.696 225.92 141.44 225.876 C 140.907 225.787 140.507 225.998 140.385 226.437 C 140.351 226.553 140.324 226.976 140.318 227.376 C 140.313 228.003 140.301 228.059 140.257 227.82 C 140.135 227.187 139.724 226.587 139.168 226.231 C 138.696 225.931 138.218 225.82 137.435 225.826 C 136.835 225.831 136.679 225.848 136.301 225.981 C 135.39 226.292 134.829 226.892 134.629 227.764 L 134.568 228.037 L 134.501 227.576 C 134.34 226.442 133.657 225.831 132.546 225.837 C 132.035 225.837 131.696 225.931 131.413 226.148 L 131.24 226.276 L 131.24 225.242 C 131.24 224.259 131.235 224.198 131.118 224.037 C 131.046 223.937 130.89 223.82 130.768 223.77 C 130.457 223.648 129.846 223.653 129.601 223.787 Z  M 137.763 227.487 C 138.251 227.737 138.301 229.12 137.84 229.531 C 137.679 229.676 137.379 229.709 137.146 229.609 C 136.89 229.503 136.724 229.198 136.679 228.748 C 136.596 227.987 136.901 227.403 137.374 227.403 C 137.501 227.403 137.679 227.442 137.763 227.487 Z  M 143.346 227.514 C 143.54 227.587 143.651 227.781 143.713 228.159 C 143.818 228.798 143.601 229.453 143.235 229.603 C 143.018 229.698 142.69 229.703 142.54 229.626 C 142.446 229.57 142.435 229.498 142.435 228.77 C 142.435 227.887 142.468 227.798 142.846 227.564 C 143.04 227.448 143.146 227.437 143.346 227.514 Z "
              fill="rgb(14,99,57)"/>
        <path d=" M 141.098 225.195 C 139.726 224.923 138.482 224.229 137.588 223.246 C 136.705 222.274 136.283 221.302 136.099 219.835 C 136.049 219.43 136.005 194.374 136.055 194.63 L 142.253 194.63 L 148.402 194.646 L 148.408 206.449 C 148.408 212.942 148.391 218.73 148.369 219.308 C 148.33 220.402 148.241 220.918 147.997 221.457 C 147.936 221.59 147.847 221.785 147.797 221.89 C 147.613 222.307 147.163 222.957 146.78 223.362 C 146.558 223.607 145.969 224.112 145.919 224.112 C 145.892 224.112 145.753 224.201 145.603 224.306 C 145.353 224.479 144.947 224.69 144.431 224.906 C 143.653 225.234 142.004 225.378 141.098 225.195 Z  M 142.038 223.126 C 140.811 222.964 139.494 222.231 138.828 221.343 C 138.261 220.593 138.056 219.982 138.056 219.049 C 138.05 217.271 139.039 216.26 140.95 216.088 L 141.383 216.049 L 141.116 215.866 C 140.661 215.549 140.4 215.061 140.272 214.283 C 140.239 214.078 140.239 214.072 140.394 214.111 C 140.772 214.2 141.411 214.483 141.566 214.633 C 141.788 214.844 141.988 215.188 142.16 215.666 C 142.238 215.877 142.299 216.055 142.299 216.06 C 142.299 216.072 142.321 216.077 142.349 216.077 C 142.377 216.077 142.455 215.922 142.516 215.727 C 142.705 215.172 143.005 214.711 143.31 214.516 C 143.571 214.35 144.343 214.066 144.415 214.111 C 144.471 214.144 144.315 214.883 144.199 215.149 C 144.088 215.399 143.754 215.76 143.427 215.983 C 143.327 216.049 143.243 216.122 143.243 216.138 C 143.243 216.16 143.393 216.188 143.577 216.21 C 145.654 216.449 146.759 217.627 146.521 219.354 C 146.182 221.815 144.271 223.42 142.038 223.126 Z "
              fill-rule="evenodd"
              fill="rgb(141,199,63)"/>
        <path d=" M 154.951 227.387 C 154.701 227.437 154.601 227.653 154.601 228.164 C 154.601 228.609 154.596 228.626 154.496 228.57 C 154.435 228.542 154.313 228.514 154.218 228.514 C 154.051 228.514 154.046 228.509 154.046 228.264 C 154.046 227.953 153.907 227.792 153.64 227.792 C 153.401 227.792 153.246 227.942 153.157 228.259 C 153.101 228.464 153.063 228.514 152.968 228.514 C 152.807 228.514 152.663 228.626 152.651 228.764 C 152.624 229.037 152.663 229.131 152.813 229.192 C 152.896 229.231 152.968 229.264 152.979 229.27 C 152.985 229.276 153.007 229.576 153.024 229.937 C 153.057 230.681 153.101 230.814 153.374 230.998 C 153.674 231.203 154.351 231.159 154.529 230.926 C 154.579 230.853 154.607 230.859 154.735 230.981 C 154.918 231.164 155.318 231.187 155.49 231.014 C 155.646 230.859 155.674 230.681 155.646 230.126 C 155.613 229.553 155.679 229.326 155.907 229.27 C 156.013 229.242 156.09 229.259 156.163 229.326 C 156.257 229.409 156.268 229.503 156.268 230.137 C 156.268 230.826 156.274 230.859 156.407 230.987 C 156.607 231.192 157.074 231.159 157.224 230.937 C 157.246 230.903 157.268 230.498 157.268 230.042 C 157.268 229.281 157.257 229.181 157.146 228.959 C 156.918 228.509 156.318 228.331 155.851 228.57 C 155.729 228.631 155.629 228.681 155.629 228.681 C 155.624 228.681 155.624 228.442 155.624 228.153 C 155.629 227.698 155.613 227.614 155.518 227.52 C 155.401 227.409 155.151 227.348 154.951 227.387 Z  M 154.59 230.376 C 154.579 230.381 154.463 230.376 154.324 230.353 L 154.074 230.32 L 154.057 229.776 L 154.04 229.237 L 154.224 229.237 C 154.324 229.237 154.446 229.209 154.49 229.181 C 154.563 229.137 154.574 229.214 154.59 229.748 C 154.596 230.087 154.596 230.37 154.59 230.376 Z "
              fill="rgb(141,199,63)"/>
        <path d=" M 147.84 228.509 C 147.001 228.726 146.568 229.798 147.001 230.587 C 147.163 230.876 147.413 231.048 147.807 231.126 C 148.368 231.242 148.907 231.064 148.974 230.737 L 149.007 230.57 L 149.224 230.77 C 149.546 231.059 149.785 231.142 150.268 231.148 C 150.757 231.153 151.04 231.064 151.301 230.831 C 151.618 230.559 151.735 230.276 151.735 229.792 C 151.735 228.987 151.301 228.531 150.485 228.47 C 149.807 228.426 149.285 228.664 149.029 229.148 C 148.929 229.337 148.907 229.464 148.907 229.887 C 148.907 230.292 148.89 230.387 148.835 230.353 C 148.79 230.331 148.668 230.337 148.551 230.364 C 148.101 230.487 147.846 230.237 147.89 229.726 C 147.935 229.32 148.046 229.226 148.485 229.248 C 148.824 229.264 148.851 229.253 148.924 229.12 C 149.029 228.937 148.974 228.709 148.796 228.592 C 148.64 228.492 148.101 228.442 147.84 228.509 Z  M 150.457 229.242 C 150.64 229.331 150.735 229.57 150.701 229.903 C 150.668 230.226 150.535 230.403 150.329 230.403 C 150.057 230.403 149.924 230.198 149.924 229.792 C 149.924 229.426 150.018 229.276 150.307 229.187 C 150.313 229.181 150.379 229.209 150.457 229.242 Z "
              fill="rgb(141,199,63)"/>
        <path d=" M 146.118 229.998 C 146.051 230.009 145.935 230.087 145.857 230.159 C 145.424 230.598 145.846 231.309 146.44 231.131 C 146.951 230.976 146.996 230.237 146.513 230.037 C 146.407 229.992 146.307 229.964 146.285 229.964 C 146.263 229.97 146.185 229.987 146.118 229.998 Z "
              fill="rgb(141,199,63)"/>
        <path d=" M 152.129 230.014 C 151.913 230.098 151.751 230.331 151.751 230.564 C 151.751 230.864 151.885 231.053 152.151 231.131 C 152.329 231.181 152.413 231.181 152.551 231.126 C 152.746 231.042 152.935 230.776 152.935 230.581 C 152.935 230.414 152.79 230.142 152.668 230.076 C 152.524 229.998 152.251 229.97 152.129 230.014 Z "
              fill="rgb(141,199,63)"/>
        <path d=" M 130.717 213.692 C 130.7 213.681 130.589 213.664 130.462 213.653 C 130.334 213.642 130.201 213.614 130.167 213.587 C 130.134 213.559 130.117 213.537 129.84 213.464 C 129.562 213.392 128.756 212.965 128.679 212.903 C 128.601 212.842 128.507 212.798 128.484 212.798 C 128.462 212.798 128.407 212.748 128.368 212.687 C 128.329 212.626 128.318 212.576 128.229 212.576 C 128.14 212.576 127.746 212.12 127.746 212.087 C 127.746 212.054 127.696 211.993 127.634 211.954 C 127.573 211.915 127.523 211.865 127.523 211.837 C 127.523 211.809 127.646 211.97 127.418 211.643 C 127.19 211.315 126.835 210.515 126.824 210.393 C 126.812 210.271 126.785 210.149 126.762 210.115 C 126.74 210.082 126.718 209.999 126.707 209.915 C 126.696 209.832 126.674 206.366 126.657 202.206 L 126.624 194.635 L 131.323 194.635 L 136.044 194.63 L 136.022 202.3 C 136.022 207.577 135.994 209.982 135.96 209.999 C 135.927 210.015 135.916 210.071 135.933 210.11 C 135.949 210.149 135.933 210.193 135.905 210.215 C 135.877 210.237 135.855 210.276 135.86 210.315 C 135.866 210.354 135.849 210.448 135.81 210.537 C 135.772 210.626 135.744 210.71 135.744 210.732 C 135.744 210.754 135.644 210.959 135.522 211.187 C 135.399 211.415 135.359 211.534 135.261 211.687 C 135.162 211.84 134.813 212.232 134.456 212.552 C 134.244 212.742 133.992 212.907 133.889 212.981 C 133.785 213.056 132.7 213.559 132.678 213.542 C 132.656 213.526 132.606 213.526 132.567 213.553 C 132.528 213.581 132.445 213.609 132.383 213.614 C 132.322 213.62 132.306 213.626 132.106 213.659 C 131.906 213.692 130.734 213.703 130.717 213.692 Z "
              fill="rgb(14,99,57)"/>
        <path d=" M 112.127 209.604 C 112.105 209.582 111.994 209.554 111.877 209.543 C 111.455 209.504 111.227 209.46 111.155 209.399 C 111.11 209.365 111.066 209.354 111.044 209.371 C 111.027 209.393 110.933 209.36 110.838 209.304 C 110.744 209.249 110.605 209.182 110.533 209.16 C 110.455 209.138 110.227 209.01 110.016 208.877 C 109.805 208.743 109.616 208.632 109.594 208.632 C 109.566 208.632 109.494 208.554 109.422 208.46 C 109.355 208.371 109.239 208.271 109.161 208.243 C 109.089 208.216 109.028 208.155 109.028 208.11 C 109.028 208.066 108.966 207.982 108.889 207.921 C 108.811 207.86 108.75 207.782 108.75 207.755 C 108.75 207.721 108.716 207.671 108.678 207.649 C 108.561 207.571 108.2 206.877 108.083 206.494 C 108.044 206.372 108 206.249 107.983 206.216 C 107.967 206.188 107.944 206.111 107.933 206.049 C 107.928 205.988 107.9 205.866 107.883 205.772 C 107.861 205.683 107.839 203.139 107.822 200.123 L 107.8 194.635 L 117.203 194.635 L 117.192 200.217 C 117.187 204.017 117.17 205.805 117.131 205.833 C 117.098 205.849 117.081 205.916 117.098 205.972 C 117.115 206.027 117.103 206.094 117.07 206.111 C 117.042 206.127 117.031 206.177 117.042 206.211 C 117.059 206.249 117.031 206.366 116.987 206.472 C 116.792 206.916 116.598 207.283 116.487 207.427 C 116.415 207.516 116.359 207.61 116.359 207.638 C 116.359 207.671 116.298 207.749 116.22 207.821 C 116.143 207.893 116.081 207.971 116.081 208.005 C 116.081 208.077 115.615 208.521 115.537 208.521 C 115.498 208.521 115.454 208.56 115.437 208.604 C 115.415 208.649 115.376 208.688 115.348 208.688 C 115.321 208.688 115.226 208.732 115.148 208.793 C 115.004 208.893 114.432 209.193 114.032 209.371 C 113.926 209.415 113.81 209.443 113.771 209.426 C 113.738 209.415 113.688 209.432 113.665 209.46 C 113.649 209.493 113.604 209.51 113.576 209.488 C 113.543 209.471 113.477 209.476 113.427 209.499 C 113.243 209.576 112.188 209.665 112.127 209.604 Z "
              fill="rgb(14,99,57)"/>
        <path d=" M 152.523 207.071 C 151.753 206.956 151.801 206.916 151.601 206.855 C 151.401 206.794 150.84 206.544 150.796 206.516 C 150.752 206.488 150.629 206.433 150.535 206.388 C 150.441 206.344 150.307 206.244 150.235 206.166 C 150.163 206.088 150.135 206.022 150.063 206.022 C 149.991 206.022 149.425 205.395 149.391 205.344 C 149.356 205.293 149.285 205.194 149.096 204.9 C 148.908 204.605 148.746 204.283 148.685 204.128 C 148.624 203.972 148.467 203.269 148.445 203.123 Q 148.417 202.943 148.383 202.645 L 148.375 194.667 L 153.101 194.635 L 157.8 194.635 L 157.778 198.873 C 157.761 201.201 157.739 203.183 157.717 203.272 C 157.7 203.367 157.678 203.49 157.667 203.55 C 157.656 203.611 157.631 203.688 157.617 203.717 C 157.6 203.75 157.554 203.872 157.517 203.994 C 157.378 204.45 157.052 205.029 156.756 205.355 C 156.575 205.554 156.38 205.857 155.919 206.211 C 155.684 206.39 155.008 206.671 154.628 206.827 C 154.252 206.981 153.294 207.187 152.523 207.071 Z "
              fill="rgb(14,99,57)"/>
        <path d=" M 117.19 194.635 C 117.19 194.602 122.841 181.649 122.88 181.555 C 122.919 181.466 123.002 181.288 123.058 181.166 L 123.163 180.944 L 126.063 180.927 L 128.968 180.916 L 128.934 181.094 C 128.923 181.194 128.884 181.405 128.856 181.555 C 128.829 181.71 128.79 181.921 128.773 182.027 C 128.718 182.399 128.629 182.943 128.606 183.055 C 128.59 183.116 128.545 183.377 128.495 183.638 C 128.451 183.899 128.39 184.249 128.362 184.415 C 128.329 184.582 128.262 184.971 128.218 185.276 C 128.09 186.098 127.979 186.743 127.912 187.054 C 127.879 187.209 127.829 187.492 127.801 187.692 C 127.773 187.892 127.712 188.253 127.662 188.492 C 127.618 188.737 127.529 189.287 127.462 189.714 C 127.401 190.142 127.285 190.808 127.212 191.192 C 127.135 191.575 127.035 192.125 126.99 192.414 C 126.946 192.702 126.885 193.08 126.851 193.247 C 126.824 193.413 126.774 193.752 126.74 193.997 C 126.707 194.241 126.657 194.485 126.629 194.541 C 126.579 194.63 126.296 194.635 121.914 194.635 C 118.57 194.635 117.19 194.68 117.19 194.635 Z "
              fill="rgb(182,231,86)"/>
        <path d=" M 136.055 194.43 C 136.033 194.313 136.01 194.08 135.994 193.913 C 135.983 193.747 135.955 193.486 135.938 193.33 C 135.922 193.18 135.894 192.88 135.877 192.664 C 135.86 192.452 135.838 192.175 135.827 192.053 C 135.816 191.93 135.794 191.619 135.772 191.358 C 135.755 191.097 135.727 190.825 135.71 190.747 C 135.699 190.67 135.677 190.47 135.66 190.303 C 135.599 189.575 135.577 189.259 135.549 188.998 C 135.538 188.848 135.511 188.559 135.494 188.359 C 135.455 187.915 135.433 187.676 135.388 187.326 C 135.372 187.176 135.344 186.854 135.327 186.609 C 135.294 186.159 135.272 185.876 135.216 185.276 C 135.177 184.882 135.149 184.582 135.105 184.054 C 135.088 183.843 135.061 183.566 135.05 183.443 C 135.038 183.321 135.011 183.049 134.994 182.832 C 134.977 182.621 134.95 182.344 134.938 182.221 C 134.927 182.099 134.9 181.816 134.883 181.588 C 134.866 181.36 134.85 181.161 134.844 181.144 C 134.822 180.905 134.594 180.916 138.632 180.916 L 142.409 180.916 L 142.487 181.038 C 142.531 181.111 142.631 181.327 142.709 181.527 C 142.792 181.727 142.876 181.927 142.903 181.977 C 142.931 182.021 143.098 182.399 143.27 182.81 C 143.442 183.221 143.62 183.643 143.664 183.749 C 143.714 183.854 143.77 183.993 143.798 184.054 C 143.825 184.115 143.931 184.36 144.042 184.599 C 144.153 184.837 144.242 185.043 144.242 185.06 C 144.242 185.099 144.392 185.448 144.714 186.165 C 144.825 186.409 145.025 186.87 145.075 186.998 C 145.097 187.059 145.169 187.237 145.242 187.387 C 145.308 187.542 145.397 187.742 145.436 187.831 C 145.475 187.926 145.553 188.098 145.608 188.22 C 145.658 188.342 145.736 188.52 145.775 188.609 C 145.903 188.925 146.003 189.164 146.091 189.359 C 146.141 189.464 146.219 189.653 146.275 189.775 C 146.325 189.897 146.453 190.181 146.552 190.403 C 146.658 190.625 146.741 190.831 146.741 190.858 C 146.741 190.892 146.83 191.108 146.941 191.342 C 147.052 191.58 147.18 191.853 147.219 191.941 C 147.258 192.036 147.369 192.275 147.458 192.486 C 147.552 192.691 147.63 192.886 147.63 192.919 C 147.63 192.952 147.663 193.047 147.708 193.125 C 147.752 193.208 147.836 193.386 147.897 193.524 C 147.958 193.663 148.085 193.941 148.18 194.147 C 148.274 194.352 148.352 194.546 148.352 194.58 C 148.352 194.619 146.353 194.635 142.22 194.635 L 136.088 194.635 L 136.055 194.43 Z "
              fill="rgb(182,231,86)"/>
    </g>
</svg>
