<?xml version="1.0" encoding="UTF-8" standalone="no"?><!-- Generator: Gravit.io -->
<svg xmlns="http://www.w3.org/2000/svg"
     style="isolation:isolate" viewBox="228.638 346.995 80 80" width="80pt" height="80pt">
    <g>
        <circle vector-effect="non-scaling-stroke"
                cx="268.6377952755906"
                cy="386.9947272727271"
                r="40"
                fill="rgb(255,242,235)"/>
        <path d=" M 247.54 378.723 C 247.527 378.735 247.517 380.581 247.517 382.825 C 247.517 387.198 247.517 387.195 247.337 387.93 C 247.257 388.259 247.076 388.757 247.025 388.788 C 247.007 388.799 246.992 388.837 246.992 388.872 C 246.992 389.09 246.463 389.683 246.093 389.88 C 244.999 390.463 242.945 389.992 242.446 389.045 C 242.422 388.999 242.39 388.954 242.376 388.944 C 242.14 388.78 241.816 387.448 241.87 386.864 C 241.92 386.329 242.163 385.597 242.354 385.406 C 242.383 385.377 242.438 385.301 242.477 385.238 C 242.637 384.975 243.211 384.547 243.634 384.376 C 244.375 384.077 245.619 384.231 246.645 384.749 C 246.97 384.913 246.958 384.942 246.958 384.032 C 246.958 383.079 246.975 383.107 246.241 382.868 C 244.935 382.443 243.394 382.574 242.427 383.192 C 242.322 383.26 242.219 383.315 242.199 383.315 C 242.139 383.315 241.494 383.887 241.29 384.121 C 241.186 384.24 241.085 384.356 241.066 384.377 C 239.674 385.923 240.251 389.725 242.057 390.914 C 243.505 391.868 245.947 391.957 247.218 391.102 C 247.908 390.638 248.833 389.43 248.986 388.792 C 249 388.731 249.045 388.564 249.084 388.42 C 249.274 387.726 249.265 387.984 249.265 383.166 L 249.265 378.699 L 248.414 378.699 C 247.947 378.699 247.553 378.71 247.54 378.723 Z  M 254.79 382.338 C 254.065 382.391 253.508 382.649 252.99 383.173 C 252.723 383.444 252.727 383.446 252.727 383.038 C 252.727 382.847 252.717 382.666 252.706 382.636 C 252.678 382.564 251.231 382.551 251.16 382.622 C 251.128 382.655 251.118 383.681 251.118 387.029 L 251.118 391.393 L 251.914 391.384 L 252.709 391.374 L 252.728 388.822 L 252.747 386.269 L 252.839 385.972 C 253.259 384.618 253.946 383.999 255.122 383.914 L 255.437 383.892 L 255.446 383.096 L 255.455 382.301 L 255.306 382.306 C 255.224 382.309 254.992 382.323 254.79 382.338 Z  M 260.209 382.375 C 257.735 382.877 256.328 384.498 256.328 386.846 C 256.328 387.07 256.343 387.339 256.36 387.444 C 256.378 387.548 256.411 387.743 256.433 387.878 C 256.77 389.925 258.156 391.256 260.198 391.495 C 262.478 391.761 264.038 390.963 264.944 389.068 C 265.104 388.732 265.139 388.642 265.254 388.262 C 265.698 386.791 265.367 384.963 264.459 383.883 C 264.144 383.507 263.252 382.928 262.534 382.634 C 261.948 382.393 260.769 382.262 260.209 382.375 Z  M 270.751 382.407 C 269.021 382.758 267.658 383.922 267.224 385.417 C 267.024 386.11 267.024 386.113 267.035 390.902 L 267.045 395.29 L 267.814 395.29 L 268.583 395.29 L 268.601 390.972 C 268.615 387.634 268.629 386.631 268.662 386.555 C 268.686 386.501 268.706 386.414 268.706 386.36 C 268.706 385.652 269.699 384.468 270.594 384.11 C 271.982 383.556 273.785 384.434 274.232 385.882 C 274.406 386.444 274.479 387.652 274.334 387.562 C 274.319 387.553 274.315 387.576 274.324 387.613 C 274.362 387.755 274.162 388.406 273.98 388.734 C 273.602 389.418 273.278 389.66 272.383 389.926 C 272.169 389.99 271.053 389.991 270.821 389.928 C 270.549 389.853 270.148 389.72 270.006 389.657 C 269.612 389.481 269.373 389.362 269.353 389.33 C 269.341 389.31 269.3 389.294 269.263 389.294 C 269.196 389.294 269.194 389.32 269.203 390.142 L 269.213 390.989 L 269.423 391.102 C 269.669 391.234 270.59 391.544 270.891 391.596 C 271.496 391.7 271.714 391.717 271.949 391.679 C 272.078 391.658 272.309 391.623 272.461 391.6 C 275.031 391.225 276.661 388.471 275.962 385.684 C 275.906 385.461 275.855 385.313 275.712 384.958 C 275.474 384.368 274.691 383.405 274.137 383.023 C 273.313 382.455 271.837 382.186 270.751 382.407 Z  M 281.555 382.499 C 280.815 382.594 280.382 382.715 279.889 382.966 C 279.464 383.182 279.451 383.19 279.265 383.343 C 279.198 383.398 279.117 383.458 279.085 383.475 C 278.297 383.904 277.588 385.063 277.374 386.269 C 276.76 389.744 279.529 392.285 283.146 391.566 C 284.901 391.216 286.43 389.515 286.433 387.908 C 286.433 387.458 286.492 387.488 285.55 387.456 L 284.797 387.431 L 284.74 387.637 C 284.202 389.577 283.599 390.113 281.957 390.111 C 280.627 390.109 279.93 389.703 279.339 388.588 C 278.516 387.035 279.384 384.689 280.962 384.205 C 281.877 383.925 282.735 384.016 283.32 384.455 C 283.518 384.605 283.742 384.846 283.74 384.911 C 283.739 384.937 283.045 385.343 282.011 385.921 C 281.837 386.019 281.617 386.143 281.52 386.199 C 281.424 386.254 281.165 386.4 280.943 386.524 C 280.722 386.648 280.526 386.762 280.506 386.776 C 280.487 386.79 280.377 386.854 280.262 386.918 C 279.39 387.4 279.441 387.333 279.66 387.713 C 279.745 387.861 279.897 388.128 279.997 388.306 C 280.098 388.484 280.184 388.629 280.189 388.629 C 280.194 388.629 280.339 388.553 280.51 388.461 C 280.681 388.368 280.978 388.208 281.171 388.106 C 281.537 387.911 282.004 387.657 282.622 387.319 C 282.824 387.208 283.123 387.046 283.286 386.959 C 283.45 386.872 283.701 386.738 283.846 386.661 C 284.087 386.533 284.29 386.423 284.724 386.185 C 284.814 386.135 285.177 385.94 285.53 385.75 C 286.304 385.335 286.251 385.386 286.134 385.18 C 285.464 383.996 284.391 383.053 283.304 382.693 C 282.814 382.531 282.01 382.442 281.555 382.499 Z  M 292.132 382.492 C 292.103 382.499 291.938 382.523 291.765 382.545 C 290.359 382.726 288.786 383.882 288.25 385.127 C 287.461 386.959 287.861 389.289 289.16 390.435 C 289.866 391.057 290.55 391.418 291.293 391.563 C 291.399 391.583 291.572 391.617 291.678 391.639 C 293.184 391.939 294.964 391.363 295.946 390.257 C 296.156 390.022 296.468 389.625 296.468 389.595 C 296.468 389.585 296.521 389.486 296.586 389.374 C 296.9 388.838 297.102 387.673 296.909 387.514 C 296.838 387.455 295.353 387.423 295.335 387.479 C 294.642 389.706 294.202 390.114 292.499 390.114 C 291.168 390.113 290.431 389.673 289.86 388.534 C 289.317 387.452 289.562 385.915 290.441 384.896 C 291.299 383.9 293.104 383.75 294.021 384.598 C 294.317 384.873 294.323 384.92 294.082 385.055 C 293.981 385.11 293.749 385.243 293.566 385.348 C 293.26 385.525 292.306 386.068 291.975 386.253 C 290.814 386.904 290.127 387.301 290.078 387.348 C 290.037 387.388 290.385 388.09 290.651 388.5 L 290.737 388.634 L 291.111 388.434 C 291.904 388.012 292.017 387.95 292.243 387.82 C 292.372 387.746 292.484 387.685 292.494 387.685 C 292.503 387.685 292.618 387.624 292.75 387.55 C 292.881 387.476 293.713 387.025 294.597 386.549 C 296.52 385.514 296.748 385.384 296.748 385.329 C 296.748 385.092 295.782 383.916 295.157 383.391 C 294.904 383.179 294.899 383.175 294.885 383.175 C 294.877 383.175 294.748 383.105 294.597 383.019 C 293.953 382.652 292.632 382.369 292.132 382.492 Z  M 261.87 384.063 C 263.331 384.503 263.991 385.958 263.615 387.913 C 263.521 388.402 263.357 388.789 263.122 389.077 C 262.289 390.095 260.037 390.311 259.136 389.459 C 257.338 387.758 257.945 384.365 260.116 383.981 C 260.507 383.911 261.524 383.959 261.87 384.063 Z "
              fill-rule="evenodd"
              fill="rgb(250,111,52)"/>
    </g>
</svg>
