<?xml version="1.0" encoding="UTF-8" standalone="no"?><!-- Generator: Gravit.io --><svg xmlns="http://www.w3.org/2000/svg" xmlns:xlink="http://www.w3.org/1999/xlink" style="isolation:isolate" viewBox="417.638 360.055 80 80" width="80pt" height="80pt"><g><circle vector-effect="non-scaling-stroke" cx="457.6377952755906" cy="400.05533333333335" r="40" fill="rgb(235,238,239)"/><path d=" M 433.502 391.332 C 432.657 391.626 431.91 392.4 431.661 393.227 C 431.572 393.53 431.528 394.064 431.528 394.784 L 431.528 395.878 L 430.344 395.878 C 429.01 395.878 428.449 395.994 427.773 396.43 C 426.902 396.982 426.457 397.836 426.457 398.956 C 426.457 399.544 426.51 399.775 426.91 400.842 C 427.462 402.328 427.667 402.693 428.2 403.164 C 428.948 403.823 430.104 404.063 431.092 403.769 C 431.528 403.636 435.78 400.842 435.86 400.629 C 435.887 400.558 435.735 400.246 435.531 399.926 C 435.255 399.499 435.104 399.348 434.953 399.348 C 434.846 399.348 433.867 399.953 432.773 400.7 C 431.056 401.857 430.718 402.052 430.371 402.088 C 429.917 402.132 429.561 401.99 429.241 401.643 C 429.037 401.421 428.254 399.508 428.174 399.028 C 428.102 398.592 428.441 398.058 428.939 397.818 L 429.348 397.613 L 434.73 397.613 C 440.014 397.613 440.121 397.613 440.468 397.8 C 440.913 398.031 441.224 398.476 441.224 398.876 C 441.224 399.045 440.717 400.825 440.095 402.835 C 438.849 406.847 438.796 406.963 438.066 407.168 C 437.862 407.221 436.963 407.266 435.949 407.266 C 433.983 407.266 433.752 407.212 433.583 406.723 C 433.494 406.465 433.511 406.429 433.867 406.065 C 434.072 405.851 434.979 405.175 435.887 404.552 C 437.417 403.502 437.755 403.236 437.755 403.075 C 437.755 402.897 436.936 401.928 436.785 401.928 C 436.5 401.928 432.586 404.677 432.266 405.104 C 431.545 406.047 431.652 407.381 432.515 408.244 C 433.2 408.938 433.405 408.974 436.216 408.938 C 438.538 408.911 438.609 408.902 439.045 408.698 C 439.596 408.422 440.103 407.968 440.388 407.488 C 440.593 407.123 441.233 405.175 442.443 401.216 C 442.968 399.49 443.012 399.25 442.977 398.716 C 442.906 397.64 442.274 396.724 441.242 396.216 C 440.682 395.941 440.602 395.923 439.49 395.896 C 437.799 395.861 437.968 395.994 437.906 394.66 C 437.844 393.174 437.71 392.791 437.008 392.089 C 436.305 391.386 435.744 391.163 434.703 391.163 C 434.232 391.172 433.805 391.226 433.502 391.332 Z  M 435.308 393.023 C 435.504 393.112 435.762 393.299 435.887 393.423 C 436.091 393.654 436.109 393.743 436.145 394.731 L 436.171 395.789 L 434.748 395.789 L 433.316 395.789 L 433.253 395.38 C 433.173 394.82 433.28 393.841 433.467 393.521 C 433.645 393.21 434.294 392.854 434.686 392.854 C 434.828 392.854 435.113 392.934 435.308 393.023 Z " fill="rgb(252,76,12)"/><path d=" M 446.171 397.675 C 445.984 397.987 445.735 398.912 445.824 399.001 C 445.868 399.045 447.069 399.072 448.484 399.063 L 451.055 399.037 L 451.25 398.423 C 451.579 397.426 451.713 397.48 448.786 397.48 C 446.304 397.48 446.295 397.48 446.171 397.675 Z  M 455.2 398.645 C 454.827 398.716 454.062 399.143 453.857 399.392 C 453.715 399.561 453.59 399.481 453.59 399.214 C 453.59 398.77 453.528 398.725 452.834 398.725 C 452.327 398.725 452.176 398.752 452.131 398.868 C 452.104 398.948 452.078 400.976 452.078 403.396 C 452.078 407.052 452.095 407.79 452.202 407.879 C 452.282 407.951 452.585 407.977 453.03 407.959 L 453.723 407.933 L 453.768 406.527 L 453.812 405.113 L 454.15 405.38 C 454.72 405.833 455.165 405.958 456.054 405.913 C 456.65 405.887 456.953 405.824 457.344 405.646 C 458.323 405.193 459.034 404.321 459.328 403.218 C 459.871 401.109 458.59 399.028 456.49 398.645 C 455.894 398.538 455.752 398.538 455.2 398.645 Z  M 456.357 400.246 C 457.709 400.7 458.198 402.47 457.282 403.663 C 456.997 404.045 456.241 404.419 455.778 404.419 C 455.334 404.419 454.613 404.09 454.284 403.743 C 453.946 403.378 453.679 402.746 453.679 402.284 C 453.679 401.732 454.017 401.056 454.489 400.656 C 455.049 400.175 455.698 400.033 456.357 400.246 Z  M 463.287 398.636 C 462.655 398.77 461.944 399.17 461.436 399.677 C 459.666 401.447 460.2 404.525 462.46 405.602 C 463.02 405.869 463.136 405.887 463.999 405.887 C 464.808 405.887 464.986 405.86 465.333 405.673 C 465.555 405.557 465.822 405.38 465.938 405.282 L 466.134 405.104 L 466.134 405.299 C 466.134 405.753 466.267 405.842 466.979 405.842 C 467.539 405.842 467.655 405.815 467.735 405.673 C 467.788 405.557 467.824 404.33 467.824 402.284 C 467.824 400.238 467.788 399.01 467.735 398.894 C 467.655 398.752 467.539 398.725 467.014 398.725 C 466.596 398.725 466.383 398.761 466.365 398.832 C 466.338 398.894 466.303 399.063 466.267 399.197 L 466.214 399.455 L 465.902 399.214 C 465.208 398.69 464.168 398.458 463.287 398.636 Z  M 464.781 400.291 C 465.724 400.682 466.312 401.83 466.054 402.791 C 465.698 404.116 464.168 404.792 463.064 404.107 C 461.605 403.209 461.757 400.958 463.322 400.273 C 463.696 400.113 464.381 400.122 464.781 400.291 Z  M 470.555 398.672 C 469.559 398.948 468.98 399.668 468.98 400.611 C 468.98 401.812 469.603 402.462 471.231 402.951 C 471.667 403.084 472.094 403.262 472.192 403.36 C 472.628 403.796 472.192 404.401 471.409 404.437 C 470.911 404.454 470.475 404.276 470.137 403.929 C 469.968 403.76 469.763 403.618 469.665 403.618 C 469.416 403.618 468.811 404.072 468.749 404.303 C 468.633 404.748 469.407 405.522 470.253 405.807 C 470.929 406.029 472.263 405.949 472.85 405.646 C 473.686 405.211 474.051 404.623 474.051 403.734 C 474.042 402.542 473.313 401.839 471.578 401.35 C 471.018 401.189 470.582 400.887 470.582 400.647 C 470.582 400.398 471.107 400.06 471.507 400.06 C 471.881 400.06 472.13 400.175 472.557 400.576 C 472.77 400.771 472.832 400.789 473.001 400.691 C 473.366 400.496 473.784 400.069 473.784 399.899 C 473.784 399.677 472.984 398.93 472.566 398.752 C 472.112 398.565 471.08 398.521 470.555 398.672 Z  M 477.877 398.636 C 477.254 398.77 476.533 399.17 476.044 399.65 C 474.256 401.447 474.772 404.525 477.049 405.602 C 477.61 405.869 477.725 405.887 478.588 405.887 C 479.398 405.887 479.576 405.86 479.923 405.673 C 480.145 405.557 480.412 405.38 480.528 405.282 L 480.723 405.104 L 480.723 405.299 C 480.723 405.753 480.857 405.842 481.569 405.842 C 482.129 405.842 482.245 405.815 482.325 405.673 C 482.378 405.557 482.414 404.33 482.414 402.284 C 482.414 400.238 482.378 399.01 482.325 398.894 C 482.245 398.752 482.129 398.725 481.604 398.725 C 481.186 398.725 480.972 398.761 480.955 398.832 C 480.928 398.894 480.892 399.063 480.857 399.197 L 480.803 399.455 L 480.492 399.214 C 479.798 398.69 478.757 398.458 477.877 398.636 Z  M 479.371 400.291 C 480.314 400.682 480.901 401.83 480.643 402.791 C 480.287 404.116 478.757 404.792 477.654 404.107 C 476.747 403.547 476.391 402.39 476.809 401.412 C 477.023 400.923 477.458 400.478 477.912 400.273 C 478.286 400.113 478.971 400.122 479.371 400.291 Z  M 486.008 398.779 C 485.848 398.859 485.634 399.019 485.518 399.134 L 485.305 399.357 L 485.207 399.063 L 485.109 398.77 L 484.451 398.77 L 483.793 398.77 L 483.793 402.284 L 483.793 405.798 L 484.486 405.824 C 484.931 405.842 485.234 405.815 485.314 405.744 C 485.412 405.664 485.438 405.211 485.438 403.36 C 485.438 401.243 485.447 401.065 485.616 400.789 C 485.848 400.415 486.292 400.149 486.693 400.149 C 486.88 400.149 487.226 400.264 487.52 400.415 C 487.805 400.567 488.098 400.673 488.178 400.647 C 488.383 400.576 488.819 399.837 488.819 399.57 C 488.819 399.33 488.294 398.921 487.76 398.743 C 487.324 398.592 486.337 398.61 486.008 398.779 Z  M 445.299 400.789 C 445.148 400.905 443.804 405.282 443.804 405.655 L 443.804 405.842 L 447.176 405.842 C 449.409 405.842 450.574 405.807 450.61 405.753 C 450.734 405.549 451.001 404.49 450.948 404.365 C 450.912 404.259 450.494 404.241 448.386 404.241 L 445.868 404.241 L 446.153 403.28 L 446.438 402.328 L 448.404 402.301 L 450.379 402.284 L 450.53 401.768 C 450.61 401.492 450.681 401.136 450.69 400.994 L 450.699 400.727 L 448.074 400.7 C 446.055 400.682 445.406 400.709 445.299 400.789 Z " fill-rule="evenodd" fill="rgb(52,83,92)"/></g></svg>