<?xml version="1.0" encoding="UTF-8" standalone="no"?><!-- Generator: Gravit.io --><svg xmlns="http://www.w3.org/2000/svg" xmlns:xlink="http://www.w3.org/1999/xlink" style="isolation:isolate" viewBox="559.311 269.737 79.37 79.37" width="79.37pt" height="79.37pt"><g><circle vector-effect="non-scaling-stroke" cx="598.9960629921256" cy="309.4221784776901" r="39.6850393700787" fill="rgb(252,233,233)"/><g><path d=" M 589.753 292.286 C 589.387 292.472 589.444 292.479 589.185 292.784 C 588.873 293.151 588.982 293.213 588.557 293.182 C 588.834 293.403 588.125 293.444 589.074 293.387 C 589.346 293.368 589.346 293.399 589.512 293.476 C 590.128 293.765 590.523 294.004 591.383 294.027 C 591.915 294.041 592.448 294.017 592.979 294.036 C 593.651 294.061 593.694 294.213 594.329 294.241 C 594.909 294.266 595.355 294.199 595.717 294.221 C 596.587 294.274 598.28 294.558 598.98 294.204 C 599.349 294.018 599.054 294.064 600.002 294.064 L 600.116 293.647 C 600.686 293.587 600.791 293.828 600.977 294.162 C 601.169 294.252 601.049 294.215 601.23 294.332 C 601.254 294.347 601.329 294.398 601.354 294.412 C 601.589 294.546 601.305 294.448 601.548 294.501 C 601.949 294.385 601.646 294.515 602.045 294.419 C 602.101 294.406 602.278 294.344 602.28 294.343 C 602.362 294.3 602.347 294.345 602.427 294.212 C 602.806 293.726 602.568 294.031 603.738 293.709 C 604.621 293.466 605.952 292.409 607.592 292.307 C 608.133 292.273 608.772 292.338 609.28 292.291 C 609.936 292.231 611.993 291.663 612.454 291.828 C 613.171 292.085 612.364 291.82 612.364 293.081 C 612.022 293.015 612.146 292.975 611.91 293.081 C 611.91 293.936 611.674 294.19 611.672 294.194 L 611.969 294.463 C 611.987 294.477 612.016 294.495 612.035 294.509 C 612.519 294.863 612.704 294.943 612.675 295.625 L 612.583 296.276 C 612.422 296.631 612.538 296.205 612.415 296.577 L 612.583 296.655 C 612.996 296.676 613.287 296.515 613.466 296.394 C 613.442 296.365 613.385 296.274 613.374 296.258 L 613.237 296.062 C 613.145 295.919 613.003 296.209 613.525 295.149 C 613.718 294.757 613.666 294.692 613.635 294.222 L 613.639 293.87 C 613.644 293.851 613.658 293.82 613.665 293.801 C 613.714 293.674 613.928 293.732 613.885 292.508 C 613.818 290.573 611.924 290.59 611.044 290.972 C 607.661 292.442 607.953 290.789 606.084 291.792 C 605.783 291.954 605.615 291.994 605.29 292.134 L 603.61 292.837 C 603.359 292.916 602.859 293.099 602.682 293.128 C 602.138 293.218 602.78 293.072 602.288 293.151 L 601.631 293.248 C 601.615 293.248 601.582 293.246 601.565 293.246 L 599.49 293.411 C 597.672 293.622 595.726 293.406 595.627 293.417 C 594.275 293.56 592.429 293.47 591.064 293.281 C 590.853 293.251 590.386 293.126 590.164 293.038 C 589.97 292.962 589.962 293.015 589.818 292.816 C 589.612 292.531 589.601 292.672 589.753 292.285 L 589.753 292.286 Z " fill-rule="evenodd" fill="rgb(232,231,229)"/><path d=" M 590.789 298.919 C 591.083 299.791 597.054 303.257 598.815 303.21 C 599.207 303.11 598.949 303.218 599.092 302.922 C 598.942 302.825 598.799 302.731 598.665 302.659 C 598.64 302.645 598.613 302.63 598.586 302.617 L 598.418 302.539 C 598.259 302.471 598.292 302.489 598.152 302.438 L 597.839 302.332 C 597.821 302.327 597.788 302.319 597.771 302.315 L 597.434 302.217 C 596.362 301.325 596.963 302.204 595.964 301.455 C 595.95 301.445 595.923 301.421 595.908 301.411 L 592.456 299.636 C 592.431 299.458 592.427 299.37 592.375 299.179 C 592.275 298.813 592.343 298.998 592.139 298.775 L 591.832 298.388 C 591.653 298.018 591.707 298.316 591.673 297.768 C 591.939 297.695 591.776 297.712 591.917 297.658 C 593.094 297.204 593.264 297.665 594.444 297.657 L 596.679 297.703 C 597.013 297.755 597.047 297.847 597.403 297.878 C 598.156 297.946 599.886 298.081 600.473 297.822 C 601.533 297.356 600.962 297.221 601.89 296.751 C 602.246 296.571 602.177 296.677 602.316 296.341 C 602.167 296.106 601.838 295.902 601.513 295.794 C 601.368 296.287 601.609 295.934 601.18 296.173 C 600.034 296.812 599.548 296.576 598.629 296.498 C 597.965 296.443 597.309 296.544 596.64 296.445 C 594.653 296.151 593.113 296.334 591.134 295.828 L 589.929 295.484 C 589.502 295.381 589.508 295.222 588.896 294.314 C 589.145 294.862 589.513 294.988 589.236 295.647 L 589.048 295.898 C 589.695 297.119 589.957 296.859 590.303 297.32 C 590.529 297.621 590.345 297.423 590.465 297.613 C 590.808 298.154 590.738 297.759 591.133 298.189 L 591.631 298.735 C 592.055 299.049 591.998 298.685 592.293 299.546 L 591.452 299.108 C 591.302 298.98 591.287 298.899 591.082 298.831 C 591.059 298.823 590.946 298.823 590.928 298.827 C 590.433 298.932 591.304 298.364 590.789 298.919 L 590.789 298.919 Z " fill-rule="evenodd" fill="rgb(215,215,215)"/><path d=" M 614.084 288.838 C 614.143 289.017 614.156 288.942 613.934 288.993 C 613.891 289.086 613.938 289.054 613.763 289.161 C 613.687 289.207 613.538 289.262 613.453 289.287 C 613.208 289.359 612.947 289.39 612.688 289.427 C 612.071 289.552 610.696 289.737 610.226 289.396 L 609.969 289.456 C 609.965 289.681 610.274 289.529 609.634 289.781 C 609.602 289.793 609.496 289.827 609.463 289.838 C 608.704 290.097 608.83 289.752 607.967 289.914 C 607.568 289.989 607.111 290.167 606.798 290.143 C 606.316 290.106 606.761 289.83 606.15 290.246 L 606.017 290.344 C 605.669 290.562 605.346 290.486 604.797 290.63 C 604.537 290.698 604.269 290.929 603.874 291.058 C 602.491 291.512 602.151 291.287 601.734 291.598 C 601.554 291.471 601.597 291.794 601.585 291.361 L 601.133 291.491 L 600.34 291.502 C 600.511 292.184 599.72 291.8 599.068 291.864 C 598.006 291.966 596.18 292.622 594.85 292.355 C 593.461 292.076 593.77 291.892 593.71 291.49 C 593.607 290.795 593.634 291.063 593.481 291.114 L 592.466 291.286 C 592.231 290.857 592.077 291.004 592.068 290.575 L 591.219 291.002 C 591.094 291.394 591.085 291.205 591.05 291.706 L 591.225 291.851 C 591.872 292.35 591.893 292.272 592.522 292.272 L 592.749 292.612 C 594.025 292.612 594.743 292.747 595.796 292.833 C 596.911 292.925 597.853 292.606 599.086 292.606 C 599.332 292.101 599.037 292.618 600.106 292.642 C 601.014 292.662 602.59 292.601 603.458 292.209 L 604.788 291.525 C 604.998 291.422 605.153 291.341 605.399 291.232 C 606.285 290.836 606.754 290.37 608.111 290.733 C 608.754 290.905 609.888 290.893 610.499 290.624 C 611.062 290.376 610.581 290.585 610.824 290.176 C 611.07 290.395 611.231 290.159 612.237 290.161 C 612.688 290.162 613.475 290.21 613.818 290.575 C 613.892 290.655 614.128 291.063 614.202 291.201 C 614.527 291.804 614.423 293.472 614.324 294.148 C 614.534 294.35 614.583 293.848 614.018 295.342 C 613.946 295.531 613.912 295.678 613.849 295.898 C 614.117 296.112 613.706 296.01 614.173 295.97 L 614.599 295.778 L 614.596 295.597 C 614.351 295.61 614.528 295.657 614.392 295.558 C 614.461 295.443 614.556 295.319 614.624 295.142 C 614.676 295.005 614.654 295.047 614.669 294.959 L 614.742 294.53 C 614.839 294.193 614.798 294.489 614.857 294.078 C 615.1 292.384 615.192 293.614 615.178 292.044 C 615.161 290.003 615.766 290.534 614.889 289.28 C 614.578 288.835 614.501 288.97 614.438 288.668 L 614.084 288.837 L 614.084 288.838 Z " fill-rule="evenodd" fill="rgb(238,238,238)"/><path d=" M 603.137 286.861 C 602.535 286.721 601.519 286.944 600.934 287.133 L 600.679 287.401 C 600.678 287.678 600.716 287.418 600.591 287.485 L 599.662 287.745 C 598.501 287.828 599.005 287.995 598.385 288.139 C 598.007 288.226 598.354 288.117 598.135 288.196 C 597.497 288.426 597.356 288.937 597.022 289.148 C 596.821 289.276 596.13 289.301 596.034 290.46 C 596.691 290.9 596.693 290.777 598.156 290.429 C 598.541 290.338 599.782 289.709 600.209 289.839 L 600.566 289.778 L 605.546 288.44 C 605.794 288.376 607.272 288.219 607.589 288.22 L 607.774 287.807 C 608.079 287.356 608.904 287.41 609.449 287.456 C 609.317 286.972 609.356 287.02 609.086 286.981 C 608.91 286.955 608.638 287.002 608.383 286.998 C 607.572 286.983 607.571 286.779 606.799 286.758 C 605.816 286.73 603.951 287.076 603.137 286.861 L 603.137 286.861 Z " fill-rule="evenodd" fill="rgb(248,248,250)"/><path d=" M 600.322 303.233 L 600.792 303.167 C 600.694 303.035 600.738 303.091 600.63 302.97 C 600.345 302.652 599.987 302.402 599.772 302.027 L 599.199 301.107 C 598.828 300.702 599.026 301.031 598.904 300.996 C 599.028 300.496 599.14 300.422 598.564 300.278 C 598.564 299.947 598.483 299.659 598.676 299.527 C 598.91 299.367 600.18 299.544 600.33 299.542 C 601.171 299.532 600.98 299.534 601.421 299.376 C 601.985 299.174 602.178 299.255 602.577 299.342 C 603.341 299.508 603.112 298.811 604.123 299.148 C 604.457 299.036 604.224 299.138 604.469 299.008 C 604.179 298.72 604.168 298.829 603.573 298.833 C 603.525 298.324 603.715 298.771 603.639 297.861 C 603.557 296.875 603.91 297.554 603.625 297.058 L 602.872 296.689 L 602.665 296.865 C 602.648 296.865 602.609 296.862 602.592 296.864 C 602.25 296.892 602.075 297.541 601.607 297.962 C 601.236 298.294 600.958 298.225 600.849 298.673 L 598.923 298.673 C 598.82 298.278 598.991 298.494 598.318 298.417 C 598.013 298.382 597.828 298.307 597.424 298.349 C 596.361 298.462 596.659 298.251 595.752 298.149 C 595.256 298.093 594.732 298.228 593.974 298.113 C 592.704 297.92 593.186 298.072 592.806 298.109 C 592.59 298.13 592.725 298.43 592.578 297.993 C 592.471 298.413 592.511 298.056 592.465 298.447 C 592.859 298.627 592.469 298.382 592.841 298.755 L 593.533 299.523 C 593.541 299.527 593.573 299.534 593.583 299.538 L 593.929 299.676 C 594.538 300.038 594.005 300.037 594.964 300.366 C 595.066 300.401 595.31 300.511 595.524 300.6 C 595.498 300.623 595.449 300.611 595.433 300.651 L 594.844 300.713 C 596.655 301.168 594.693 300.566 595.982 300.778 C 595.984 300.778 596.222 300.862 596.242 300.87 C 596.484 300.971 596.808 301.102 596.885 301.291 C 596.892 301.308 596.892 301.376 596.883 301.393 C 597.435 301.139 597.309 301.207 598.435 301.753 L 598.58 301.834 C 598.969 302.099 598.327 301.901 598.911 302.079 C 599.092 302.134 599.11 302.074 599.376 302.186 C 599.49 302.544 599.491 302.285 599.376 302.639 C 599.675 302.688 599.867 302.726 600.026 302.867 C 600.399 303.198 599.617 302.883 600.322 303.233 L 600.322 303.233 Z " fill-rule="evenodd" fill="rgb(211,211,211)"/><path d=" M 591.219 291.002 C 590.931 291.238 590.689 291.347 590.387 291.611 L 589.753 292.286 C 589.601 292.672 589.612 292.531 589.818 292.816 C 589.962 293.015 589.97 292.962 590.164 293.039 C 590.386 293.126 590.853 293.252 591.065 293.281 C 592.429 293.471 594.275 293.56 595.627 293.417 C 595.726 293.407 597.672 293.622 599.49 293.411 L 601.565 293.247 C 601.582 293.246 601.615 293.248 601.631 293.249 L 602.288 293.151 C 602.78 293.072 602.138 293.218 602.682 293.128 C 602.859 293.099 603.359 292.916 603.61 292.837 L 605.29 292.134 C 605.615 291.994 605.783 291.954 606.084 291.793 C 607.954 290.789 607.661 292.442 611.044 290.973 C 611.924 290.59 613.818 290.573 613.886 292.508 C 613.928 293.732 613.714 293.675 613.665 293.801 C 613.658 293.82 613.644 293.851 613.639 293.871 L 613.635 294.222 C 613.666 294.692 613.718 294.758 613.525 295.15 C 613.003 296.209 613.145 295.92 613.237 296.062 L 613.374 296.258 C 613.385 296.274 613.442 296.366 613.466 296.394 C 613.93 296.253 613.932 296.286 614.173 295.97 C 613.707 296.01 614.117 296.112 613.849 295.898 C 613.912 295.678 613.946 295.531 614.018 295.342 C 614.583 293.848 614.534 294.35 614.324 294.148 C 614.423 293.473 614.527 291.804 614.202 291.201 C 614.128 291.063 613.892 290.655 613.818 290.576 C 613.475 290.21 612.688 290.162 612.237 290.161 C 611.231 290.159 611.07 290.395 610.824 290.176 C 610.581 290.585 611.062 290.377 610.499 290.624 C 609.888 290.893 608.754 290.905 608.111 290.733 C 606.754 290.371 606.285 290.836 605.399 291.232 C 605.153 291.342 604.998 291.422 604.788 291.525 L 603.458 292.21 C 602.59 292.602 601.014 292.662 600.106 292.642 C 599.037 292.618 599.332 292.101 599.086 292.606 C 597.853 292.606 596.911 292.925 595.796 292.833 C 594.743 292.747 594.025 292.612 592.749 292.612 L 592.522 292.272 C 591.893 292.272 591.872 292.35 591.225 291.851 L 591.05 291.706 C 591.085 291.205 591.094 291.394 591.219 291.002 L 591.219 291.002 Z " fill-rule="evenodd" fill="rgb(236,234,234)"/><path d=" M 603.137 286.861 C 603.951 287.076 605.816 286.73 606.799 286.758 C 607.571 286.78 607.572 286.983 608.383 286.998 C 608.638 287.003 608.91 286.956 609.086 286.981 C 609.357 287.02 609.317 286.973 609.449 287.456 C 608.904 287.41 608.079 287.356 607.774 287.807 L 607.59 288.22 C 607.272 288.219 605.794 288.376 605.546 288.44 L 600.566 289.778 C 601.302 289.794 601.44 289.871 601.766 290.392 L 605.55 289.84 C 605.553 289.803 605.401 289.81 605.437 289.673 L 608.369 288.401 C 608.568 288.754 608.334 288.495 608.74 288.741 L 608.722 288.549 L 608.84 288.307 C 609.166 287.802 609.908 287.387 610.681 287.445 C 611.194 287.086 612.816 287.23 613.368 287.525 L 613.667 287.607 C 614.112 287.765 614.016 287.775 614.388 288.038 L 614.409 288.533 L 614.438 288.668 C 614.501 288.97 614.579 288.835 614.89 289.28 C 615.767 290.534 615.161 290.003 615.178 292.044 C 615.192 293.614 615.1 292.384 614.857 294.078 C 614.798 294.489 614.839 294.193 614.742 294.53 L 614.669 294.959 C 614.655 295.047 614.676 295.005 614.624 295.142 C 614.556 295.319 614.461 295.443 614.393 295.558 C 614.528 295.657 614.351 295.61 614.596 295.597 C 615.218 295.234 615.933 292.121 615.992 291.144 C 616.117 289.08 615.231 288.12 613.747 287.474 C 612.304 286.846 610.542 286.572 608.84 286.503 L 604.534 286.619 C 603.573 286.701 603.441 286.675 603.137 286.861 L 603.137 286.861 Z " fill-rule="evenodd" fill="rgb(245,245,245)"/><path d=" M 598.815 303.21 C 599.09 303.495 599.752 303.585 600.167 303.552 L 600.528 303.457 L 600.133 303.3 L 600.322 303.233 C 599.617 302.883 600.399 303.198 600.026 302.867 C 599.867 302.726 599.675 302.688 599.376 302.639 C 599.491 302.285 599.49 302.544 599.376 302.186 C 599.11 302.074 599.092 302.134 598.911 302.079 C 598.327 301.901 598.97 302.099 598.58 301.834 L 598.435 301.753 C 597.309 301.207 597.435 301.139 596.883 301.393 C 596.892 301.376 596.892 301.308 596.885 301.291 C 596.808 301.102 596.484 300.971 596.242 300.87 C 596.222 300.862 595.984 300.778 595.982 300.778 C 594.693 300.566 596.655 301.168 594.844 300.713 L 595.433 300.651 C 595.449 300.611 595.498 300.623 595.524 300.6 C 595.31 300.511 595.066 300.401 594.964 300.366 C 594.005 300.037 594.538 300.038 593.929 299.676 L 593.583 299.538 C 593.573 299.534 593.541 299.527 593.533 299.523 L 592.841 298.755 C 592.469 298.382 592.859 298.627 592.465 298.447 C 592.511 298.056 592.471 298.414 592.578 297.993 C 592.725 298.43 592.59 298.13 592.806 298.109 C 593.186 298.072 592.704 297.92 593.974 298.113 C 594.732 298.228 595.256 298.093 595.752 298.149 C 596.659 298.251 596.361 298.462 597.424 298.349 C 597.828 298.307 598.013 298.382 598.318 298.417 C 598.991 298.494 598.82 298.278 598.923 298.673 L 600.849 298.673 C 600.958 298.225 601.236 298.294 601.607 297.962 C 602.075 297.542 602.25 296.892 602.592 296.864 C 602.608 296.862 602.648 296.865 602.665 296.865 L 602.872 296.689 L 602.779 296.484 C 602.488 296.402 602.622 296.456 602.316 296.341 C 602.177 296.677 602.246 296.571 601.89 296.751 C 600.962 297.221 601.533 297.356 600.473 297.822 C 599.886 298.081 598.156 297.946 597.403 297.878 C 597.047 297.847 597.013 297.755 596.679 297.703 L 594.444 297.657 C 593.264 297.664 593.094 297.204 591.917 297.658 C 591.777 297.712 591.94 297.695 591.673 297.768 C 591.707 298.316 591.653 298.018 591.832 298.388 L 592.139 298.775 C 592.343 298.998 592.275 298.813 592.375 299.179 C 592.427 299.37 592.432 299.458 592.456 299.636 L 595.908 301.411 C 595.923 301.421 595.95 301.445 595.964 301.455 C 596.963 302.204 596.362 301.325 597.434 302.217 L 597.772 302.315 C 597.788 302.319 597.822 302.327 597.839 302.332 L 598.152 302.438 C 598.292 302.489 598.259 302.471 598.418 302.539 L 598.587 302.617 C 598.613 302.63 598.64 302.645 598.666 302.659 C 598.799 302.731 598.942 302.825 599.092 302.922 C 598.949 303.218 599.208 303.11 598.815 303.21 L 598.815 303.21 Z " fill-rule="evenodd" fill="rgb(213,213,213)"/><path d=" M 588.26 293.794 C 588.368 293.909 588.742 294.161 588.877 294.212 C 589.616 294.494 588.7 293.97 589.841 294.485 C 589.866 294.497 589.896 294.51 589.922 294.52 L 591.177 294.765 C 592.248 294.891 592.841 294.844 593.5 295.257 C 593.789 295.439 593.384 295.309 593.891 295.425 L 600.267 295.661 C 600.739 295.561 600.85 295.669 600.829 295.256 C 600.747 295.084 600.807 295.142 600.64 294.955 C 600.362 294.692 600.189 294.486 600.002 294.064 C 599.054 294.064 599.349 294.019 598.98 294.205 C 598.281 294.558 596.588 294.274 595.717 294.222 C 595.355 294.2 594.91 294.267 594.33 294.241 C 593.694 294.213 593.651 294.061 592.979 294.036 C 592.448 294.017 591.915 294.041 591.384 294.027 C 590.523 294.004 590.128 293.765 589.512 293.477 C 589.346 293.399 589.346 293.368 589.075 293.388 L 589.041 294.016 L 588.26 293.794 L 588.26 293.794 Z " fill-rule="evenodd" fill="rgb(226,225,226)"/><path d=" M 588.487 294.312 L 588.896 294.314 C 589.508 295.222 589.502 295.381 589.929 295.484 L 591.134 295.828 C 593.113 296.334 594.653 296.151 596.64 296.445 C 597.309 296.544 597.965 296.442 598.629 296.498 C 599.548 296.576 600.034 296.812 601.18 296.173 C 601.609 295.934 601.368 296.287 601.513 295.794 C 601.379 295.51 601.11 295.384 600.829 295.256 C 600.85 295.669 600.739 295.56 600.267 295.661 L 593.891 295.424 C 593.384 295.309 593.789 295.439 593.499 295.257 C 592.841 294.844 592.247 294.891 591.176 294.764 L 589.922 294.52 C 589.896 294.51 589.866 294.496 589.841 294.485 C 588.7 293.97 589.616 294.494 588.877 294.212 C 588.742 294.16 588.368 293.909 588.26 293.794 C 587.566 293.563 586.921 292.978 586.183 292.835 C 586.369 293.144 586.266 293.027 586.757 293.295 C 586.934 293.393 587.11 293.514 587.301 293.631 C 587.662 293.852 588.097 294.14 588.487 294.312 L 588.487 294.312 Z " fill-rule="evenodd" fill="rgb(219,219,219)"/><path d=" M 602.427 294.213 C 602.559 294.4 602.67 294.479 603.216 294.268 C 603.866 294.016 606.336 293.163 607.067 293.13 C 607.089 293.129 607.122 293.132 607.145 293.131 C 607.169 293.13 607.201 293.132 607.226 293.132 L 608.157 293.102 C 609.045 293.05 608.817 292.93 609.629 293.198 C 610.372 293.443 610.181 293.396 610.475 294.002 L 610.684 294.427 C 610.863 294.709 611.888 295.424 612.196 295.596 C 612.184 296.417 611.991 296.199 611.737 296.584 C 611.599 296.792 611.79 296.875 611.554 296.805 L 611.753 296.874 C 612.01 296.89 611.828 296.94 612.181 296.859 C 612.573 296.769 612.44 296.769 612.583 296.655 L 612.415 296.578 C 612.538 296.205 612.422 296.632 612.583 296.276 L 612.675 295.626 C 612.704 294.944 612.519 294.863 612.035 294.509 C 612.016 294.495 611.987 294.477 611.969 294.463 L 611.672 294.195 C 611.674 294.19 611.91 293.937 611.91 293.081 C 612.146 292.975 612.022 293.015 612.364 293.081 C 612.364 291.82 613.171 292.085 612.454 291.828 C 611.993 291.663 609.936 292.232 609.28 292.291 C 608.772 292.338 608.133 292.273 607.592 292.307 C 605.952 292.409 604.62 293.466 603.738 293.709 C 602.568 294.032 602.806 293.727 602.427 294.213 L 602.427 294.213 Z " fill-rule="evenodd" fill="rgb(227,227,225)"/><path d=" M 600.124 308.598 C 600.2 308.932 600.383 309.561 600.435 309.941 C 600.462 310.137 600.465 310.539 600.454 310.742 C 600.449 310.838 600.424 311.108 600.403 311.194 L 600.234 311.599 L 600.185 312.699 L 600.694 312.69 L 601 311.076 C 601.095 310.151 600.919 309.936 601.574 309.376 L 601.757 309.217 C 602.288 308.654 602.178 308.063 603.575 308.319 C 603.789 308.682 603.98 308.973 604.019 309.391 C 604.033 310.379 604.461 311.3 604.453 312.688 L 604.756 312.689 C 604.745 312.656 604.337 308.824 604.02 308.164 L 603.943 308.03 C 603.633 307.432 604.157 308.464 603.88 307.905 L 603.576 307.004 C 603.369 306.073 603.681 306.624 603.68 305.754 C 603.679 304.906 603.483 305.504 603.516 304.732 L 602.82 304.707 C 602.992 305.433 601.574 306.809 601.925 307.567 C 601.245 307.505 601.906 307.631 601.358 307.227 C 601.055 307.641 601.164 307.238 600.915 307.806 C 600.78 308.116 600.987 307.739 600.857 307.974 C 600.58 308.475 600.735 308.065 600.081 308.295 L 600.124 308.598 L 600.124 308.598 Z " fill-rule="evenodd" fill="rgb(224,224,224)"/><path d=" M 592.068 290.574 C 592.077 291.004 592.231 290.857 592.466 291.286 L 593.481 291.113 C 593.633 291.063 593.607 290.794 593.71 291.49 C 593.77 291.891 593.461 292.076 594.85 292.355 C 596.18 292.622 598.006 291.966 599.068 291.863 C 599.72 291.8 600.511 292.184 600.339 291.502 C 599.992 291.061 599.789 291.28 599.862 290.347 C 599.666 290.612 599.66 290.568 599.66 291.039 C 599.606 290.941 599.72 290.946 599.462 290.9 L 598.071 291.19 C 597.602 291.303 597.796 291.293 597.48 291.382 C 595.694 291.883 595.778 291.464 595.506 291.259 L 595.159 291.026 C 595.239 290.821 595.215 290.806 595.329 290.571 L 595.612 289.553 C 595.596 289.229 595.634 289.469 595.434 289.371 L 595.747 289.057 C 595.761 289.053 595.794 289.042 595.808 289.038 L 596.26 288.626 C 595.526 288.811 592.276 290.212 592.068 290.574 L 592.068 290.574 Z " fill-rule="evenodd" fill="rgb(244,242,242)"/><path d=" M 602.779 296.485 L 602.872 296.689 L 603.625 297.058 C 604.141 297.216 604.549 297.416 605.118 297.577 C 605.592 297.712 606.142 297.785 606.59 297.912 C 607.614 298.02 608.461 298.138 609.515 298.086 L 610.283 298.033 L 612.687 297.621 L 613.9 297.113 C 614.19 296.763 614.437 296.259 614.599 295.778 L 614.173 295.97 C 613.932 296.286 613.93 296.253 613.466 296.394 C 613.287 296.516 612.997 296.676 612.583 296.655 C 612.441 296.769 612.574 296.769 612.181 296.859 C 611.828 296.94 612.01 296.89 611.753 296.874 C 611.475 297.096 611.493 297.048 611.107 296.998 C 610.856 297.163 611.051 297.084 610.654 297.157 C 610.47 297.19 610.245 297.194 610.058 297.206 L 608.495 297.253 C 607.561 297.196 605.066 296.861 604.205 296.315 L 604.062 296.201 C 603.688 296.186 603.841 296.183 603.501 296.022 C 603.131 295.846 603.41 295.897 603.008 295.845 C 602.448 296.157 603.145 295.729 602.78 296.485 L 602.779 296.485 Z " fill-rule="evenodd" fill="rgb(30,30,29)"/><path d=" M 610.283 298.033 L 609.55 299.552 C 608.236 302.359 607.624 302.078 607.335 302.373 L 607.293 302.442 C 607.288 302.448 607.277 302.477 607.272 302.484 L 606.914 302.817 C 606.613 303.093 606.692 302.891 606.778 303.102 C 607.582 303.11 609.069 302.099 609.654 301.705 C 610.382 301.213 611.559 300.332 611.886 299.687 C 611.48 299.46 611.759 299.3 612.146 298.966 L 612.671 298.357 C 612.697 298.285 612.756 298.302 612.8 298.277 C 612.502 298.622 612.68 298.096 612.68 298.082 C 612.693 297.655 612.594 298.097 612.687 297.621 L 610.283 298.033 L 610.283 298.033 Z " fill-rule="evenodd" fill="rgb(226,226,222)"/><path d=" M 602.427 294.213 C 602.346 294.345 602.362 294.3 602.28 294.343 C 602.278 294.344 602.101 294.406 602.045 294.419 C 601.646 294.515 601.949 294.386 601.547 294.501 C 601.752 294.84 601.706 294.827 602.071 294.928 C 602.776 295.024 602.062 294.956 602.521 294.809 L 603.117 294.653 C 604.923 294.034 604.144 294.351 605.75 294.051 C 606.075 293.99 606.748 293.941 607.252 293.971 C 607.8 294.004 607.958 294.178 608.504 294.25 C 609.674 294.406 608.805 294.369 609.813 295.027 L 611.319 296.238 C 611.271 296.921 610.953 296.713 611.107 296.998 C 611.492 297.048 611.475 297.096 611.753 296.874 L 611.554 296.805 C 611.79 296.875 611.599 296.792 611.737 296.584 C 611.991 296.199 612.184 296.417 612.196 295.596 C 611.888 295.424 610.863 294.709 610.684 294.427 L 610.475 294.002 C 610.181 293.396 610.372 293.443 609.629 293.198 C 608.816 292.93 609.045 293.049 608.157 293.102 L 607.226 293.131 C 607.201 293.132 607.169 293.13 607.145 293.131 C 607.122 293.131 607.089 293.129 607.067 293.13 C 606.336 293.163 603.866 294.016 603.216 294.268 C 602.67 294.479 602.559 294.4 602.427 294.212 L 602.427 294.213 Z " fill-rule="evenodd" fill="rgb(224,223,221)"/><path d=" M 598.992 308.133 C 599.561 308.134 598.971 308.646 598.894 309.127 C 598.879 309.216 598.941 309.38 598.685 309.751 L 597.027 312.19 C 597.014 312.21 596.993 312.236 596.979 312.257 L 596.826 312.551 C 596.372 312.551 596.77 312.623 596.541 312.344 C 596.274 312.529 596.403 312.328 596.271 312.684 C 597.116 312.727 597.311 312.443 597.541 311.946 C 597.713 311.508 598.36 310.725 598.66 310.313 C 598.971 309.888 599.429 309.1 599.71 308.637 L 600.124 308.598 L 600.082 308.294 C 600.736 308.064 600.58 308.474 600.857 307.974 C 600.987 307.739 600.78 308.116 600.916 307.806 C 601.164 307.237 601.056 307.641 601.359 307.227 C 601.907 307.63 601.245 307.505 601.925 307.567 C 601.574 306.808 602.992 305.433 602.821 304.706 L 601.083 304.523 C 600.797 304.869 599.138 307.706 598.992 308.133 L 598.992 308.133 Z " fill-rule="evenodd" fill="rgb(217,217,217)"/><path d=" M 604.123 299.148 L 603.7 299.716 C 603.007 300.172 602.675 299.409 602.242 300.382 L 603.171 300.439 C 603.186 300.464 603.258 300.552 603.27 300.569 C 603.736 301.204 603.141 300.212 603.419 300.769 C 603.971 300.769 603.957 301.31 603.964 301.902 C 605.198 301.928 603.918 302.13 604.778 302.482 C 604.846 302.124 604.902 301.952 605.198 301.738 L 605.551 301.563 C 605.504 301.621 605.695 301.971 605.118 301.449 L 605.505 300.639 C 605.623 300.347 605.542 300.805 605.597 300.382 C 605.453 300.401 605.177 300.592 604.918 300.496 C 604.916 300.472 604.928 300.413 604.93 300.427 L 605.097 299.343 C 605.837 299.448 605.306 299.136 605.55 299.796 C 605.773 299.382 605.572 299.582 605.683 299.303 C 605.772 299.076 605.778 299.14 605.868 299.049 C 606.115 298.798 605.825 299.14 606.104 298.833 L 606.439 298.29 C 606.442 298.277 606.445 298.242 606.449 298.229 C 606.501 298.03 606.513 298.053 606.59 297.912 C 606.142 297.785 605.591 297.712 605.117 297.577 C 604.549 297.415 604.141 297.216 603.625 297.058 C 603.909 297.554 603.557 296.875 603.639 297.861 C 603.715 298.77 603.525 298.324 603.572 298.833 C 604.168 298.829 604.178 298.72 604.469 299.008 C 604.224 299.138 604.456 299.036 604.123 299.147 L 604.123 299.148 Z " fill-rule="evenodd" fill="rgb(210,210,208)"/><path d=" M 602.354 295.176 C 602.591 295.477 602.8 295.512 603.008 295.845 C 603.41 295.897 603.131 295.846 603.5 296.021 C 603.841 296.183 603.688 296.186 604.062 296.201 C 604.772 295.975 606.165 295.667 606.853 295.832 L 608.147 296.251 C 608.614 296.629 608.495 297.252 608.495 297.253 L 610.058 297.206 C 610.275 296.384 610.344 296.756 610.201 296.44 C 610.075 296.16 609.792 296.14 609.558 295.974 C 609.34 295.818 609.189 295.593 608.99 295.387 C 608.681 295.065 608.905 295.15 608.836 294.972 C 608.156 294.86 607.682 294.818 607.08 294.711 L 602.354 295.176 L 602.354 295.176 Z " fill-rule="evenodd" fill="rgb(216,216,216)"/><path d=" M 600.322 303.233 L 600.133 303.301 L 600.528 303.457 L 600.167 303.552 C 600.39 303.752 600.853 303.771 601.234 303.825 L 602.264 303.921 C 602.091 303.792 602.248 303.821 601.936 303.733 C 601.842 303.707 601.726 303.715 601.633 303.715 C 601.911 303.551 602.343 303.527 602.652 303.489 C 602.761 303.475 602.888 303.466 603.044 303.354 L 603.301 303.055 C 603.311 303.04 603.327 303.004 603.341 302.979 C 603.351 302.979 603.831 303.105 604.099 302.994 L 604.871 302.469 C 605.026 302.576 605.065 302.537 604.778 302.482 C 603.918 302.13 605.198 301.928 603.964 301.902 C 603.957 301.31 603.971 300.769 603.419 300.769 L 603.901 302.129 L 603.197 302.167 C 603.205 302.16 603.326 302.302 603.326 302.304 C 603.377 302.564 603.428 302.319 603.256 302.532 C 603.105 302.719 602.906 302.794 602.672 302.898 C 602.205 303.106 601.968 303.312 601.245 303.168 C 601.236 303.157 601.229 303.12 601.227 303.131 C 601.191 303.346 601.287 303.115 601.024 302.914 C 599.818 301.993 600.289 302.45 600.289 301.273 C 599.948 301.441 600.351 301.833 599.852 301.262 C 599.66 301.042 599.679 300.914 599.817 300.698 C 600.011 300.394 600.636 300.103 600.905 299.938 C 601.658 300.208 600.174 299.915 601.853 300.248 C 602.157 300.308 601.67 300.272 602.242 300.382 C 602.675 299.409 603.007 300.172 603.7 299.716 L 604.122 299.148 C 603.111 298.812 603.34 299.508 602.577 299.342 C 602.177 299.255 601.984 299.175 601.421 299.376 C 600.979 299.534 601.171 299.532 600.33 299.542 C 600.18 299.544 598.91 299.367 598.676 299.527 C 598.482 299.659 598.564 299.947 598.564 300.279 C 599.139 300.422 599.028 300.496 598.904 300.996 C 599.025 301.032 598.828 300.702 599.199 301.107 L 599.771 302.027 C 599.987 302.402 600.345 302.652 600.63 302.97 C 600.738 303.091 600.694 303.035 600.792 303.167 L 600.322 303.233 L 600.322 303.233 Z " fill-rule="evenodd" fill="rgb(210,209,210)"/><path d=" M 603.517 304.732 C 603.483 305.503 603.68 304.905 603.68 305.754 C 603.681 306.624 603.369 306.073 603.576 307.004 L 603.88 307.904 C 604.157 308.464 603.633 307.432 603.943 308.029 L 604.02 308.164 C 604.337 308.824 604.745 312.656 604.757 312.689 L 605.124 312.691 L 605.081 304.379 L 603.517 304.732 L 603.517 304.732 Z " fill-rule="evenodd" fill="rgb(233,232,230)"/><path d=" M 601.766 290.392 L 601.709 291.033 L 601.584 291.361 C 601.597 291.794 601.554 291.471 601.734 291.598 C 602.151 291.287 602.49 291.512 603.874 291.058 C 604.269 290.929 604.537 290.698 604.797 290.63 C 605.346 290.486 605.668 290.562 606.017 290.344 L 606.15 290.246 C 606.761 289.83 606.316 290.106 606.798 290.143 C 607.111 290.167 607.568 289.989 607.967 289.914 C 608.83 289.751 608.704 290.097 609.463 289.838 C 609.496 289.827 609.602 289.793 609.634 289.781 C 610.274 289.529 609.964 289.681 609.969 289.456 C 609.343 289.293 608.952 289.237 608.74 288.74 C 608.333 288.495 608.568 288.753 608.369 288.401 L 605.437 289.673 C 605.4 289.81 605.553 289.803 605.55 289.84 L 601.766 290.392 L 601.766 290.392 Z " fill-rule="evenodd" fill="rgb(242,241,242)"/><path d=" M 604.778 302.482 C 605.065 302.537 605.026 302.576 604.871 302.469 L 604.1 302.994 C 603.831 303.105 603.351 302.979 603.341 302.979 C 603.327 303.004 603.311 303.04 603.301 303.055 L 603.044 303.353 C 602.888 303.466 602.761 303.475 602.652 303.489 C 602.343 303.527 601.912 303.551 601.633 303.715 C 601.726 303.715 601.842 303.707 601.936 303.733 C 602.248 303.82 602.092 303.792 602.264 303.921 L 604.196 303.87 C 604.249 303.441 604.162 303.727 604.745 303.339 L 605.067 303.014 C 605.662 302.07 605.219 303.096 605.863 302.002 L 606.24 301.245 C 606.585 300.721 606.457 300.813 606.457 299.75 C 606.639 299.96 606.483 299.765 606.637 300.023 C 606.649 300.043 606.666 300.077 606.677 300.096 C 606.688 300.115 606.709 300.154 606.717 300.169 L 606.797 300.316 C 606.797 299.813 606.855 299.655 606.683 299.297 C 607.339 299.144 607.276 299.005 607.067 298.471 L 607.508 298.427 C 607.744 298.327 607.688 298.227 607.741 298.051 C 608.284 298.363 607.838 298.238 608.458 298.276 C 608.559 298.276 608.879 298.293 608.952 298.284 L 609.515 298.086 C 608.461 298.138 607.614 298.02 606.59 297.912 C 606.513 298.053 606.502 298.03 606.449 298.229 C 606.446 298.242 606.442 298.278 606.439 298.29 L 606.104 298.833 C 605.825 299.141 606.115 298.798 605.868 299.049 C 605.778 299.14 605.773 299.076 605.683 299.303 C 605.572 299.583 605.773 299.382 605.55 299.797 C 605.306 299.136 605.837 299.449 605.097 299.344 L 604.93 300.427 C 604.928 300.413 604.916 300.473 604.918 300.496 C 605.177 300.593 605.453 300.402 605.597 300.383 C 605.542 300.805 605.623 300.347 605.505 300.64 L 605.118 301.449 C 605.695 301.971 605.505 301.621 605.551 301.563 L 605.198 301.738 C 604.902 301.952 604.846 302.124 604.778 302.482 L 604.778 302.482 Z " fill-rule="evenodd" fill="rgb(213,212,210)"/><path d=" M 602.071 294.929 C 602.198 295.125 602.133 295.104 602.354 295.176 L 607.08 294.711 C 607.682 294.818 608.156 294.86 608.836 294.972 C 608.905 295.15 608.681 295.065 608.99 295.387 C 609.189 295.593 609.34 295.818 609.558 295.974 C 609.792 296.14 610.075 296.16 610.201 296.44 C 610.344 296.756 610.275 296.384 610.058 297.206 C 610.245 297.194 610.47 297.19 610.654 297.157 C 611.051 297.084 610.856 297.163 611.107 296.998 C 610.954 296.713 611.271 296.921 611.319 296.238 L 609.814 295.027 C 608.805 294.369 609.674 294.406 608.504 294.25 C 607.958 294.178 607.8 294.004 607.252 293.971 C 606.748 293.941 606.076 293.99 605.75 294.051 C 604.144 294.351 604.923 294.034 603.117 294.653 L 602.521 294.809 C 602.062 294.956 602.776 295.024 602.071 294.928 L 602.071 294.929 Z " fill-rule="evenodd" fill="rgb(220,220,220)"/><path d=" M 583.866 299.19 L 583.422 299.954 C 583.296 300.276 583.167 300.56 583.088 300.874 C 582.703 300.875 582.588 300.94 582.281 301.019 C 583.256 302.425 585.754 301.027 586.626 300.313 C 587.169 299.87 587.718 299.437 587.967 298.472 C 588.184 297.628 588.192 296.486 587.979 295.671 C 587.487 295.908 587.627 297.026 587.224 297.939 C 586.975 298.504 586.241 299.836 585.834 300.091 C 585.59 300.244 585.339 300.322 585.171 300.399 C 584.725 300.604 585.16 300.387 584.817 300.751 C 584.4 300.513 584.058 300.148 583.663 300.111 C 583.733 299.643 583.829 299.601 583.866 299.19 Z " fill-rule="evenodd" fill="rgb(201,201,198)"/><path d=" M 596.26 288.626 L 595.808 289.038 C 595.794 289.042 595.761 289.053 595.747 289.057 L 595.434 289.371 C 595.634 289.469 595.596 289.23 595.613 289.554 L 595.329 290.572 C 595.216 290.806 595.239 290.822 595.16 291.026 L 595.506 291.259 C 595.778 291.464 595.694 291.883 597.48 291.382 C 597.796 291.293 597.602 291.303 598.071 291.19 L 599.463 290.901 C 599.72 290.946 599.607 290.941 599.66 291.039 C 599.66 290.568 599.666 290.612 599.862 290.347 L 599.968 290.218 C 600.103 289.916 599.933 290.053 600.21 290.05 L 600.21 289.839 C 599.782 289.709 598.541 290.338 598.156 290.429 C 596.693 290.777 596.691 290.9 596.034 290.46 C 596.13 289.301 596.821 289.276 597.022 289.149 C 597.356 288.937 597.497 288.427 598.135 288.197 C 598.354 288.118 598.007 288.227 598.386 288.139 C 599.005 287.995 598.501 287.828 599.663 287.745 L 600.591 287.485 C 600.716 287.418 600.679 287.679 600.68 287.401 L 600.934 287.133 C 600.052 287.29 596.686 288.22 596.26 288.626 L 596.26 288.626 Z " fill-rule="evenodd" fill="rgb(246,246,246)"/><path d=" M 608.458 298.276 L 608.193 298.311 C 608.383 298.439 608.69 298.247 607.942 299.305 C 607.673 299.686 607.792 299.645 607.69 299.849 L 607.541 300.066 C 607.523 300.082 607.493 300.1 607.474 300.113 C 607.468 300.116 607.209 300.194 607.186 300.203 L 607.614 300.274 L 607.248 301.593 C 607.169 301.756 607.257 301.57 607.135 301.78 C 607.123 301.8 607.106 301.83 607.093 301.85 C 606.726 302.473 606.423 302.609 606.395 302.634 C 606.377 302.65 606.351 302.672 606.333 302.687 C 606.315 302.702 606.287 302.723 606.271 302.738 C 606.255 302.751 606.225 302.771 606.211 302.785 C 606.07 302.914 606.067 302.829 606.005 303.231 C 606 303.263 605.987 303.409 605.98 303.446 C 606.171 303.4 606.314 303.38 606.496 303.298 C 606.816 303.154 606.626 303.255 606.778 303.102 C 606.692 302.891 606.613 303.094 606.914 302.817 L 607.272 302.484 C 607.277 302.477 607.288 302.448 607.293 302.442 L 607.335 302.373 C 607.624 302.078 608.236 302.359 609.55 299.552 L 610.283 298.034 L 609.515 298.086 L 608.952 298.284 C 608.879 298.293 608.559 298.277 608.458 298.277 L 608.458 298.276 Z " fill-rule="evenodd" fill="rgb(217,217,217)"/><path d=" M 600.849 301.166 C 601.158 301.166 601.397 301.203 601.619 301.317 C 602.07 301.549 601.616 301.295 601.873 301.504 C 602.6 302.095 602.526 301.719 602.744 301.993 C 603.032 302.356 602.029 301.968 602.888 302.412 C 601.883 302.439 602.385 302.865 601.585 302.865 C 601.279 302.865 601.365 302.556 600.849 302.412 C 600.762 301.886 600.737 302.198 600.805 301.68 L 600.849 301.166 L 600.849 301.166 Z  M 603.419 300.769 C 603.141 300.212 603.736 301.203 603.27 300.569 C 603.258 300.552 603.186 300.464 603.171 300.439 L 602.242 300.382 C 601.671 300.272 602.157 300.308 601.853 300.248 C 600.174 299.915 601.659 300.208 600.905 299.938 C 600.636 300.103 600.011 300.394 599.817 300.698 C 599.68 300.914 599.66 301.042 599.853 301.262 C 600.351 301.833 599.949 301.441 600.289 301.273 C 600.289 302.45 599.818 301.993 601.024 302.914 C 601.287 303.115 601.192 303.346 601.228 303.131 C 601.229 303.12 601.237 303.157 601.245 303.168 C 601.968 303.312 602.205 303.106 602.672 302.898 C 602.906 302.794 603.105 302.719 603.256 302.532 C 603.429 302.319 603.377 302.564 603.326 302.304 C 603.326 302.302 603.206 302.16 603.197 302.167 L 603.902 302.129 L 603.419 300.769 L 603.419 300.769 Z " fill-rule="evenodd" fill="rgb(208,208,208)"/><path d=" M 587.722 295.411 L 586.798 297.544 C 586.663 297.723 586.459 297.864 586.408 297.941 C 586.308 298.091 585.965 298.82 585.498 299.169 C 584.997 299.008 585.435 299.135 585.342 299.023 C 584.684 298.227 584.606 298.29 584.716 297.334 C 584.563 297.61 584.594 297.702 584.492 297.838 C 584.322 298.064 584.378 297.971 584.163 298.051 L 584.082 298.226 L 584.107 298.417 L 583.866 299.19 C 583.829 299.602 583.733 299.643 583.663 300.112 C 584.059 300.149 584.401 300.514 584.817 300.751 C 585.16 300.387 584.725 300.604 585.171 300.399 C 585.339 300.322 585.591 300.244 585.834 300.091 C 586.241 299.836 586.975 298.504 587.224 297.939 C 587.627 297.027 587.487 295.908 587.979 295.671 L 587.93 295.336 L 587.722 295.412 L 587.722 295.411 Z " fill-rule="evenodd" fill="rgb(194,194,193)"/><path d=" M 584.741 293.054 C 584.624 293.192 584.742 292.98 584.59 293.284 C 584.531 293.401 584.549 293.37 584.519 293.451 L 583.831 295.976 C 583.784 296.789 584.112 296.626 584.341 296.78 C 584.49 295.948 584.217 296.249 584.427 295.964 L 584.527 296.451 L 584.884 296.2 C 584.986 296.04 585.426 294.801 585.511 294.429 C 585.603 294.023 585.621 293.796 585.683 293.385 C 585.759 292.875 585.674 292.825 586.183 292.835 C 586.921 292.978 587.566 293.563 588.26 293.794 L 589.041 294.015 L 589.074 293.387 C 588.125 293.444 588.834 293.403 588.557 293.182 L 587.587 292.564 L 587.414 292.909 L 585.753 292.442 C 585.53 292.687 585.481 292.928 585.234 293.001 C 584.946 293.085 585.158 292.883 584.969 293.032 L 584.741 293.054 L 584.741 293.054 Z " fill-rule="evenodd" fill="rgb(236,234,234)"/><path d=" M 604.196 303.87 L 605.128 303.708 L 605.98 303.446 C 605.987 303.409 606 303.263 606.005 303.231 C 606.067 302.829 606.071 302.914 606.211 302.785 C 606.225 302.771 606.255 302.751 606.271 302.738 C 606.287 302.723 606.316 302.702 606.333 302.687 C 606.351 302.672 606.377 302.65 606.395 302.634 C 606.424 302.609 606.727 302.473 607.094 301.85 C 607.106 301.83 607.123 301.8 607.135 301.78 C 607.257 301.57 607.169 301.756 607.248 301.593 L 607.614 300.274 L 607.187 300.203 C 607.209 300.195 607.468 300.116 607.474 300.113 C 607.493 300.1 607.523 300.082 607.541 300.066 L 607.69 299.849 C 607.792 299.645 607.673 299.686 607.942 299.305 C 608.69 298.247 608.383 298.439 608.193 298.311 L 608.458 298.276 C 607.838 298.238 608.284 298.363 607.741 298.051 C 607.688 298.227 607.744 298.327 607.508 298.427 L 607.067 298.471 C 607.276 299.005 607.339 299.144 606.683 299.296 C 606.855 299.655 606.797 299.812 606.797 300.316 L 606.717 300.169 C 606.709 300.154 606.688 300.114 606.677 300.096 C 606.666 300.077 606.649 300.043 606.637 300.023 C 606.483 299.765 606.639 299.96 606.457 299.75 C 606.457 300.813 606.585 300.721 606.24 301.245 L 605.863 302.001 C 605.219 303.096 605.662 302.069 605.067 303.014 L 604.745 303.339 C 604.162 303.726 604.249 303.441 604.196 303.87 L 604.196 303.87 Z " fill-rule="evenodd" fill="rgb(214,214,214)"/><path d=" M 585.158 296.464 C 584.98 296.606 584.863 297.005 584.716 297.334 C 584.606 298.289 584.684 298.227 585.342 299.023 C 585.434 299.135 584.997 299.008 585.498 299.169 C 585.965 298.82 586.308 298.091 586.408 297.94 C 586.459 297.864 586.663 297.723 586.798 297.544 L 587.722 295.411 C 586.463 295.717 587.749 295.983 585.853 296.71 L 585.178 296.897 L 585.157 296.463 L 585.158 296.464 Z " fill-rule="evenodd" fill="rgb(187,186,186)"/><path d=" M 584.884 296.2 L 584.163 298.05 C 584.379 297.971 584.322 298.064 584.492 297.838 C 584.594 297.702 584.563 297.61 584.716 297.334 C 584.863 297.005 584.98 296.606 585.158 296.464 C 585.18 296.342 585.925 293.709 585.951 293.648 C 586.294 293.826 586.056 293.712 586.184 293.913 C 586.553 293.968 586.641 294.141 586.984 294.408 C 587.272 294.632 587.515 294.699 587.651 294.995 L 587.883 295.132 C 588.354 295.312 588.231 295.341 588.477 295.692 C 588.766 295.128 588.486 295.602 588.753 295.485 C 588.994 295.38 589.005 295.691 589.004 295.246 C 589.003 295.035 588.616 294.548 588.487 294.313 C 588.097 294.141 587.662 293.853 587.301 293.632 C 587.11 293.514 586.934 293.393 586.756 293.296 C 586.266 293.028 586.368 293.145 586.183 292.836 C 585.674 292.825 585.759 292.875 585.683 293.385 C 585.621 293.796 585.603 294.024 585.511 294.43 C 585.426 294.801 584.985 296.041 584.884 296.2 L 584.884 296.2 Z " fill-rule="evenodd" fill="rgb(197,197,197)"/><path d=" M 604.062 296.201 L 604.204 296.315 C 605.066 296.861 607.56 297.196 608.495 297.253 C 608.495 297.252 608.614 296.629 608.147 296.251 L 606.853 295.832 C 606.165 295.667 604.772 295.975 604.062 296.201 L 604.062 296.201 Z " fill-rule="evenodd" fill="rgb(211,211,211)"/><path d=" M 588.477 295.692 C 588.409 296.768 590.238 298.679 590.789 298.919 C 591.304 298.364 590.433 298.932 590.928 298.827 C 590.945 298.823 591.059 298.823 591.082 298.831 C 591.287 298.899 591.302 298.98 591.452 299.108 L 592.293 299.546 C 591.998 298.685 592.055 299.049 591.63 298.735 L 591.133 298.189 C 590.738 297.759 590.808 298.154 590.465 297.613 C 590.345 297.423 590.529 297.621 590.303 297.32 C 589.957 296.859 589.695 297.119 589.048 295.898 L 589.236 295.647 C 589.513 294.988 589.145 294.862 588.896 294.314 L 588.487 294.312 C 588.616 294.548 589.003 295.035 589.003 295.246 C 589.005 295.691 588.993 295.379 588.753 295.485 C 588.486 295.602 588.766 295.127 588.476 295.692 L 588.477 295.692 Z " fill-rule="evenodd" fill="rgb(211,211,211)"/><path d=" M 613.934 288.993 C 614.156 288.942 614.143 289.017 614.084 288.838 C 613.819 288.343 612.673 288.405 612.016 288.073 C 612.171 287.882 612.349 287.797 612.657 287.717 C 613.28 287.553 613.256 287.829 613.368 287.525 C 612.816 287.23 611.194 287.086 610.681 287.445 L 610.843 287.516 C 610.426 287.572 610.403 287.511 610.403 288.317 C 610.931 288.411 613.651 288.607 613.934 288.993 L 613.934 288.993 Z " fill-rule="evenodd" fill="rgb(60,60,59)"/><path d=" M 604.196 303.87 L 602.264 303.921 L 601.235 303.825 L 601.082 304.523 L 602.821 304.706 L 603.517 304.732 L 605.081 304.379 L 605.128 303.708 L 604.196 303.87 Z " fill-rule="evenodd" fill="rgb(151,40,35)"/><path d=" M 585.158 296.464 L 585.178 296.897 L 585.853 296.71 C 587.749 295.984 586.463 295.717 587.722 295.411 L 587.93 295.336 L 587.883 295.132 L 587.651 294.995 C 587.517 295.153 587.685 294.975 587.325 295.132 C 587.203 295.186 586.962 295.29 586.889 295.32 C 586.059 295.658 586.445 295.71 586.001 295.719 C 585.895 295.471 586.018 294.233 586.184 293.912 C 586.056 293.711 586.295 293.826 585.951 293.648 C 585.925 293.708 585.18 296.342 585.158 296.464 L 585.158 296.464 Z " fill-rule="evenodd" fill="rgb(181,178,178)"/><path d=" M 600.695 312.69 L 601.068 312.606 C 601.2 312.058 601.35 311.525 601.53 311.028 C 601.711 310.531 602.006 310.09 602.087 309.685 C 602.279 308.988 603.099 307.961 603.68 308.85 L 604.019 309.391 C 603.98 308.972 603.789 308.681 603.575 308.318 C 602.178 308.062 602.288 308.653 601.758 309.216 L 601.574 309.376 C 600.92 309.936 601.095 310.151 601 311.075 L 600.695 312.69 L 600.695 312.69 Z " fill-rule="evenodd" fill="rgb(214,214,214)"/><path d=" M 602.087 309.685 C 602.917 309.145 603.27 309.209 603.655 310.37 C 603.786 310.765 603.892 311.187 603.981 311.628 C 604.233 312.874 604.031 312.689 604.454 312.688 C 604.461 311.3 604.033 310.379 604.019 309.391 L 603.68 308.85 C 603.099 307.961 602.279 308.988 602.087 309.685 L 602.087 309.685 Z " fill-rule="evenodd" fill="rgb(192,190,190)"/><path d=" M 608.84 288.307 L 610.945 288.676 C 611.306 288.724 611.713 288.742 612.056 288.832 C 612.597 288.974 612.499 289.12 613.072 289.194 C 612.272 289.26 613.046 289.136 612.688 289.427 C 612.947 289.391 613.208 289.36 613.453 289.287 C 613.538 289.262 613.687 289.207 613.763 289.161 C 613.938 289.054 613.891 289.086 613.934 288.993 C 613.651 288.607 610.931 288.411 610.403 288.317 C 610.403 287.511 610.426 287.572 610.843 287.516 L 610.681 287.445 C 609.908 287.388 609.166 287.802 608.84 288.307 L 608.84 288.307 Z " fill-rule="evenodd" fill="rgb(48,48,46)"/><path d=" M 598.979 308.144 C 598.755 308.422 598.693 308.543 598.553 308.83 C 598.512 308.913 598.414 309.132 598.414 309.132 C 598.397 309.164 598.331 309.282 598.316 309.306 L 598.186 309.492 C 597.947 309.618 597.512 310.52 597.304 310.877 C 597.162 311.12 597.032 311.326 596.876 311.579 C 596.686 311.885 596.572 311.996 596.54 312.343 C 596.769 312.623 596.372 312.551 596.826 312.551 L 596.979 312.256 C 596.992 312.236 597.013 312.21 597.027 312.19 L 598.685 309.751 C 598.94 309.38 598.879 309.216 598.893 309.127 C 598.971 308.646 599.561 308.134 598.992 308.132 L 598.979 308.144 L 598.979 308.144 Z " fill-rule="evenodd" fill="rgb(227,227,225)"/><path d=" M 583.831 295.976 L 583.504 296.518 C 583.179 297.198 582.878 297.449 582.829 297.965 C 583.067 298.551 582.504 297.855 583.006 298.447 C 583.353 298.313 583.416 297.787 584.162 298.05 L 584.884 296.2 L 584.527 296.451 L 584.427 295.964 C 584.217 296.249 584.49 295.948 584.341 296.78 C 584.112 296.626 583.784 296.789 583.831 295.976 L 583.831 295.976 Z " fill-rule="evenodd" fill="rgb(233,232,230)"/><path d=" M 597.54 311.946 C 598.685 311.32 598.822 310.098 600.289 309.675 L 600.234 311.599 L 600.403 311.194 C 600.424 311.108 600.449 310.838 600.454 310.742 C 600.465 310.539 600.462 310.137 600.435 309.941 C 600.383 309.561 600.2 308.931 600.124 308.597 L 599.71 308.637 C 599.429 309.1 598.97 309.888 598.66 310.313 C 598.36 310.725 597.713 311.508 597.54 311.945 L 597.54 311.946 Z " fill-rule="evenodd" fill="rgb(197,197,197)"/><path d=" M 600.805 301.68 C 600.736 302.198 600.762 301.886 600.849 302.412 C 601.365 302.556 601.278 302.865 601.585 302.865 C 602.385 302.865 601.883 302.439 602.888 302.412 C 602.028 301.968 603.032 302.356 602.744 301.993 C 602.526 301.719 602.6 302.095 601.873 301.504 C 601.616 301.295 602.07 301.549 601.619 301.317 C 601.397 301.203 601.158 301.166 600.848 301.166 L 600.805 301.68 L 600.805 301.68 Z " fill-rule="evenodd" fill="rgb(206,206,206)"/><path d=" M 600.64 294.955 C 600.807 295.142 600.747 295.084 600.829 295.256 C 601.11 295.385 601.379 295.51 601.513 295.794 C 601.838 295.902 602.167 296.106 602.316 296.341 C 602.622 296.456 602.488 296.403 602.779 296.485 C 603.145 295.729 602.448 296.157 603.008 295.845 C 602.8 295.512 602.591 295.477 602.354 295.176 C 602.133 295.104 602.198 295.125 602.071 294.929 C 601.706 294.827 601.752 294.841 601.548 294.501 C 601.305 294.448 601.589 294.547 601.354 294.413 C 601.329 294.399 601.254 294.348 601.23 294.332 C 601.049 294.215 601.169 294.253 600.977 294.163 C 600.92 294.346 600.88 294.274 600.951 294.419 L 601.175 294.851 C 601.188 294.83 601.208 294.944 601.222 294.999 L 600.64 294.955 L 600.64 294.955 Z " fill-rule="evenodd" fill="rgb(33,32,30)"/><path d=" M 608.722 288.549 L 610.647 288.853 C 611.18 289.082 610.886 288.686 610.965 289.332 L 610.226 289.396 C 610.696 289.737 612.071 289.552 612.688 289.427 C 613.046 289.135 612.272 289.26 613.072 289.194 C 612.499 289.12 612.597 288.974 612.056 288.832 C 611.714 288.742 611.306 288.724 610.945 288.675 L 608.84 288.306 L 608.722 288.549 L 608.722 288.549 Z " fill-rule="evenodd" fill="rgb(30,30,29)"/><path d=" M 596.689 307.178 C 596.74 307.858 596.732 308.189 597.11 308.641 C 597.338 308.914 597.304 308.894 597.623 309.036 C 598.069 309.233 598.112 309.056 598.186 309.492 L 598.317 309.306 C 598.331 309.282 598.397 309.165 598.414 309.133 C 598.414 309.132 598.512 308.913 598.553 308.83 C 598.694 308.543 598.755 308.422 598.979 308.144 C 597.892 308.461 597.075 308.204 596.953 307.097 L 596.689 307.178 L 596.689 307.178 Z " fill-rule="evenodd" fill="rgb(220,218,218)"/><path d=" M 584.741 293.054 L 584.969 293.033 C 585.158 292.884 584.946 293.085 585.234 293.001 C 585.481 292.929 585.53 292.687 585.753 292.442 L 587.414 292.909 L 587.587 292.564 C 587.128 292.332 586.51 291.855 585.834 291.875 C 585.149 291.896 584.724 292.436 584.741 293.054 L 584.741 293.054 Z " fill-rule="evenodd" fill="rgb(244,242,242)"/><path d=" M 587.651 294.995 C 587.515 294.699 587.272 294.631 586.984 294.407 C 586.642 294.141 586.553 293.968 586.184 293.912 C 586.018 294.233 585.895 295.471 586.001 295.719 C 586.445 295.71 586.059 295.658 586.889 295.32 C 586.962 295.29 587.203 295.186 587.324 295.132 C 587.684 294.975 587.517 295.153 587.651 294.995 L 587.651 294.995 Z " fill-rule="evenodd" fill="rgb(177,175,173)"/><path d=" M 582.142 299.775 L 582.216 299.994 C 582.388 299.813 582.501 299.688 582.681 299.532 L 583.039 299.21 C 584.167 298.068 582.662 298.836 584.082 298.225 L 584.163 298.05 C 583.416 297.787 583.353 298.313 583.006 298.447 C 582.504 297.855 583.067 298.551 582.83 297.965 C 582.632 298.133 582.675 298.072 582.522 298.364 C 582.454 298.493 582.41 298.623 582.356 298.761 C 582.19 299.189 582.101 299.297 582.142 299.775 L 582.142 299.775 Z " fill-rule="evenodd" fill="rgb(229,228,226)"/><path d=" M 612.687 297.621 C 612.594 298.097 612.693 297.655 612.68 298.082 C 612.68 298.096 612.502 298.622 612.8 298.277 C 612.756 298.302 612.697 298.285 612.671 298.357 L 612.145 298.966 C 611.759 299.3 611.48 299.46 611.885 299.687 C 612.039 299.624 611.908 299.713 612.072 299.579 C 612.546 299.191 613.681 297.705 613.899 297.112 L 612.687 297.621 L 612.687 297.621 Z " fill-rule="evenodd" fill="rgb(233,232,230)"/><path d=" M 582.142 299.775 C 581.983 299.977 581.979 299.913 581.993 300.31 C 582.002 300.547 582.006 300.527 582.1 300.657 C 582.406 300.567 582.404 300.478 582.605 300.257 C 583.064 299.751 583.09 300.015 583.61 299.107 C 583.688 298.969 583.731 298.878 583.826 298.743 C 583.84 298.722 583.859 298.695 583.874 298.675 L 584.107 298.417 L 584.082 298.225 C 582.662 298.836 584.167 298.068 583.039 299.21 L 582.681 299.532 C 582.501 299.688 582.388 299.813 582.216 299.994 L 582.142 299.775 Z " fill-rule="evenodd" fill="rgb(223,222,220)"/><path d=" M 608.74 288.741 C 608.952 289.238 609.343 289.294 609.969 289.456 L 610.226 289.396 L 610.965 289.332 C 610.886 288.686 611.18 289.082 610.647 288.853 L 608.722 288.549 L 608.74 288.741 L 608.74 288.741 Z " fill-rule="evenodd" fill="rgb(20,20,20)"/><path d=" M 614.084 288.838 L 614.438 288.668 L 614.409 288.533 L 613.575 288.091 C 613.662 287.753 613.631 287.936 613.667 287.607 L 613.368 287.525 C 613.255 287.829 613.28 287.553 612.657 287.717 C 612.35 287.797 612.171 287.882 612.016 288.073 C 612.673 288.405 613.818 288.343 614.084 288.838 L 614.084 288.838 Z " fill-rule="evenodd" fill="rgb(71,70,69)"/><path d=" M 582.1 300.657 L 582.281 301.019 C 582.588 300.94 582.703 300.875 583.088 300.874 C 583.167 300.56 583.296 300.276 583.422 299.954 L 583.866 299.19 L 584.107 298.417 L 583.874 298.675 C 583.858 298.695 583.84 298.722 583.825 298.743 C 583.731 298.878 583.688 298.97 583.61 299.107 C 583.09 300.015 583.064 299.752 582.605 300.257 C 582.404 300.478 582.405 300.568 582.1 300.657 L 582.1 300.657 Z " fill-rule="evenodd" fill="rgb(210,210,210)"/><path d=" M 599.862 290.347 C 599.789 291.28 599.992 291.061 600.34 291.502 L 601.133 291.491 C 601.184 290.921 600.828 290.82 600.556 290.604 C 600.039 290.193 600.497 290.354 599.968 290.218 L 599.862 290.347 L 599.862 290.347 Z " fill-rule="evenodd" fill="rgb(40,40,38)"/><path d=" M 600.002 294.064 C 600.189 294.486 600.362 294.692 600.64 294.955 L 601.222 294.999 C 601.208 294.944 601.188 294.83 601.175 294.851 L 600.951 294.419 C 600.88 294.274 600.92 294.346 600.977 294.163 C 600.791 293.829 600.686 293.587 600.116 293.647 L 600.002 294.064 L 600.002 294.064 Z " fill-rule="evenodd" fill="rgb(36,36,35)"/><path d=" M 599.968 290.218 C 600.497 290.354 600.038 290.193 600.556 290.604 C 600.828 290.82 601.183 290.921 601.132 291.491 L 601.584 291.361 L 601.709 291.033 C 601.186 290.914 601.535 291.09 601.377 290.712 C 601.162 290.195 600.91 290.007 600.209 290.05 C 599.933 290.053 600.103 289.915 599.968 290.218 L 599.968 290.218 Z " fill-rule="evenodd" fill="rgb(48,48,46)"/><path d=" M 600.21 289.839 L 600.21 290.05 C 600.91 290.008 601.163 290.196 601.378 290.712 C 601.535 291.09 601.186 290.914 601.71 291.033 L 601.766 290.393 C 601.44 289.871 601.302 289.794 600.566 289.779 L 600.21 289.84 L 600.21 289.839 Z " fill-rule="evenodd" fill="rgb(56,56,54)"/><path d=" M 614.409 288.533 L 614.388 288.038 C 614.016 287.775 614.112 287.765 613.667 287.607 C 613.631 287.936 613.662 287.753 613.575 288.091 L 614.409 288.533 L 614.409 288.533 Z " fill-rule="evenodd" fill="rgb(81,80,77)"/><path d=" M 596.689 307.178 L 596.953 307.097 L 596.794 306.849 L 596.689 307.178 Z " fill-rule="evenodd" fill="rgb(228,131,124)"/></g><path d=" M 613.429 327.918 L 614.94 327.869 L 614.98 321.243 C 615.209 321.497 615.722 322.44 615.884 322.803 L 618.326 327.302 C 618.503 327.606 618.405 327.532 618.662 327.629 C 619.017 327.265 620.135 325.05 620.481 324.433 C 620.852 323.77 621.94 321.593 622.252 321.235 L 622.273 327.865 L 623.797 327.916 L 623.799 317.918 L 622.193 317.911 C 621.573 318.928 620.979 320.163 620.377 321.276 C 620.027 321.922 618.909 324.391 618.569 324.522 C 618.325 324.211 617.838 323.237 617.681 322.863 L 615.036 317.908 L 613.404 317.936 L 613.429 327.918 L 613.429 327.918 Z  M 603.305 323.542 C 602.844 321.338 604.495 319.562 606.212 319.239 C 610.842 318.369 612.231 325.542 607.48 326.429 C 605.31 326.833 603.66 325.236 603.305 323.542 L 603.305 323.542 Z  M 602.26 325.487 C 602.41 325.584 602.552 325.878 602.701 326.07 C 602.912 326.342 603.043 326.426 603.322 326.65 C 604.875 327.898 606.667 328.535 608.73 327.695 C 610.414 327.009 611.731 325.592 612.034 323.769 C 612.182 322.878 611.965 322.2 612.022 321.514 L 611.943 321.385 C 611.901 321.303 611.885 321.273 611.849 321.184 C 611.098 319.337 610.003 318.32 608.037 317.763 C 607.974 317.745 607.89 317.722 607.831 317.696 C 607.632 317.608 607.73 317.657 607.666 317.594 C 607.136 317.7 606.5 317.605 605.965 317.699 C 603.696 318.097 601.732 320.012 601.622 322.429 C 601.552 323.963 601.857 324.341 602.26 325.487 L 602.26 325.487 Z  M 581.731 326.494 L 581.729 319.221 C 584.577 318.831 586.393 320.108 586.424 322.8 C 586.456 325.586 584.596 326.917 581.731 326.494 L 581.731 326.494 Z  M 580.123 328.04 C 584.041 328.248 588.115 327.741 588.132 322.893 C 588.149 318.161 584.29 317.415 580.133 317.715 L 580.123 328.04 Z  M 600.733 325.587 C 600.177 325.413 600.226 326.015 598.963 326.352 C 598.173 326.562 597.332 326.487 596.638 326.202 C 595.417 325.702 594.405 324.604 594.336 322.98 C 594.228 320.415 596.674 318.843 598.75 319.274 C 599.767 319.485 599.968 319.916 600.579 320.178 C 600.866 319.815 601.332 319.526 601.564 319.095 C 600.737 317.935 598.756 317.586 597.331 317.673 C 595.792 318.159 594.679 318.272 593.546 320.104 C 591.827 322.885 593.016 327.009 596.886 327.91 C 598.781 328.351 600.651 327.568 601.592 326.59 C 601.467 326.385 601.357 326.296 601.173 326.117 C 601.011 325.96 600.809 325.801 600.733 325.587 L 600.733 325.587 Z  M 574.22 326.533 L 574.193 328.048 C 579.454 328.141 578.719 324.717 578.719 321.504 C 578.719 320.265 578.759 318.959 578.71 317.728 L 577.067 317.696 C 576.733 324.41 578.285 326.442 574.22 326.533 Z  M 590.047 325.845 C 588.848 326.477 589.733 328.074 590.873 327.622 C 592.03 327.163 591.333 325.168 590.047 325.845 Z " fill-rule="evenodd" fill="rgb(227,28,25)"/></g></svg>