<?xml version="1.0" encoding="UTF-8" standalone="no"?><!-- Generator: Gravit.io --><svg xmlns="http://www.w3.org/2000/svg" xmlns:xlink="http://www.w3.org/1999/xlink" style="isolation:isolate" viewBox="467.638 88.051 80 80" width="80pt" height="80pt"><g><circle vector-effect="non-scaling-stroke" cx="507.63779527559063" cy="128.05121442924417" r="40" fill="rgb(102,102,102)" fill-opacity="0.1"/><path d=" M 479.291 115.743 L 479.291 140.36 L 520.379 140.36 L 520.379 139.405 L 480.246 139.405 L 480.246 116.698 L 535.984 116.698 L 535.984 115.743 L 479.291 115.743 Z " fill="rgb(102,102,102)"/><path d=" M 489.735 130.334 L 489.735 124.038 L 489.735 123.948 L 489.645 123.948 L 487.586 123.948 L 487.497 123.948 L 487.497 124.038 L 487.497 132.064 L 487.497 132.184 L 487.586 132.184 L 493.226 132.184 L 493.315 132.184 L 493.315 132.064 L 493.315 130.453 L 493.315 130.334 L 493.226 130.334 L 489.735 130.334 Z " fill="rgb(102,102,102)"/><path d=" M 500.387 129.26 L 497.94 129.26 L 499.194 125.948 L 500.387 129.26 Z  M 500.447 124.008 L 500.417 123.948 L 500.357 123.948 L 498.09 123.948 L 498.03 123.948 L 498 124.008 L 494.569 132.035 L 494.509 132.184 L 494.658 132.184 L 496.747 132.184 L 496.806 132.184 L 496.836 132.124 L 497.314 130.841 L 500.924 130.841 L 501.402 132.124 L 501.431 132.184 L 501.491 132.184 L 503.669 132.184 L 503.818 132.184 L 503.759 132.035 L 500.447 124.008 Z " fill="rgb(102,102,102)"/><path d=" M 532.374 130.513 L 527.928 130.513 L 527.928 128.902 L 531.837 128.902 L 531.926 128.902 L 531.926 128.782 L 531.926 127.32 L 531.926 127.231 L 531.837 127.231 L 527.928 127.231 L 527.928 125.619 L 532.254 125.619 L 532.344 125.619 L 532.344 125.53 L 532.344 124.038 L 532.344 123.948 L 532.254 123.948 L 525.78 123.948 L 525.69 123.948 L 525.69 124.038 L 525.69 132.094 L 525.69 132.184 L 525.78 132.184 L 532.374 132.184 L 532.463 132.184 L 532.463 132.094 L 532.463 130.602 L 532.463 130.513 L 532.374 130.513 Z " fill="rgb(102,102,102)"/><path d=" M 513.098 126.902 C 513.098 127.738 512.621 128.215 511.785 128.215 L 510.204 128.215 L 510.204 125.619 L 511.785 125.619 C 512.591 125.619 513.098 126.097 513.098 126.902 Z  M 513.725 129.498 L 513.844 129.439 C 514.739 128.931 515.217 128.036 515.217 126.843 C 515.217 124.993 513.993 123.978 511.755 123.978 L 508.026 123.978 L 507.936 123.978 L 507.936 124.068 L 507.936 132.094 L 507.936 132.184 L 508.026 132.184 L 510.085 132.184 L 510.174 132.184 L 510.174 132.094 L 510.174 129.886 L 511.726 129.886 L 512.83 132.124 L 512.86 132.184 L 512.919 132.184 L 515.217 132.184 L 515.396 132.184 L 515.306 132.035 L 513.725 129.498 Z " fill="rgb(102,102,102)"/><path d=" M 522.229 128.663 C 522.229 129.737 521.572 130.453 520.617 130.453 C 519.603 130.453 518.917 129.737 518.917 128.663 L 518.917 123.948 L 516.768 123.948 L 516.768 128.663 C 516.768 130.781 518.26 132.184 520.617 132.184 C 522.945 132.184 524.407 130.841 524.407 128.663 L 524.407 123.948 L 522.259 123.948 L 522.259 128.663 L 522.229 128.663 Z " fill="rgb(102,102,102)"/><path d=" M 535.984 131.199 C 535.984 131.736 535.537 132.184 535 132.184 C 534.462 132.184 534.015 131.736 534.015 131.199 C 534.015 130.662 534.462 130.214 535 130.214 C 535.537 130.214 535.984 130.632 535.984 131.199 Z " fill="rgb(102,102,102)"/></g></svg>