<?xml version="1.0" encoding="UTF-8" standalone="no"?><!-- Generator: Gravit.io -->
<svg xmlns="http://www.w3.org/2000/svg"
     style="isolation:isolate"
     viewBox="477.977 12.779 80 80"
     width="80pt"
     height="80pt">
    <g>
        <circle vector-effect="non-scaling-stroke"
                cx="517.9770909090903"
                cy="52.7787768205342"
                r="39.999999999999886"
                fill="rgb(254,241,234)"/>
        <g>
            <path d=" M 515.882 28.885 C 513.262 29.114 510.583 29.809 508.201 30.886 C 505.344 32.166 503.258 33.616 500.952 35.914 C 498.883 37.983 497.73 39.593 496.424 42.23 C 495.153 44.808 494.449 47.156 494.084 50.03 C 493.923 51.293 493.949 54.625 494.127 55.88 C 494.61 59.263 495.636 62.188 497.323 65.062 C 497.772 65.825 497.874 65.978 498.578 66.944 C 499.672 68.445 501.469 70.319 502.953 71.514 C 504.597 72.837 507.124 74.295 509.184 75.109 C 510.922 75.804 513.127 76.355 515.161 76.618 C 516.255 76.762 519.655 76.762 520.757 76.618 C 525.505 76.016 529.846 74.134 533.432 71.116 C 534.424 70.285 536.001 68.674 536.764 67.707 C 542.445 60.56 543.589 50.7 539.672 42.569 C 538.401 39.933 537.002 37.957 535.009 35.948 C 533.509 34.456 532.796 33.862 531.228 32.819 C 528.193 30.793 524.717 29.487 521.096 29.004 C 519.858 28.843 517.094 28.775 515.882 28.885 Z  M 521.266 30.428 C 524.471 30.962 527.235 31.971 529.863 33.599 C 533.534 35.863 536.323 38.966 538.265 42.908 C 539.087 44.57 539.46 45.579 539.876 47.232 C 540.418 49.403 540.512 50.225 540.512 52.87 C 540.503 54.905 540.478 55.338 540.317 56.304 C 539.308 62.019 536.51 66.834 532.118 70.378 C 529.049 72.862 525.378 74.473 521.266 75.143 C 520.198 75.313 517.01 75.38 515.763 75.262 C 511.414 74.838 507.26 73.142 503.758 70.353 C 502.69 69.505 501.003 67.792 500.146 66.69 C 497.772 63.638 496.314 60.289 495.61 56.304 C 495.432 55.338 495.415 54.922 495.407 52.87 C 495.407 50.225 495.5 49.403 496.043 47.232 C 496.467 45.554 496.84 44.562 497.696 42.824 C 500.401 37.347 505.098 33.26 510.905 31.327 C 512.287 30.869 514.314 30.445 515.84 30.284 C 516.628 30.208 520.528 30.31 521.266 30.428 Z "
                  fill="rgb(243,110,42)"/>
            <path d=" M 503.385 44.63 C 503.258 44.655 503.249 45.376 503.249 52.786 C 503.249 58.11 503.275 60.916 503.334 60.942 C 503.377 60.95 505.098 60.959 507.141 60.942 L 510.863 60.925 L 511.083 60.348 C 511.202 60.035 511.304 59.746 511.304 59.712 C 511.304 59.679 509.795 59.653 507.955 59.653 L 504.606 59.653 L 504.606 52.158 L 504.606 44.663 L 504.063 44.63 C 503.767 44.621 503.461 44.613 503.385 44.63 Z "
                  fill="rgb(243,110,42)"/>
            <path d=" M 519.477 44.63 C 518.968 44.655 518.951 44.655 518.833 44.969 C 518.756 45.138 518.231 46.351 517.663 47.656 C 517.086 48.962 516.348 50.658 516.009 51.429 C 515.67 52.201 514.61 54.625 513.644 56.83 C 512.686 59.026 511.897 60.849 511.897 60.882 C 511.897 60.908 512.186 60.925 512.533 60.908 L 513.178 60.882 L 514.212 58.525 L 515.246 56.177 L 515.882 55.846 C 517.747 54.871 520.13 54.405 521.986 54.651 C 522.885 54.77 523.928 55.049 524.649 55.363 L 525.115 55.575 L 523.886 57.593 C 523.207 58.704 522.58 59.721 522.478 59.857 L 522.3 60.111 L 522.521 60.492 C 522.639 60.713 522.817 60.899 522.919 60.925 C 523.021 60.95 525.005 60.95 527.345 60.925 L 531.584 60.882 L 531.821 60.289 L 532.059 59.695 L 528.116 59.653 L 524.182 59.611 L 525.302 57.788 C 525.912 56.787 527.09 54.88 527.921 53.549 C 528.744 52.218 530.151 49.945 531.041 48.496 L 532.669 45.85 L 532.669 45.248 L 532.669 44.646 L 527.65 44.638 C 524.886 44.638 522.538 44.621 522.436 44.613 C 522.326 44.596 522.241 44.613 522.241 44.638 C 522.241 44.663 522.343 44.969 522.461 45.299 L 522.69 45.918 L 526.828 45.918 C 529.108 45.918 530.974 45.944 530.974 45.978 C 530.974 46.02 530.634 46.596 530.21 47.275 C 529.795 47.953 529.278 48.792 529.066 49.14 C 528.854 49.488 528.04 50.802 527.268 52.065 C 526.505 53.32 525.836 54.388 525.802 54.43 C 525.759 54.473 525.463 54.388 525.098 54.227 L 524.471 53.956 L 524.064 53.006 C 523.835 52.489 523.114 50.827 522.444 49.31 C 521.783 47.792 521.054 46.122 520.825 45.588 C 520.359 44.511 520.46 44.579 519.477 44.63 Z  M 520.562 47.97 C 521.011 49.013 521.741 50.692 522.181 51.7 L 522.987 53.549 L 522.512 53.481 C 522.249 53.447 521.418 53.422 520.672 53.43 C 519.214 53.43 518.154 53.6 516.832 54.015 C 516.476 54.125 516.17 54.202 516.153 54.185 C 516.136 54.168 516.654 52.938 517.306 51.455 C 517.959 49.971 518.748 48.156 519.07 47.419 C 519.392 46.69 519.672 46.088 519.697 46.088 C 519.723 46.088 520.113 46.936 520.562 47.97 Z "
                  fill="rgb(243,110,42)"/>
        </g>
    </g>
</svg>
