<?xml version="1.0" encoding="UTF-8" standalone="no"?><!-- Generator: Gravit.io -->
<svg xmlns="http://www.w3.org/2000/svg"
     style="isolation:isolate" viewBox="736.697 247.051 80 80" width="80pt" height="80pt">
    <g>
        <circle vector-effect="non-scaling-stroke"
                cx="776.6969696969695"
                cy="287.05121442924417"
                r="40"
                fill="rgb(237,235,244)"/>
        <path d=" M 766.537 272.464 C 766.413 272.746 766.13 273.016 765.9 273.297 C 765.623 273.636 765.505 273.8 765.279 274.17 C 764.919 274.761 764.556 275.487 764.338 276.215 C 763.904 277.666 763.78 279.432 764.027 280.964 L 764.244 281.592 C 764.484 281.388 769.159 279.556 769.747 279.369 C 769.726 278.174 770.013 277.162 770.566 276.364 C 770.867 275.93 771.119 275.7 771.483 275.389 C 771.844 275.082 772.295 274.886 772.561 274.601 L 767.081 272.372 L 766.537 272.464 L 766.537 272.464 Z  M 780.976 274.92 C 781.905 275.873 782.939 275.88 784.085 278.773 L 789.843 278.775 C 789.803 277.093 787.96 273.684 786.573 272.688 C 785.713 272.924 784.647 273.459 783.767 273.805 C 782.877 274.153 781.823 274.562 780.976 274.92 L 780.976 274.92 Z "
              fill-rule="evenodd"
              fill="rgb(238,86,73)"/>
        <path d=" M 766.41 301.418 C 766.424 301.685 766.464 301.586 766.727 301.785 C 768.811 303.368 770.042 303.621 770.562 303.976 C 774.12 304.915 776.311 305.449 780.328 304.851 C 782.73 304.493 784.434 303.83 786.319 302.585 C 786.904 302.198 787.388 301.606 787.876 301.379 L 787.876 301.227 L 782.487 299.107 C 780.571 299.823 779.72 300.231 777.272 300.146 C 776.335 300.113 775.395 299.995 774.544 299.756 C 773.932 299.585 772.725 298.984 772.416 298.94 C 770.977 299.347 769.201 300.209 767.756 300.755 C 767.114 300.998 766.41 301.147 766.41 301.418 L 766.41 301.418 Z "
              fill-rule="evenodd"
              fill="rgb(69,49,144)"/>
        <path d=" M 771.992 269.523 C 771.662 269.644 771.065 269.882 770.676 269.876 C 770.362 270.184 769.097 270.667 768.633 270.941 C 767.93 271.355 767.453 271.776 766.911 272.192 C 767.012 272.387 766.758 272.35 767.081 272.372 L 772.561 274.601 C 773.219 274.448 773.776 274.146 774.567 273.988 C 775.271 273.848 776.215 273.787 776.964 273.829 C 779.438 273.968 779.566 274.47 780.976 274.92 C 781.823 274.562 782.877 274.153 783.767 273.805 C 784.647 273.46 785.713 272.924 786.573 272.688 C 786.317 272.222 784.629 271.08 783.879 270.686 C 782.781 270.109 781.776 269.715 780.452 269.412 C 777.297 268.692 775.05 269.035 771.992 269.523 L 771.992 269.523 Z "
              fill-rule="evenodd"
              fill="rgb(43,185,230)"/>
        <path d=" M 784.959 295.405 C 784.8 296.302 784.575 296.979 784.122 297.598 C 783.867 297.946 783.63 298.16 783.352 298.42 C 783.008 298.743 782.773 298.832 782.487 299.107 L 787.876 301.226 C 788.253 300.955 788.87 300.079 789.214 299.495 C 789.587 298.861 789.893 298.093 790.11 297.303 C 790.532 295.763 790.613 293.393 790.141 291.84 L 790.012 291.799 C 789.819 292.089 789.829 292.012 789.453 292.163 C 789.229 292.253 789.024 292.33 788.806 292.414 C 787.988 292.732 785.507 293.813 784.991 293.887 C 785.123 294.598 785.289 294.765 784.959 295.405 L 784.959 295.405 Z "
              fill-rule="evenodd"
              fill="rgb(95,176,71)"/>
        <path d=" M 763.908 298.319 L 764.181 298.906 C 764.443 299.109 764.495 299.287 764.671 299.559 C 764.852 299.837 764.975 299.997 765.178 300.249 C 765.484 300.625 766.031 301.174 766.41 301.418 C 766.411 301.147 767.114 300.998 767.756 300.755 C 769.201 300.209 770.977 299.347 772.416 298.94 L 771.374 298.14 C 770.89 297.773 770.803 297.667 770.434 297.186 C 769.394 295.829 769.623 295.651 769.101 294.801 L 762.932 294.777 C 763.141 296.355 763.489 297.02 763.908 298.319 L 763.908 298.319 Z "
              fill-rule="evenodd"
              fill="rgb(92,68,154)"/>
        <path d=" M 772.485 288.565 C 773.478 289.055 777.248 289.311 777.841 289.793 C 778.325 289.765 779.771 290.06 780.191 290.23 C 781.576 290.419 782.835 291.012 783.735 291.659 C 784.652 292.318 785.053 293.792 784.959 295.405 C 785.289 294.765 785.123 294.598 784.991 293.887 C 785.507 293.813 787.988 292.732 788.806 292.414 C 789.024 292.33 789.229 292.253 789.453 292.163 C 789.828 292.012 789.819 292.089 790.012 291.799 L 777.236 286.746 C 776.64 286.79 775.443 287.4 774.852 287.623 C 773.978 287.952 773.303 288.231 772.485 288.565 L 772.485 288.565 Z "
              fill-rule="evenodd"
              fill="rgb(118,189,67)"/>
        <path d=" M 764.266 282.321 C 764.551 282.584 764.785 283.569 765.454 284.527 C 765.882 285.138 766.506 285.756 767.07 286.2 C 768.659 287.453 771.317 288.29 771.442 288.408 L 771.792 288.464 L 772.485 288.565 C 773.303 288.231 773.978 287.952 774.852 287.623 C 775.443 287.4 776.64 286.79 777.236 286.746 L 777.236 286.644 C 776.595 286.592 771.665 284.532 770.72 284.144 C 768.563 283.257 766.381 282.407 764.244 281.592 L 764.266 282.321 L 764.266 282.321 Z "
              fill-rule="evenodd"
              fill="rgb(244,126,47)"/>
        <path d=" M 764.244 281.592 C 766.381 282.407 768.563 283.257 770.72 284.144 C 771.665 284.532 776.595 286.592 777.236 286.644 C 777.725 286.542 781.085 285.181 781.349 284.965 C 778.977 284.452 776.584 283.968 774.209 283.434 C 771.772 282.886 769.912 282.057 769.747 279.369 C 769.159 279.556 764.484 281.388 764.244 281.592 L 764.244 281.592 Z "
              fill-rule="evenodd"
              fill="rgb(226,47,36)"/>
        <path d=" M 777.236 286.644 L 777.236 286.746 L 790.012 291.799 L 790.141 291.84 C 789.853 290.76 789.448 289.913 788.871 289.113 C 788.365 288.411 787.616 287.682 786.902 287.195 C 785.203 286.038 783.639 285.501 781.349 284.965 C 781.085 285.181 777.725 286.542 777.236 286.644 L 777.236 286.644 Z "
              fill-rule="evenodd"
              fill="rgb(151,200,59)"/>
    </g>
</svg>
