<?xml version="1.0" encoding="UTF-8" standalone="no"?><!-- Generator: Gravit.io -->
<svg xmlns="http://www.w3.org/2000/svg"
     style="isolation:isolate"
     viewBox="695.763 24.961 80 80.011"
     width="80pt"
     height="80.011pt">
    <g>
        <path d=" M 733.535 24.984 C 733.343 25 732.743 25.053 732.19 25.092 C 725.013 25.691 717.774 28.45 711.904 32.83 C 710.267 34.052 709.091 35.074 707.478 36.687 C 704.189 39.976 701.922 43.127 699.886 47.222 C 697.703 51.618 696.443 56.005 695.913 61.015 C 695.713 62.86 695.713 67.086 695.913 68.93 C 696.443 73.94 697.703 78.328 699.886 82.723 C 701.922 86.819 704.189 89.969 707.478 93.258 C 710.767 96.547 713.917 98.814 718.013 100.85 C 722.408 103.032 726.796 104.293 731.806 104.823 C 733.65 105.023 737.876 105.023 739.721 104.823 C 744.731 104.293 749.118 103.032 753.514 100.85 C 757.602 98.822 760.767 96.539 764.049 93.258 C 767.337 89.969 769.604 86.819 771.641 82.723 C 773.823 78.328 775.083 73.94 775.613 68.93 C 775.813 67.086 775.813 62.86 775.613 61.015 C 775.083 56.005 773.823 51.618 771.641 47.222 C 769.612 43.134 767.33 39.968 764.049 36.687 C 760.76 33.398 757.609 31.132 753.514 29.095 C 749.149 26.928 744.7 25.645 739.797 25.13 C 738.714 25.015 734.365 24.915 733.535 24.984 L 733.535 24.984 L 733.535 24.984 Z "
              fill="rgb(254,87,33)"
              fill-opacity="0.2"/>
        <path d=" M 734.872 42.151 C 734.173 42.281 733.312 42.589 732.774 42.911 C 732.182 43.265 731.329 44.095 730.807 44.84 C 730.507 45.263 729.923 46.377 729.693 46.953 C 729.232 48.114 728.763 49.896 728.617 51.064 C 728.502 51.933 728.394 53.393 728.44 53.462 C 728.486 53.546 742.817 53.539 742.863 53.462 C 742.979 53.27 742.633 50.98 742.256 49.412 C 741.826 47.66 741.326 46.377 740.581 45.186 C 739.913 44.095 738.806 43.011 737.992 42.635 C 737.054 42.197 735.74 41.997 734.872 42.151 L 734.872 42.151 L 734.872 42.151 Z  M 737.285 39.684 C 737.907 39.83 738.284 39.953 738.76 40.176 C 738.975 40.268 739.982 40.844 740.105 40.937 C 741.311 41.851 742.494 43.242 743.125 44.471 C 743.232 44.694 743.355 44.894 743.378 44.917 C 743.463 44.978 744.254 46.892 744.469 47.568 C 744.708 48.306 744.976 49.328 745.069 49.866 C 745.322 51.395 745.445 52.332 745.445 52.801 C 745.445 53.116 745.484 53.377 745.537 53.431 C 745.607 53.5 746.944 53.523 751.101 53.523 C 757.187 53.523 756.979 53.508 757.532 54.046 C 757.694 54.199 757.924 54.484 758.032 54.676 C 758.224 54.999 758.239 55.075 758.232 55.944 C 758.232 56.451 758.186 57.35 758.139 57.942 C 758.086 58.533 757.993 59.832 757.924 60.823 C 757.863 61.815 757.771 62.99 757.732 63.436 C 757.686 63.882 757.617 64.796 757.586 65.472 C 757.548 66.148 757.502 66.871 757.479 67.086 C 757.402 67.831 757.248 69.967 757.125 72.004 C 757.087 72.718 757.033 73.433 757.01 73.579 C 756.971 73.833 756.887 74.978 756.741 77.114 C 756.672 78.113 756.557 79.673 756.426 81.378 C 756.387 81.924 756.326 82.846 756.288 83.422 C 756.257 83.999 756.211 84.498 756.188 84.537 C 756.165 84.575 756.119 84.821 756.095 85.09 C 756.065 85.359 755.934 85.912 755.788 86.327 C 755.112 88.333 753.798 89.639 752 90.092 C 751.377 90.254 751.331 90.254 735.625 90.254 C 717.905 90.254 719.35 90.3 718.051 89.654 C 717.198 89.232 716.576 88.632 716.069 87.741 C 715.339 86.473 715.139 85.474 714.939 82.224 C 714.901 81.547 714.831 80.525 714.785 79.957 C 714.747 79.388 714.678 78.351 714.639 77.652 C 714.593 76.952 714.532 76.069 714.486 75.692 C 714.44 75.308 714.355 74.132 714.286 73.08 C 714.217 72.019 714.109 70.521 714.048 69.737 C 713.948 68.461 713.856 67.186 713.633 64.012 C 713.594 63.459 713.525 62.514 713.479 61.899 C 713.441 61.284 713.371 60.262 713.325 59.632 C 713.287 58.994 713.218 58.118 713.172 57.673 C 713.041 56.466 713.041 55.229 713.164 54.876 C 713.302 54.468 713.825 53.923 714.247 53.723 C 714.586 53.562 714.693 53.562 720.103 53.539 C 724.775 53.523 725.62 53.5 725.697 53.408 C 725.751 53.347 725.82 52.893 725.858 52.394 C 726.027 50.311 726.35 48.728 726.98 46.876 C 728.24 43.165 730.4 40.721 733.151 39.899 C 734.226 39.576 734.372 39.561 735.517 39.546 C 736.347 39.538 736.77 39.576 737.285 39.684 L 737.285 39.684 L 737.285 39.684 L 737.285 39.684 L 737.285 39.684 Z  M 734.687 58.917 C 733.243 59.209 732.682 59.416 731.79 60 C 730.868 60.599 730.108 61.468 729.685 62.397 C 729.27 63.312 729.001 64.618 729.139 65.056 C 729.185 65.202 729.247 65.486 729.278 65.702 C 729.301 65.909 729.47 66.362 729.639 66.701 C 730.015 67.438 731.037 68.506 731.89 69.067 C 732.574 69.513 733.688 70.12 733.842 70.12 C 733.904 70.12 734.157 70.22 734.395 70.343 C 734.634 70.466 735.118 70.658 735.471 70.773 C 736.962 71.265 738.43 71.926 739.183 72.441 C 739.398 72.587 739.744 72.825 739.951 72.963 C 741.734 74.177 742.318 76.244 741.388 78.073 C 740.835 79.172 739.259 80.117 737.477 80.425 C 736.708 80.555 734.979 80.471 734.188 80.263 C 732.689 79.879 731.107 79.164 729.977 78.381 C 729.216 77.85 728.993 77.827 728.54 78.25 C 727.948 78.819 728.163 79.249 729.439 80.109 C 731.414 81.439 734.48 82.369 736.416 82.23 C 737.899 82.115 738.13 82.084 738.952 81.831 C 739.713 81.6 739.736 81.593 740.489 81.216 C 741.48 80.724 742.51 79.695 743.071 78.626 C 743.155 78.473 743.309 78.004 743.424 77.589 C 743.593 76.936 743.616 76.752 743.57 76.114 C 743.478 74.6 743.017 73.593 741.88 72.379 C 740.589 71.004 738.752 69.974 735.955 69.067 C 733.65 68.322 731.706 67.054 731.176 65.955 C 730.615 64.803 730.868 63.343 731.79 62.313 C 732.966 61.007 734.926 60.346 736.877 60.592 C 737.799 60.707 739.275 61.199 739.989 61.621 C 741.211 62.351 741.426 62.397 741.795 62.006 C 742.01 61.775 742.095 61.452 742.026 61.13 C 741.987 60.961 741.834 60.807 741.388 60.507 C 740.22 59.708 739.298 59.339 737.669 59.016 C 736.631 58.817 735.394 58.771 734.687 58.917 L 734.687 58.917 Z "
              fill-rule="evenodd"
              fill="rgb(254,87,33)"/>
    </g>
</svg>
