<?xml version="1.0" standalone="no"?><!-- Generator: Gravit.io -->
<svg xmlns="http://www.w3.org/2000/svg"
     style="isolation:isolate" viewBox="864.85 444.344 80 80" width="80" height="80">
    <g>
        <circle vector-effect="non-scaling-stroke"
                cx="904.849788976378"
                cy="484.3441166915294"
                r="40"
                fill="rgb(244,249,236)"/>
        <path d=" M 899.983 481.85 L 899.983 482.916 L 900.939 482.916 L 901.895 482.916 L 901.895 481.85 L 901.895 480.784 L 900.939 480.784 L 899.983 480.784 L 899.983 481.85 L 899.983 481.85 L 899.983 481.85 L 899.983 481.85 L 899.983 481.85 Z  M 899.983 485.599 L 899.983 486.665 L 900.939 486.665 L 901.895 486.665 L 901.895 485.599 L 901.895 484.533 L 900.939 484.533 L 899.983 484.533 L 899.983 485.599 L 899.983 485.599 L 899.983 485.599 L 899.983 485.599 L 899.983 485.599 Z  M 907.824 483.846 L 907.824 483.846 L 907.824 483.846 Q 907.824 482.757 907.394 482.232 L 907.394 482.232 L 907.394 482.232 Q 906.963 481.706 906.086 481.706 L 906.086 481.706 L 905.463 481.706 L 905.463 486.143 L 905.939 486.143 L 905.939 486.143 Q 906.914 486.143 907.369 485.577 L 907.369 485.577 L 907.369 485.577 Q 907.824 485.011 907.824 483.846 L 907.824 483.846 L 907.824 483.846 L 907.824 483.846 L 907.824 483.846 Z  M 893.367 499.235 C 893.367 497.826 894.619 496.682 896.161 496.682 C 897.703 496.682 898.955 497.826 898.955 499.235 C 898.955 500.644 897.703 501.788 896.161 501.788 C 894.619 501.788 893.367 500.644 893.367 499.235 L 893.367 499.235 L 893.367 499.235 L 893.367 499.235 Z  M 910.311 499.235 C 910.311 497.826 911.563 496.682 913.105 496.682 C 914.647 496.682 915.899 497.826 915.899 499.235 C 915.899 500.644 914.647 501.788 913.105 501.788 C 911.563 501.788 910.311 500.644 910.311 499.235 L 910.311 499.235 L 910.311 499.235 Z  M 910.045 483.77 L 910.045 483.77 L 910.045 483.77 Q 910.045 485.753 908.954 486.825 L 908.954 486.825 L 908.954 486.825 Q 907.862 487.898 905.885 487.898 L 905.885 487.898 L 903.323 487.898 L 903.323 479.978 L 906.064 479.978 L 906.064 479.978 Q 907.971 479.978 909.008 480.953 L 909.008 480.953 L 909.008 480.953 Q 910.045 481.928 910.045 483.77 L 910.045 483.77 L 910.045 483.77 L 910.045 483.77 L 910.045 483.77 Z  M 890.427 499.235 C 890.427 496.416 892.996 494.126 896.161 494.126 C 899.325 494.126 901.895 496.416 901.895 499.235 C 901.895 502.055 899.325 504.344 896.161 504.344 C 892.996 504.344 890.427 502.055 890.427 499.235 L 890.427 499.235 L 890.427 499.235 L 890.427 499.235 Z  M 907.371 499.235 C 907.371 496.416 909.94 494.126 913.105 494.126 C 916.269 494.126 918.839 496.416 918.839 499.235 C 918.839 502.055 916.269 504.344 913.105 504.344 C 909.94 504.344 907.371 502.055 907.371 499.235 L 907.371 499.235 L 907.371 499.235 Z  M 920.199 476.502 C 920.199 476.533 920.18 476.557 920.158 476.557 C 920.135 476.557 920.125 476.59 920.136 476.631 C 920.146 476.671 920.14 476.714 920.122 476.725 C 920.103 476.736 920.088 476.786 920.088 476.835 C 920.088 476.885 920.074 476.925 920.056 476.925 C 920.038 476.925 916.189 489.733 916.176 489.844 C 916.162 489.956 916.135 490.046 916.116 490.046 C 916.097 490.046 916.082 490.088 916.082 490.138 C 916.082 490.189 916.064 490.23 916.042 490.23 C 916.017 490.23 916.012 490.271 916.027 490.341 C 916.042 490.41 916.036 490.451 916.012 490.451 C 915.99 490.451 915.972 490.49 915.972 490.539 C 915.972 490.677 916.442 490.671 904.21 490.671 C 895.296 490.671 892.562 490.681 892.551 490.715 C 892.525 490.793 892.412 490.714 892.412 490.617 C 892.412 490.566 892.397 490.524 892.379 490.524 C 892.36 490.524 887.377 476.533 887.377 476.502 C 887.377 476.453 889.224 476.447 903.788 476.447 C 918.351 476.447 920.199 476.453 920.199 476.502 L 920.199 476.502 L 920.199 476.502 L 920.199 476.502 L 920.199 476.502 Z  M 876.415 468.351 C 876.341 468.394 876.273 468.438 876.212 468.484 C 875.79 468.801 875.695 469.408 875.7 469.902 C 875.709 470.744 876.391 471.317 876.415 471.316 C 876.479 471.317 882.282 471.316 882.3 471.316 C 882.317 471.316 890.373 493.405 890.427 493.456 L 904.207 493.456 C 914.912 493.448 917.641 493.437 917.653 493.4 C 917.662 493.375 917.7 493.354 917.739 493.354 C 917.778 493.354 917.81 493.339 917.81 493.321 C 917.81 493.302 917.856 493.277 917.913 493.264 C 917.969 493.252 918.039 493.209 918.068 493.169 C 918.096 493.13 918.138 493.097 918.161 493.097 C 918.23 493.097 923.416 475.972 923.442 475.941 C 923.509 475.86 923.508 474.619 923.441 474.578 C 923.415 474.562 923.102 474.138 923.102 474.082 C 923.102 474.053 922.624 473.778 922.624 473.76 C 922.624 473.741 915.115 473.727 904.562 473.727 C 885.985 473.727 886.384 473.73 886.384 473.613 C 886.384 473.575 886.369 473.544 886.35 473.544 C 886.331 473.544 886.304 473.469 886.29 473.378 C 886.277 473.287 884.657 469.002 884.657 468.976 C 884.657 468.95 884.625 468.906 884.585 468.877 C 884.546 468.849 884.522 468.812 884.532 468.796 C 884.562 468.747 884.27 468.477 884.156 468.449 C 884.098 468.435 884.038 468.405 884.024 468.383 C 883.999 468.344 876.906 468.337 876.415 468.351 L 876.415 468.351 L 876.415 468.351 L 876.415 468.351 L 876.415 468.351 Z  M 890.265 472.024 L 890.265 472.024 L 890.265 472.024 Q 890.265 472.568 889.874 472.881 L 889.874 472.881 L 889.874 472.881 Q 889.483 473.194 888.785 473.194 L 888.785 473.194 L 888.785 473.194 Q 888.142 473.194 887.648 472.953 L 887.648 472.953 L 887.648 472.162 L 887.648 472.162 Q 888.054 472.343 888.336 472.417 L 888.336 472.417 L 888.336 472.417 Q 888.617 472.491 888.851 472.491 L 888.851 472.491 L 888.851 472.491 Q 889.131 472.491 889.281 472.384 L 889.281 472.384 L 889.281 472.384 Q 889.43 472.277 889.43 472.065 L 889.43 472.065 L 889.43 472.065 Q 889.43 471.947 889.365 471.855 L 889.365 471.855 L 889.365 471.855 Q 889.299 471.763 889.171 471.678 L 889.171 471.678 L 889.171 471.678 Q 889.043 471.593 888.65 471.406 L 888.65 471.406 L 888.65 471.406 Q 888.282 471.233 888.098 471.074 L 888.098 471.074 L 888.098 471.074 Q 887.914 470.915 887.804 470.703 L 887.804 470.703 L 887.804 470.703 Q 887.695 470.492 887.695 470.209 L 887.695 470.209 L 887.695 470.209 Q 887.695 469.676 888.056 469.371 L 888.056 469.371 L 888.056 469.371 Q 888.417 469.066 889.054 469.066 L 889.054 469.066 L 889.054 469.066 Q 889.367 469.066 889.652 469.14 L 889.652 469.14 L 889.652 469.14 Q 889.936 469.215 890.246 469.349 L 890.246 469.349 L 889.972 470.011 L 889.972 470.011 Q 889.65 469.879 889.44 469.827 L 889.44 469.827 L 889.44 469.827 Q 889.23 469.775 889.027 469.775 L 889.027 469.775 L 889.027 469.775 Q 888.785 469.775 888.656 469.887 L 888.656 469.887 L 888.656 469.887 Q 888.527 470 888.527 470.181 L 888.527 470.181 L 888.527 470.181 Q 888.527 470.294 888.579 470.378 L 888.579 470.378 L 888.579 470.378 Q 888.631 470.461 888.745 470.54 L 888.745 470.54 L 888.745 470.54 Q 888.859 470.618 889.285 470.821 L 889.285 470.821 L 889.285 470.821 Q 889.848 471.09 890.057 471.361 L 890.057 471.361 L 890.057 471.361 Q 890.265 471.632 890.265 472.024 L 890.265 472.024 Z  M 921.604 471.115 L 921.604 471.115 L 921.604 471.115 Q 921.604 469.822 920.461 469.822 L 920.461 469.822 L 920.008 469.822 L 920.008 472.436 L 920.373 472.436 L 920.373 472.436 Q 921.604 472.436 921.604 471.115 L 921.604 471.115 Z  M 918.484 471.975 L 917.009 471.975 L 917.009 471.288 L 918.484 471.288 L 918.484 471.975 L 918.484 471.975 Z  M 896.011 471.126 L 896.011 471.126 L 896.011 471.126 Q 896.011 471.799 896.267 472.14 L 896.267 472.14 L 896.267 472.14 Q 896.522 472.48 897.03 472.48 L 897.03 472.48 L 897.03 472.48 Q 898.049 472.48 898.049 471.126 L 898.049 471.126 L 898.049 471.126 Q 898.049 469.769 897.036 469.769 L 897.036 469.769 L 897.036 469.769 Q 896.528 469.769 896.269 470.111 L 896.269 470.111 L 896.269 470.111 Q 896.011 470.453 896.011 471.126 L 896.011 471.126 Z  M 900.626 469.822 L 900.626 471.014 L 900.906 471.014 L 900.906 471.014 Q 901.298 471.014 901.493 470.858 L 901.493 470.858 L 901.493 470.858 Q 901.688 470.703 901.688 470.407 L 901.688 470.407 L 901.688 470.407 Q 901.688 470.107 901.525 469.964 L 901.525 469.964 L 901.525 469.964 Q 901.362 469.822 901.013 469.822 L 901.013 469.822 L 900.626 469.822 L 900.626 469.822 Z  M 914.798 471.593 L 914.798 470.884 L 916.391 470.884 L 916.391 472.966 L 916.391 472.966 Q 916.004 473.093 915.662 473.143 L 915.662 473.143 L 915.662 473.143 Q 915.32 473.194 914.963 473.194 L 914.963 473.194 L 914.963 473.194 Q 914.054 473.194 913.574 472.66 L 913.574 472.66 L 913.574 472.66 Q 913.095 472.126 913.095 471.126 L 913.095 471.126 L 913.095 471.126 Q 913.095 470.154 913.651 469.61 L 913.651 469.61 L 913.651 469.61 Q 914.207 469.066 915.193 469.066 L 915.193 469.066 L 915.193 469.066 Q 915.811 469.066 916.385 469.313 L 916.385 469.313 L 916.103 469.995 L 916.103 469.995 Q 915.663 469.775 915.188 469.775 L 915.188 469.775 L 915.188 469.775 Q 914.636 469.775 914.303 470.146 L 914.303 470.146 L 914.303 470.146 Q 913.971 470.516 913.971 471.143 L 913.971 471.143 L 913.971 471.143 Q 913.971 471.796 914.239 472.141 L 914.239 472.141 L 914.239 472.141 Q 914.507 472.486 915.018 472.486 L 915.018 472.486 L 915.018 472.486 Q 915.284 472.486 915.559 472.431 L 915.559 472.431 L 915.559 471.593 L 914.798 471.593 L 914.798 471.593 Z  M 904.158 469.822 L 904.158 471.014 L 904.438 471.014 L 904.438 471.014 Q 904.831 471.014 905.026 470.858 L 905.026 470.858 L 905.026 470.858 Q 905.221 470.703 905.221 470.407 L 905.221 470.407 L 905.221 470.407 Q 905.221 470.107 905.057 469.964 L 905.057 469.964 L 905.057 469.964 Q 904.894 469.822 904.545 469.822 L 904.545 469.822 L 904.158 469.822 L 904.158 469.822 Z  M 894.284 469.124 L 894.284 473.139 L 893.435 473.139 L 893.435 471.406 L 891.845 471.406 L 891.845 473.139 L 890.993 473.139 L 890.993 469.124 L 891.845 469.124 L 891.845 470.698 L 893.435 470.698 L 893.435 469.124 L 894.284 469.124 L 894.284 469.124 Z  M 907.69 473.139 L 906.838 473.139 L 906.838 469.124 L 907.69 469.124 L 907.69 473.139 L 907.69 473.139 Z  M 912.263 469.124 L 912.263 473.139 L 911.181 473.139 L 909.434 470.102 L 909.409 470.102 L 909.409 470.102 Q 909.461 470.906 909.461 471.25 L 909.461 471.25 L 909.461 473.139 L 908.7 473.139 L 908.7 469.124 L 909.774 469.124 L 911.518 472.131 L 911.538 472.131 L 911.538 472.131 Q 911.496 471.349 911.496 471.025 L 911.496 471.025 L 911.496 469.124 L 912.263 469.124 L 912.263 469.124 Z  M 902.548 470.376 L 902.548 470.376 L 902.548 470.376 Q 902.548 471.025 902.143 471.368 L 902.143 471.368 L 902.143 471.368 Q 901.738 471.711 900.991 471.711 L 900.991 471.711 L 900.626 471.711 L 900.626 473.139 L 899.774 473.139 L 899.774 469.124 L 901.057 469.124 L 901.057 469.124 Q 901.787 469.124 902.168 469.438 L 902.168 469.438 L 902.168 469.438 Q 902.548 469.753 902.548 470.376 L 902.548 470.376 Z  M 898.942 471.126 L 898.942 471.126 L 898.942 471.126 Q 898.942 472.123 898.447 472.659 L 898.447 472.659 L 898.447 472.659 Q 897.953 473.194 897.03 473.194 L 897.03 473.194 L 897.03 473.194 Q 896.107 473.194 895.613 472.659 L 895.613 472.659 L 895.613 472.659 Q 895.119 472.123 895.119 471.121 L 895.119 471.121 L 895.119 471.121 Q 895.119 470.118 895.614 469.589 L 895.614 469.589 L 895.614 469.589 Q 896.11 469.061 897.036 469.061 L 897.036 469.061 L 897.036 469.061 Q 897.961 469.061 898.452 469.594 L 898.452 469.594 L 898.452 469.594 Q 898.942 470.126 898.942 471.126 L 898.942 471.126 Z  M 922.488 471.093 L 922.488 471.093 L 922.488 471.093 Q 922.488 472.085 921.924 472.612 L 921.924 472.612 L 921.924 472.612 Q 921.359 473.139 920.294 473.139 L 920.294 473.139 L 919.157 473.139 L 919.157 469.124 L 920.417 469.124 L 920.417 469.124 Q 921.401 469.124 921.944 469.643 L 921.944 469.643 L 921.944 469.643 Q 922.488 470.162 922.488 471.093 L 922.488 471.093 Z  M 906.08 470.376 L 906.08 470.376 L 906.08 470.376 Q 906.08 471.025 905.675 471.368 L 905.675 471.368 L 905.675 471.368 Q 905.27 471.711 904.523 471.711 L 904.523 471.711 L 904.158 471.711 L 904.158 473.139 L 903.306 473.139 L 903.306 469.124 L 904.589 469.124 L 904.589 469.124 Q 905.319 469.124 905.7 469.438 L 905.7 469.438 L 905.7 469.438 Q 906.08 469.753 906.08 470.376 L 906.08 470.376 Z "
              fill-rule="evenodd"
              fill="rgb(143,195,61)"/>
    </g>
</svg>
