<?xml version="1.0" encoding="UTF-8" standalone="no"?><!-- Generator: Gravit.io -->
<svg xmlns="http://www.w3.org/2000/svg"
     style="isolation:isolate"
     viewBox="28.458 24.967 80 80"
     width="80pt"
     height="80pt">
    <g>
        <circle vector-effect="non-scaling-stroke"
                cx="68.45830303030334"
                cy="64.96709611742423"
                r="40"
                fill="rgb(230,245,230)"/>
        <g>
            <path d=" M 77.583 51.996 L 87.03 51.996 L 87.03 73.97 C 87.03 77.271 85.681 80.27 83.507 82.444 C 81.334 84.618 78.334 85.967 75.033 85.967 L 49.886 85.967 L 49.886 51.996 L 59.334 51.996 C 59.597 49.923 60.549 48.066 61.954 46.661 C 63.619 44.997 65.918 43.967 68.458 43.967 C 70.998 43.967 73.298 44.997 74.962 46.661 C 76.367 48.066 77.32 49.923 77.583 51.996 Z  M 61.669 52.071 C 62.748 52.163 63.78 52.34 64.759 52.589 C 66.093 52.929 67.332 53.406 68.458 53.993 C 69.585 53.406 70.824 52.929 72.158 52.589 C 73.137 52.34 74.169 52.163 75.247 52.071 C 75.013 50.611 74.32 49.304 73.32 48.304 C 72.076 47.06 70.357 46.29 68.458 46.29 C 66.559 46.29 64.841 47.06 63.596 48.304 C 62.596 49.304 61.903 50.611 61.669 52.071 Z "
                  fill="rgb(65,65,65)"/>
            <path d=" M 77.013 53.302 L 85.6 53.302 C 85.668 53.302 85.724 53.358 85.724 53.426 L 85.724 73.97 C 85.724 79.85 80.913 84.661 75.033 84.661 L 68.458 84.661 L 68.458 55.48 C 70.77 54.138 73.68 53.302 77.013 53.302 Z "
                  fill-rule="evenodd"
                  fill="rgb(79,157,78)"/>
            <path d=" M 59.903 53.302 L 51.316 53.302 C 51.248 53.302 51.193 53.358 51.193 53.426 C 51.193 63.837 51.193 74.249 51.193 84.661 C 56.948 84.661 62.703 84.661 68.458 84.661 L 68.458 55.48 C 66.146 54.138 63.236 53.302 59.903 53.302 Z "
                  fill-rule="evenodd"
                  fill="rgb(96,187,85)"/>
            <path d=" M 81.859 82.181 C 80.004 83.728 77.622 84.661 75.033 84.661 L 68.458 84.661 L 68.458 73.35 C 74.396 73.378 79.51 76.986 81.859 82.181 Z "
                  fill-rule="evenodd"
                  fill="rgb(96,187,85)"/>
            <path d=" M 54.046 84.661 L 68.458 84.661 L 68.458 73.35 C 68.435 73.35 68.413 73.349 68.39 73.349 C 61.516 73.349 55.735 78.148 54.046 84.661 Z "
                  fill-rule="evenodd"
                  fill="rgb(132,197,103)"/>
            <path d=" M 60.401 57.466 C 62.813 57.466 64.997 58.444 66.578 60.025 C 67.373 60.82 68.016 61.768 68.458 62.821 C 68.901 61.768 69.543 60.82 70.338 60.025 C 71.919 58.444 74.103 57.466 76.516 57.466 C 78.928 57.466 81.112 58.444 82.692 60.025 C 84.274 61.606 85.251 63.79 85.251 66.202 C 85.251 68.615 84.274 70.798 82.692 72.379 C 81.112 73.96 78.928 74.938 76.516 74.938 C 75.259 74.938 74.064 74.673 72.984 74.195 L 72.558 74.621 L 69.108 78.07 L 68.39 78.789 L 67.671 78.07 L 64.221 74.621 L 63.837 74.236 C 62.783 74.688 61.621 74.938 60.401 74.938 C 57.989 74.938 55.805 73.96 54.224 72.379 C 52.643 70.798 51.665 68.615 51.665 66.202 C 51.665 63.79 52.643 61.606 54.224 60.025 C 55.805 58.444 57.989 57.466 60.401 57.466 Z  M 69.482 71.385 C 69.074 70.83 68.728 70.226 68.458 69.583 C 68.193 70.215 67.856 70.808 67.457 71.354 C 67.761 71.3 68.073 71.272 68.39 71.272 C 68.762 71.272 69.127 71.31 69.482 71.385 Z "
                  fill="rgb(65,65,65)"/>
            <path d=" M 76.516 58.773 C 80.618 58.773 83.945 62.099 83.945 66.202 C 83.945 70.306 80.618 73.632 76.516 73.632 C 72.412 73.632 69.086 70.306 69.086 66.202 C 69.086 62.099 72.412 58.773 76.516 58.773 Z "
                  fill-rule="evenodd"
                  fill="rgb(255,255,255)"/>
            <path d=" M 60.401 58.773 C 64.504 58.773 67.83 62.099 67.83 66.202 C 67.83 70.306 64.504 73.632 60.401 73.632 C 56.298 73.632 52.972 70.306 52.972 66.202 C 52.972 62.099 56.298 58.773 60.401 58.773 Z "
                  fill-rule="evenodd"
                  fill="rgb(255,255,255)"/>
            <path d=" M 61.218 61.507 C 63.811 61.507 65.913 63.609 65.913 66.202 C 65.913 68.795 63.811 70.898 61.218 70.898 C 58.625 70.898 56.522 68.795 56.522 66.202 C 56.522 65.351 56.749 64.552 57.146 63.863 C 57.452 64.773 58.312 65.428 59.325 65.428 C 60.595 65.428 61.625 64.398 61.625 63.128 C 61.625 62.499 61.372 61.929 60.963 61.514 C 61.047 61.509 61.132 61.507 61.218 61.507 Z "
                  fill-rule="evenodd"
                  fill="rgb(65,65,65)"/>
            <path d=" M 75.536 61.507 C 78.129 61.507 80.231 63.609 80.231 66.202 C 80.231 68.795 78.129 70.898 75.536 70.898 C 72.943 70.898 70.84 68.795 70.84 66.202 C 70.84 65.351 71.067 64.552 71.464 63.863 C 71.77 64.773 72.63 65.428 73.643 65.428 C 74.914 65.428 75.943 64.398 75.943 63.128 C 75.943 62.499 75.69 61.929 75.281 61.514 C 75.365 61.509 75.45 61.507 75.536 61.507 Z "
                  fill-rule="evenodd"
                  fill="rgb(65,65,65)"/>
            <path d=" M 68.39 72.288 C 69.747 72.288 70.972 72.908 71.84 73.902 L 68.39 77.352 L 68.39 72.288 Z "
                  fill-rule="evenodd"
                  fill="rgb(255,200,104)"/>
            <path d=" M 68.39 77.352 L 64.94 73.902 C 65.808 72.908 67.032 72.288 68.39 72.288 L 68.39 77.352 Z "
                  fill-rule="evenodd"
                  fill="rgb(252,245,174)"/>
        </g>
    </g>
</svg>
