<?xml version="1.0" encoding="UTF-8" standalone="no"?><!-- Generator: Gravit.io -->
<svg xmlns="http://www.w3.org/2000/svg"
     style="isolation:isolate" viewBox="354.418 353.529 80 80" width="80pt" height="80pt">
    <g>
        <circle vector-effect="non-scaling-stroke"
                cx="394.4183484848483"
                cy="393.5294619422572"
                r="40"
                fill="rgb(254,230,230)"/>
        <path d=" M 422.327 381.179 C 422.268 381.29 422.179 381.382 422.07 381.444 C 422.107 381.503 422.135 381.569 422.155 381.643 C 422.175 381.716 422.184 381.798 422.184 381.889 L 422.184 383.834 L 421.506 383.834 L 421.506 382.582 C 421.436 382.627 421.36 382.661 421.28 382.684 C 421.211 382.703 421.141 382.72 421.07 382.734 L 420.834 382.78 C 420.762 382.792 420.691 382.81 420.621 382.834 C 420.566 382.852 420.514 382.879 420.469 382.916 C 420.431 382.946 420.409 382.993 420.411 383.042 C 420.411 383.098 420.423 383.146 420.449 383.185 C 420.473 383.224 420.506 383.257 420.546 383.28 C 420.587 383.304 420.632 383.322 420.679 383.332 C 420.729 383.343 420.778 383.348 420.827 383.348 C 420.875 383.348 420.932 383.343 420.997 383.334 C 421.069 383.322 421.14 383.307 421.211 383.288 L 421.211 383.808 C 421.126 383.832 421.041 383.852 420.955 383.868 C 420.878 383.881 420.799 383.888 420.721 383.888 C 420.586 383.888 420.459 383.873 420.339 383.844 C 420.225 383.818 420.117 383.77 420.022 383.704 C 419.93 383.639 419.856 383.553 419.805 383.452 C 419.749 383.335 419.722 383.205 419.726 383.074 C 419.726 382.931 419.755 382.81 419.814 382.715 C 419.873 382.619 419.957 382.539 420.066 382.475 C 420.174 382.41 420.306 382.359 420.46 382.318 C 420.614 382.279 420.786 382.242 420.975 382.21 C 421.041 382.198 421.107 382.184 421.17 382.167 C 421.234 382.151 421.291 382.131 421.341 382.108 C 421.386 382.088 421.426 382.06 421.461 382.026 C 421.49 381.996 421.506 381.956 421.506 381.915 C 421.509 381.86 421.494 381.805 421.465 381.759 C 421.437 381.721 421.4 381.691 421.357 381.673 C 421.31 381.652 421.26 381.64 421.208 381.636 C 421.153 381.631 421.098 381.629 421.042 381.629 C 420.967 381.629 420.899 381.635 420.838 381.648 C 420.718 381.669 420.616 381.748 420.567 381.86 C 420.54 381.919 420.523 381.996 420.519 382.089 L 419.821 382.089 C 419.823 381.968 419.842 381.848 419.877 381.732 C 419.909 381.627 419.954 381.536 420.01 381.459 C 420.066 381.381 420.132 381.316 420.209 381.264 C 420.286 381.211 420.369 381.168 420.461 381.135 C 420.552 381.102 420.649 381.079 420.754 381.065 C 420.948 381.039 421.145 381.037 421.34 381.059 C 421.427 381.069 421.512 381.086 421.592 381.11 C 421.616 381.095 421.637 381.076 421.654 381.054 C 421.687 381.01 421.71 380.958 421.72 380.904 C 421.724 380.88 421.727 380.855 421.727 380.83 L 422.418 380.83 C 422.419 380.953 422.387 381.073 422.327 381.179 L 422.327 381.179 Z  M 421.926 380.377 C 421.883 380.418 421.849 380.467 421.828 380.523 C 421.805 380.579 421.794 380.641 421.794 380.71 L 421.142 380.71 C 421.142 380.561 421.171 380.429 421.229 380.314 C 421.286 380.199 421.367 380.101 421.47 380.02 C 421.574 379.94 421.697 379.879 421.839 379.836 C 421.981 379.794 422.135 379.772 422.304 379.77 L 422.304 380.249 C 422.222 380.249 422.149 380.261 422.086 380.283 C 422.026 380.303 421.972 380.335 421.926 380.377 L 421.926 380.377 Z  M 419.198 383.288 C 419.162 383.375 419.114 383.456 419.054 383.53 C 418.99 383.607 418.914 383.672 418.827 383.722 C 418.737 383.776 418.629 383.818 418.505 383.849 C 418.381 383.879 418.238 383.895 418.075 383.895 C 417.929 383.897 417.784 383.881 417.642 383.849 C 417.529 383.823 417.421 383.78 417.32 383.722 C 417.235 383.672 417.158 383.607 417.095 383.53 C 417.035 383.457 416.987 383.375 416.952 383.288 C 416.915 383.199 416.89 383.106 416.876 383.011 C 416.861 382.913 416.854 382.814 416.854 382.715 L 416.854 381.104 L 417.531 381.104 L 417.531 382.763 C 417.531 382.827 417.539 382.892 417.557 382.957 C 417.574 383.021 417.605 383.08 417.646 383.132 C 417.692 383.186 417.749 383.229 417.814 383.258 C 417.884 383.291 417.971 383.308 418.075 383.308 C 418.178 383.308 418.263 383.291 418.332 383.258 C 418.458 383.202 418.552 383.091 418.586 382.957 C 418.604 382.892 418.612 382.827 418.612 382.763 L 418.612 379.909 L 419.298 379.909 L 419.298 382.715 C 419.298 382.815 419.291 382.913 419.275 383.011 C 419.262 383.106 419.236 383.199 419.198 383.288 Z  M 421.954 387.707 L 419.465 389.929 C 418.75 388.941 417.819 388.415 416.541 388.415 C 415.544 388.415 414.365 388.881 414.365 389.99 C 414.365 392.642 422.418 390.486 422.418 396.253 C 422.418 399.776 419.029 401.008 415.98 401.008 C 413.681 401.008 411.687 400.423 410.164 398.722 L 412.654 396.409 C 413.616 397.456 414.611 398.229 416.197 398.229 C 417.288 398.229 418.688 397.706 418.688 396.532 C 418.688 393.475 410.629 395.883 410.629 390.238 C 410.629 386.935 413.616 385.455 416.636 385.455 C 418.624 385.455 420.74 386.071 421.954 387.707 L 421.954 387.707 Z  M 416.331 383.18 C 416.288 383.284 416.232 383.381 416.164 383.469 C 416.095 383.557 416.013 383.633 415.92 383.695 C 415.82 383.761 415.71 383.811 415.594 383.843 C 415.459 383.879 415.32 383.896 415.18 383.895 C 415.025 383.895 414.886 383.877 414.762 383.843 C 414.647 383.811 414.536 383.762 414.436 383.697 C 414.344 383.636 414.263 383.56 414.196 383.473 C 414.129 383.384 414.075 383.287 414.034 383.184 C 413.991 383.075 413.96 382.962 413.941 382.846 C 413.921 382.723 413.911 382.599 413.912 382.475 L 413.912 382.283 L 415.18 382.283 L 415.18 382.836 L 414.631 382.836 C 414.65 382.906 414.676 382.97 414.71 383.028 C 414.744 383.085 414.784 383.134 414.831 383.176 C 414.927 383.262 415.052 383.309 415.18 383.308 C 415.271 383.308 415.352 383.289 415.424 383.251 C 415.497 383.212 415.559 383.157 415.606 383.089 C 415.659 383.009 415.698 382.921 415.719 382.827 C 415.746 382.724 415.759 382.607 415.759 382.475 C 415.759 382.203 415.711 381.995 415.615 381.851 C 415.519 381.707 415.372 381.635 415.174 381.635 C 415.048 381.635 414.925 381.674 414.823 381.747 C 414.724 381.822 414.654 381.928 414.623 382.048 L 413.899 382.048 C 413.936 381.898 413.99 381.762 414.06 381.638 C 414.13 381.514 414.219 381.407 414.325 381.318 C 414.431 381.229 414.554 381.16 414.695 381.11 C 414.836 381.061 414.995 381.037 415.174 381.037 C 415.409 381.037 415.608 381.074 415.772 381.147 C 415.934 381.221 416.067 381.323 416.169 381.452 C 416.27 381.58 416.344 381.733 416.389 381.908 C 416.435 382.083 416.457 382.272 416.457 382.475 C 416.457 382.602 416.447 382.724 416.427 382.844 C 416.407 382.963 416.375 383.076 416.331 383.18 L 416.331 383.18 Z  M 412.091 379.854 C 412.06 379.867 412.033 379.887 412.012 379.913 C 411.995 379.934 411.984 379.958 411.979 379.984 C 411.971 380.021 411.97 380.058 411.977 380.095 C 411.981 380.113 411.987 380.131 411.996 380.148 C 412.017 380.188 412.06 380.212 412.105 380.21 C 412.157 380.21 412.194 380.195 412.217 380.162 C 412.241 380.131 412.251 380.077 412.246 380.004 L 412.677 380.004 C 412.674 380.077 412.683 380.131 412.706 380.162 C 412.729 380.195 412.764 380.21 412.812 380.21 C 412.859 380.21 412.889 380.193 412.901 380.16 C 412.914 380.109 412.916 380.056 412.905 380.004 L 413.382 380.004 C 413.398 380.131 413.396 380.237 413.374 380.323 C 413.357 380.4 413.32 380.471 413.268 380.529 C 413.22 380.581 413.159 380.62 413.091 380.641 C 413.022 380.664 412.948 380.675 412.871 380.675 C 412.828 380.676 412.785 380.67 412.744 380.658 C 412.634 380.627 412.538 380.561 412.469 380.471 C 412.42 380.532 412.357 380.581 412.286 380.615 C 412.248 380.634 412.209 380.649 412.168 380.66 C 412.126 380.67 412.083 380.676 412.04 380.675 C 411.962 380.675 411.893 380.666 411.833 380.647 C 411.777 380.629 411.723 380.602 411.675 380.567 C 411.631 380.536 411.592 380.497 411.561 380.453 C 411.501 380.372 411.46 380.279 411.441 380.18 C 411.433 380.137 411.429 380.093 411.428 380.049 C 411.42 379.853 411.507 379.665 411.662 379.545 C 411.734 379.49 411.817 379.449 411.905 379.424 C 411.996 379.398 412.09 379.385 412.187 379.385 L 413.556 379.385 L 413.556 379.83 L 412.233 379.83 C 412.184 379.828 412.136 379.836 412.091 379.854 L 412.091 379.854 Z  M 411.053 383.834 L 411.053 381.104 L 411.71 381.104 L 411.71 381.39 C 411.763 381.334 411.815 381.285 411.868 381.243 C 411.921 381.2 411.978 381.164 412.038 381.134 C 412.099 381.105 412.163 381.083 412.233 381.067 C 412.302 381.051 412.379 381.043 412.463 381.043 C 412.663 381.043 412.829 381.069 412.961 381.12 C 413.093 381.17 413.199 381.242 413.279 381.334 C 413.36 381.428 413.418 381.541 413.448 381.662 C 413.481 381.789 413.497 381.93 413.497 382.083 L 413.497 383.834 L 412.818 383.834 L 412.818 382.035 C 412.819 381.981 412.809 381.927 412.789 381.877 C 412.75 381.782 412.671 381.709 412.573 381.678 C 412.516 381.658 412.456 381.649 412.396 381.65 C 412.285 381.65 412.188 381.666 412.106 381.699 C 411.949 381.76 411.828 381.888 411.777 382.048 C 411.749 382.135 411.736 382.225 411.737 382.315 L 411.737 383.834 L 411.053 383.834 L 411.053 383.834 Z  M 403.241 401.008 C 400.443 401.008 398.95 399.711 398.169 398.755 L 398.079 398.755 L 398.079 407.674 L 394.343 407.674 L 394.343 385.824 L 397.892 385.824 L 397.892 388.045 L 397.955 388.045 C 399.043 386.256 401 385.455 403.086 385.455 C 407.689 385.455 410.457 388.85 410.457 393.228 C 410.457 397.613 407.504 401.008 403.241 401.008 Z  M 402.34 388.786 C 399.601 388.786 397.955 390.915 397.955 393.228 C 397.955 395.545 399.601 397.674 402.34 397.674 C 405.076 397.674 406.728 395.545 406.728 393.228 C 406.728 390.915 405.076 388.786 402.34 388.786 Z  M 385.717 401.008 C 381.204 401.008 377.596 397.891 377.596 393.228 C 377.596 388.571 381.204 385.455 385.717 385.455 C 390.227 385.455 393.835 388.571 393.835 393.228 C 393.835 397.891 390.227 401.008 385.717 401.008 Z  M 385.717 388.786 C 382.979 388.786 381.333 390.915 381.333 393.228 C 381.333 395.545 382.979 397.674 385.717 397.674 C 388.455 397.674 390.102 395.545 390.102 393.228 C 390.102 390.915 388.455 388.786 385.717 388.786 Z  M 378.249 385.823 L 378.249 385.824 L 377.086 385.824 L 377.086 400.637 L 373.169 400.637 L 373.169 385.824 L 366.418 385.824 L 366.418 382.303 L 378.249 382.303 L 378.249 382.309 C 384.323 382.301 384.809 381.04 384.809 381.04 C 384.809 385.569 378.879 385.81 378.249 385.823 Z "
              fill-rule="evenodd"
              fill="rgb(244,4,5)"/>
    </g>
</svg>
