<?xml version="1.0" encoding="UTF-8" standalone="no"?><!-- Generator: Gravit.io -->
<svg xmlns="http://www.w3.org/2000/svg"
     style="isolation:isolate" viewBox="193.5 262.029 80 80" width="80pt" height="80pt">
    <g>
        <circle vector-effect="non-scaling-stroke"
                cx="233.49999999999977"
                cy="302.0294619422573"
                r="40"
                fill="rgb(230,245,246)"/>
        <path d=" M 230.833 284.09 C 230.796 284.103 230.307 284.146 229.745 284.186 C 220.717 284.831 214.483 289.64 212.094 297.8 C 211.888 298.504 211.61 299.719 211.49 300.437 C 211.067 302.985 211.024 303.913 211.024 310.442 L 211.024 316.092 L 229.63 316.109 L 248.235 316.126 L 248.565 315.921 C 250.838 314.505 253.502 310.68 254.621 307.227 C 254.715 306.937 254.821 306.61 254.857 306.502 C 255.081 305.823 255.491 303.987 255.586 303.239 C 255.616 303.003 255.684 302.469 255.739 302.052 C 255.967 300.293 255.992 299.176 255.97 291.571 L 255.948 284.089 L 243.423 284.078 C 236.535 284.071 230.869 284.077 230.833 284.09 Z  M 222.593 293.528 C 223.224 293.837 223.325 294.023 223.882 295.889 C 223.915 295.997 223.999 296.264 224.068 296.482 C 224.138 296.699 224.319 297.278 224.47 297.767 C 224.621 298.257 224.798 298.82 224.863 299.02 C 224.927 299.219 225.048 299.605 225.131 299.877 C 225.213 300.149 225.332 300.534 225.395 300.734 C 225.458 300.933 225.575 301.319 225.654 301.591 C 225.734 301.863 225.825 302.159 225.856 302.25 C 225.909 302.401 226.055 302.865 226.848 305.414 C 227.245 306.689 227.562 306.909 227.801 306.073 C 227.827 305.983 227.887 305.819 227.936 305.711 C 227.984 305.602 228.176 305.112 228.362 304.623 C 228.549 304.134 228.727 303.674 228.759 303.601 C 228.79 303.529 229.281 302.268 229.848 300.8 C 231.256 297.158 231.471 296.726 232.122 296.228 C 232.991 295.563 234.377 295.659 235.134 296.437 C 235.677 296.995 235.824 297.324 237.652 302.085 C 237.944 302.846 238.21 303.529 238.243 303.601 C 238.299 303.726 238.561 304.403 239.045 305.678 C 239.373 306.541 239.532 306.702 239.779 306.419 C 239.886 306.298 239.913 306.224 240.22 305.216 C 240.556 304.114 240.957 302.821 241.079 302.448 C 241.145 302.248 241.264 301.863 241.344 301.591 C 241.424 301.319 241.543 300.933 241.607 300.734 C 241.671 300.534 241.792 300.149 241.875 299.877 C 241.957 299.605 242.077 299.219 242.14 299.02 C 242.381 298.258 242.842 296.775 243.298 295.295 C 243.586 294.362 243.739 294.03 243.975 293.828 C 245.232 292.747 247.083 293.505 247.08 295.098 C 247.079 295.517 247.043 295.651 246.29 298.064 C 245.82 299.573 245.678 300.031 245.441 300.816 C 245.373 301.043 245.212 301.554 245.085 301.953 C 244.957 302.352 244.73 303.079 244.581 303.568 C 244.431 304.058 244.253 304.636 244.184 304.854 C 244.116 305.071 243.951 305.605 243.819 306.04 C 243.13 308.306 242.859 308.794 241.894 309.51 C 240.54 310.513 238.358 310.426 237.112 309.318 C 236.324 308.617 236.04 308.19 235.654 307.126 C 235.396 306.414 234.985 305.353 234.842 305.031 C 234.789 304.912 234.692 304.66 234.626 304.471 C 234.56 304.283 234.314 303.639 234.078 303.041 C 233.843 302.443 233.633 301.901 233.611 301.838 C 233.59 301.774 233.541 301.723 233.502 301.723 C 233.464 301.723 233.415 301.774 233.394 301.838 C 233.373 301.901 233.3 302.079 233.232 302.233 C 233.163 302.386 233.107 302.543 233.107 302.58 C 233.107 302.617 233.08 302.699 233.046 302.762 C 233.013 302.825 232.891 303.128 232.775 303.436 C 232.659 303.745 232.509 304.122 232.44 304.276 C 232.372 304.43 232.316 304.586 232.316 304.623 C 232.316 304.66 232.259 304.816 232.19 304.97 C 232.008 305.373 231.525 306.616 231.525 306.68 C 231.525 306.709 231.469 306.86 231.402 307.013 C 231.334 307.167 231.198 307.479 231.1 307.707 C 229.939 310.409 226.562 311.082 224.537 309.016 C 223.945 308.411 223.776 307.999 222.79 304.755 C 222.586 304.084 222.246 302.987 222.034 302.316 C 221.823 301.645 221.584 300.874 221.503 300.602 C 221.423 300.33 221.304 299.944 221.238 299.745 C 221.172 299.546 221.075 299.234 221.021 299.053 C 220.967 298.872 220.829 298.427 220.715 298.064 C 219.852 295.327 219.793 294.997 220.06 294.405 C 220.502 293.427 221.605 293.045 222.593 293.528 Z "
              fill-rule="evenodd"
              fill="rgb(6,157,162)"/>
        <path d=" M 211.024 318.038 L 211.024 319.984 L 224.224 319.965 C 238.576 319.945 237.782 319.964 239.897 319.583 C 241.954 319.212 244.021 318.546 245.686 317.717 C 246.868 317.129 248.236 316.267 248.167 316.156 C 248.143 316.116 241.228 316.093 229.576 316.093 L 211.024 316.093 L 211.024 318.038 Z "
              fill-rule="evenodd"
              fill="rgb(234,52,38)"/>
    </g>
</svg>
