<?xml version="1.0" encoding="UTF-8" standalone="no"?><!-- Generator: Gravit.io -->
<svg xmlns="http://www.w3.org/2000/svg"
     style="isolation:isolate" viewBox="147.478 160.3 80 80" width="80pt" height="80pt">
    <g>
        <circle vector-effect="non-scaling-stroke"
                cx="187.47769028871383"
                cy="200.30006060606337"
                r="40"
                fill="rgb(233,251,233)"/>
        <path d=" M 159.131 201.425 C 159.131 201.465 159.286 201.752 159.476 202.063 C 159.665 202.374 159.843 202.674 159.87 202.729 C 159.898 202.784 160.01 202.976 160.12 203.157 C 160.23 203.337 160.336 203.537 160.356 203.6 C 160.377 203.663 160.418 203.714 160.447 203.714 C 160.476 203.714 160.521 203.779 160.546 203.857 C 160.571 203.935 160.618 204.031 160.651 204.07 C 160.758 204.196 161.428 205.367 161.428 205.428 C 161.428 205.46 161.454 205.486 161.486 205.486 C 161.518 205.486 161.562 205.538 161.584 205.601 C 161.606 205.664 161.714 205.864 161.823 206.044 C 162.237 206.725 162.245 206.661 161.585 208.003 C 161.498 208.177 161.428 208.348 161.428 208.383 C 161.428 208.417 161.31 208.686 161.166 208.98 C 161.021 209.275 160.903 209.54 160.903 209.568 C 160.903 209.597 161.345 209.621 161.886 209.621 L 162.869 209.621 L 163.005 209.309 C 163.08 209.137 163.166 208.938 163.195 208.866 C 163.225 208.794 163.329 208.558 163.426 208.341 C 163.524 208.125 163.642 207.859 163.688 207.751 C 163.735 207.642 163.81 207.465 163.856 207.357 C 163.903 207.248 163.981 207.064 164.031 206.947 C 164.081 206.831 164.163 206.639 164.212 206.521 C 164.262 206.403 164.376 206.144 164.465 205.946 C 164.613 205.617 164.759 205.279 164.904 204.929 C 164.934 204.856 165.038 204.62 165.136 204.403 C 165.306 204.027 165.36 203.903 165.581 203.386 C 165.635 203.26 165.753 202.994 165.842 202.796 C 165.932 202.597 166.056 202.302 166.118 202.14 C 166.18 201.977 166.255 201.815 166.284 201.779 C 166.313 201.742 166.348 201.639 166.36 201.549 L 166.383 201.385 L 165.366 201.385 C 164.401 201.385 164.349 201.391 164.33 201.516 C 164.318 201.588 164.278 201.721 164.24 201.811 C 164.202 201.902 164.133 202.064 164.087 202.172 C 164.042 202.281 163.953 202.502 163.89 202.664 C 163.715 203.114 163.653 203.27 163.563 203.485 C 163.518 203.593 163.444 203.77 163.399 203.878 C 163.075 204.66 163.014 204.671 162.665 204.01 C 162.589 203.865 162.506 203.733 162.481 203.714 C 162.457 203.696 162.146 203.209 161.791 202.632 C 160.914 201.208 161.112 201.352 160.04 201.352 C 159.417 201.352 159.131 201.375 159.131 201.425 Z  M 197.815 201.432 C 197.798 201.478 197.791 203.318 197.8 205.519 L 197.817 209.522 L 199.65 209.54 C 200.828 209.551 201.507 209.533 201.55 209.491 C 201.587 209.454 201.672 209.424 201.739 209.424 C 202.083 209.424 203.1 208.762 203.1 208.538 C 203.1 208.493 203.144 208.419 203.198 208.374 C 203.252 208.329 203.297 208.224 203.297 208.14 C 203.297 208.056 203.326 207.969 203.362 207.947 C 203.442 207.898 203.45 206.843 203.372 206.683 C 203.341 206.621 203.261 206.451 203.193 206.307 C 203.05 206 202.604 205.524 202.401 205.46 C 202.22 205.404 202.152 205.165 202.301 205.108 C 203.607 204.607 203.445 202.452 202.05 201.762 C 201.368 201.424 197.921 201.156 197.815 201.432 Z  M 200.756 203 C 201.866 203.554 201.101 204.974 199.861 204.662 L 199.687 204.619 L 199.687 203.784 C 199.687 203.325 199.707 202.929 199.731 202.905 C 199.831 202.805 200.488 202.865 200.756 203 Z  M 184.77 202.976 C 184.741 203.021 184.631 203.058 184.526 203.058 C 184.422 203.058 184.209 203.101 184.055 203.152 C 183.742 203.257 183.216 203.281 181.706 203.26 C 180.891 203.249 180.65 203.266 180.492 203.349 C 180.384 203.405 180.258 203.451 180.213 203.452 C 180.168 203.452 180.131 203.482 180.131 203.518 C 180.131 203.554 180.099 203.583 180.06 203.583 C 179.908 203.583 179.476 203.959 179.267 204.272 C 179.147 204.453 179.034 204.615 179.016 204.633 C 178.732 204.917 178.673 206.167 178.919 206.685 C 179.086 207.04 179.542 207.562 179.889 207.799 C 180.035 207.899 180.049 207.94 179.999 208.114 C 179.925 208.374 180.056 208.434 180.369 208.285 C 180.695 208.129 181.81 208.134 182.111 208.292 C 182.961 208.738 182.929 209.777 182.054 210.152 C 181.734 210.289 180.763 210.331 180.689 210.211 C 180.667 210.175 180.58 210.146 180.496 210.146 C 180.413 210.146 180.308 210.101 180.262 210.047 C 180.218 209.993 180.149 209.949 180.11 209.949 C 180.072 209.949 179.96 209.872 179.861 209.778 L 179.683 209.607 L 179.267 210.047 C 179.038 210.29 178.826 210.532 178.796 210.586 C 178.686 210.778 179.225 211.191 180.033 211.534 C 180.905 211.905 182.449 211.778 183.387 211.259 C 184.78 210.489 184.899 208.682 183.615 207.785 L 183.391 207.628 L 183.691 207.361 C 184.48 206.658 184.616 205.757 184.086 204.742 C 183.974 204.527 184.014 204.469 184.331 204.388 C 184.504 204.344 184.566 204.291 184.583 204.17 C 184.595 204.082 184.632 203.982 184.665 203.947 C 184.698 203.913 184.725 203.786 184.725 203.664 C 184.725 203.543 184.756 203.385 184.795 203.313 C 184.877 203.16 184.854 202.847 184.77 202.976 Z  M 168.778 203.261 C 167.688 203.337 167.679 203.347 167.771 204.327 L 167.814 204.776 L 168.083 204.737 C 169.709 204.499 170.288 204.762 170.288 205.74 C 170.288 205.984 170.194 206.002 169.869 205.819 C 168.855 205.249 167.537 205.578 166.939 206.549 C 166.431 207.375 166.931 209.424 167.641 209.424 C 167.689 209.424 167.728 209.45 167.728 209.482 C 167.728 209.514 167.809 209.557 167.909 209.577 C 168.008 209.598 168.242 209.651 168.429 209.695 C 168.699 209.759 168.835 209.759 169.085 209.695 C 169.259 209.65 169.475 209.596 169.566 209.574 C 169.656 209.552 169.847 209.422 169.989 209.286 C 170.287 209.004 170.353 209.012 170.353 209.329 L 170.353 209.555 L 171.108 209.555 L 171.862 209.555 L 171.862 207.135 C 171.862 204.206 171.781 203.903 170.886 203.512 C 170.719 203.439 170.524 203.353 170.452 203.321 C 170.276 203.242 169.464 203.213 168.778 203.261 Z  M 187.973 203.241 C 187.619 203.258 187.338 203.339 187.006 203.521 C 186.944 203.555 186.86 203.583 186.822 203.583 C 186.533 203.583 185.318 204.842 185.315 205.143 C 185.315 205.169 185.268 205.28 185.21 205.388 C 184.993 205.795 185.055 207.203 185.313 207.75 C 185.702 208.573 186.705 209.41 187.514 209.587 C 188.307 209.762 188.476 209.776 188.811 209.697 C 189 209.653 189.258 209.593 189.384 209.564 C 190.294 209.355 191.616 208.111 191.616 207.463 C 191.616 207.295 191.721 207.228 191.773 207.362 C 191.795 207.419 191.812 207.936 191.812 208.511 L 191.812 209.555 L 192.665 209.555 L 193.519 209.555 L 193.519 207.558 C 193.519 206.296 193.543 205.545 193.584 205.519 C 193.62 205.497 193.65 205.426 193.65 205.361 C 193.65 204.915 194.495 204.607 195.011 204.864 C 195.517 205.117 195.551 205.289 195.552 207.603 L 195.553 209.555 L 196.406 209.555 L 197.259 209.555 L 197.258 207.275 C 197.257 204.935 197.244 204.792 196.981 204.24 C 196.423 203.07 194.667 202.844 193.736 203.823 C 193.458 204.116 193.387 204.101 193.387 203.749 C 193.387 203.389 193.346 203.373 192.469 203.4 L 191.845 203.419 L 191.829 204.371 C 191.821 204.894 191.797 205.39 191.778 205.473 C 191.739 205.64 191.616 205.608 191.616 205.431 C 191.616 205.174 191.045 204.302 190.725 204.07 C 190.629 204.001 190.512 203.908 190.465 203.863 C 190.334 203.739 189.631 203.386 189.514 203.386 C 189.457 203.386 189.383 203.36 189.348 203.327 C 189.276 203.259 188.549 203.214 187.973 203.241 Z  M 205.922 203.24 C 205.651 203.249 205.37 203.284 205.298 203.318 C 205.226 203.352 205.108 203.389 205.036 203.4 C 204.916 203.419 204.903 203.479 204.886 204.102 L 204.867 204.782 L 205.181 204.73 C 205.939 204.605 206.949 204.686 207.123 204.886 C 207.264 205.048 207.447 205.662 207.399 205.813 C 207.346 205.978 207.295 205.978 206.959 205.816 C 205.867 205.288 204.675 205.569 204.083 206.493 L 203.825 206.897 L 203.823 207.59 C 203.822 208.1 203.847 208.317 203.918 208.411 C 203.971 208.481 204.015 208.582 204.017 208.636 C 204.033 209.262 205.632 209.957 206.358 209.654 C 206.488 209.599 206.645 209.555 206.707 209.555 C 206.769 209.555 206.942 209.432 207.091 209.282 C 207.37 208.999 207.402 209.006 207.444 209.358 C 207.464 209.521 207.469 209.522 208.202 209.541 L 208.94 209.559 L 208.94 207.067 C 208.94 205.684 208.914 204.559 208.882 204.539 C 208.85 204.52 208.804 204.427 208.781 204.333 C 208.691 203.974 208.229 203.599 207.53 203.315 C 207.373 203.252 206.605 203.216 205.922 203.24 Z  M 209.941 203.238 C 209.305 203.261 209.248 203.296 209.397 203.568 C 209.431 203.63 209.507 203.8 209.566 203.944 C 209.624 204.089 209.711 204.295 209.759 204.403 C 209.806 204.512 209.894 204.718 209.954 204.863 C 210.013 205.007 210.091 205.177 210.125 205.239 C 210.159 205.302 210.187 205.383 210.187 205.418 C 210.187 205.483 210.443 206.082 210.618 206.427 C 210.67 206.529 210.712 206.64 210.712 206.673 C 210.712 206.707 210.786 206.887 210.876 207.074 C 210.966 207.261 211.04 207.45 211.04 207.495 C 211.04 207.539 211.082 207.659 211.133 207.761 C 211.627 208.752 211.653 208.911 211.401 209.385 C 211.311 209.555 211.237 209.722 211.237 209.757 C 211.237 209.816 210.912 210.528 210.54 211.284 C 210.284 211.806 210.263 211.792 211.287 211.772 C 212.166 211.754 212.189 211.75 212.21 211.606 C 212.221 211.525 212.258 211.458 212.292 211.458 C 212.325 211.458 212.353 211.413 212.353 211.359 C 212.353 211.304 212.438 211.075 212.543 210.85 C 212.891 210.103 213.075 209.683 213.075 209.636 C 213.075 209.611 213.152 209.427 213.247 209.228 C 213.342 209.029 213.443 208.807 213.471 208.735 C 213.499 208.663 213.616 208.397 213.731 208.144 C 213.845 207.892 213.969 207.611 214.006 207.521 C 214.2 207.044 214.242 206.944 214.336 206.733 C 214.393 206.607 214.483 206.4 214.537 206.274 C 214.591 206.148 214.715 205.867 214.812 205.65 C 214.909 205.434 215.02 205.183 215.058 205.093 C 215.236 204.672 215.308 204.508 215.473 204.141 C 215.57 203.925 215.693 203.665 215.746 203.563 C 215.922 203.228 215.848 203.189 215.029 203.19 C 214.181 203.191 213.993 203.226 213.993 203.381 C 213.993 203.443 213.95 203.55 213.897 203.62 C 213.844 203.69 213.8 203.797 213.799 203.857 C 213.798 203.917 213.755 204.05 213.704 204.152 C 213.654 204.254 213.577 204.427 213.533 204.535 C 213.49 204.643 213.417 204.82 213.371 204.929 C 213.326 205.037 213.237 205.258 213.174 205.421 C 213.111 205.583 213.036 205.775 213.008 205.847 C 212.98 205.92 212.909 206.086 212.852 206.218 C 212.794 206.35 212.747 206.486 212.747 206.52 C 212.747 206.554 212.686 206.637 212.611 206.704 C 212.471 206.831 212.356 206.764 212.354 206.552 C 212.353 206.506 212.327 206.418 212.295 206.355 C 212.219 206.207 212.062 205.85 211.928 205.519 C 211.869 205.375 211.793 205.205 211.759 205.143 C 211.725 205.08 211.697 204.987 211.697 204.935 C 211.697 204.883 211.655 204.757 211.604 204.655 C 211.553 204.553 211.477 204.381 211.434 204.272 C 211.391 204.164 211.315 203.992 211.264 203.89 C 211.213 203.788 211.171 203.655 211.169 203.594 C 211.166 203.396 210.935 203.188 210.735 203.203 C 210.632 203.211 210.275 203.227 209.941 203.238 Z  M 175.341 203.316 C 175.341 203.35 175.274 203.398 175.193 203.423 C 175.112 203.448 174.933 203.582 174.796 203.721 C 174.44 204.081 174.331 204.08 174.29 203.714 L 174.258 203.419 L 173.503 203.419 L 172.748 203.419 L 172.748 206.471 L 172.748 209.522 L 173.585 209.541 L 174.422 209.559 L 174.422 207.655 C 174.422 205.136 174.561 204.765 175.509 204.765 C 176.374 204.765 176.484 205.073 176.508 207.572 L 176.527 209.559 L 177.361 209.541 L 178.195 209.522 L 178.212 207.307 C 178.227 205.451 178.214 205.054 178.13 204.855 C 178.076 204.724 178.031 204.551 178.031 204.469 C 178.031 204.388 177.987 204.284 177.933 204.24 C 177.879 204.195 177.834 204.121 177.834 204.075 C 177.834 203.959 177.368 203.55 177.052 203.389 C 176.771 203.245 175.341 203.185 175.341 203.316 Z  M 181.936 204.727 C 183.107 205.133 182.883 206.939 181.648 207.042 C 180.387 207.148 179.918 205.332 181.063 204.777 C 181.398 204.614 181.583 204.604 181.936 204.727 Z  M 189.199 205.031 C 190.331 205.625 190.311 207.27 189.164 207.88 C 188.318 208.33 187.262 207.92 186.888 206.996 C 186.781 206.731 186.779 206.032 186.884 205.926 C 186.924 205.886 186.956 205.804 186.956 205.742 C 186.956 205.593 187.644 204.971 187.864 204.922 C 187.96 204.9 188.126 204.862 188.233 204.836 C 188.432 204.789 188.928 204.89 189.199 205.031 Z  M 201.167 206.407 C 202.058 206.958 201.449 208.046 200.248 208.046 L 199.687 208.046 L 199.687 207.171 C 199.687 206.69 199.71 206.273 199.737 206.244 C 199.836 206.141 200.94 206.267 201.167 206.407 Z  M 169.914 206.818 C 170.602 207.342 170.182 208.374 169.281 208.374 C 168.357 208.374 167.927 207.358 168.626 206.828 C 168.995 206.548 169.555 206.544 169.914 206.818 Z  M 207.02 206.843 C 207.291 207.063 207.385 207.312 207.328 207.664 C 207.189 208.537 205.78 208.652 205.463 207.817 C 205.128 206.938 206.262 206.23 207.02 206.843 Z "
              fill-rule="evenodd"
              fill="rgb(70,75,70)"/>
        <path d=" M 180.009 188.888 C 179.923 188.923 179.598 188.979 179.287 189.014 C 177.997 189.158 177.757 189.196 177.686 189.268 C 177.645 189.309 177.517 189.343 177.402 189.343 C 177.287 189.343 177.108 189.387 177.005 189.441 C 176.902 189.495 176.723 189.539 176.608 189.539 C 176.492 189.539 176.382 189.566 176.362 189.598 C 176.343 189.629 176.245 189.67 176.145 189.689 C 175.958 189.723 175.655 189.826 175.298 189.977 C 175.184 190.025 175.058 190.065 175.018 190.065 C 174.978 190.065 174.894 190.092 174.831 190.124 C 174.768 190.157 174.555 190.257 174.356 190.345 C 173.596 190.686 173.076 190.946 173.055 190.996 C 173.043 191.025 172.98 191.049 172.915 191.049 C 172.85 191.049 172.76 191.093 172.716 191.147 C 172.671 191.202 172.603 191.246 172.566 191.246 C 172.133 191.246 169.423 193.491 168.716 194.434 C 168.557 194.648 168.408 194.837 168.385 194.855 C 168.306 194.92 167.925 195.519 167.925 195.58 C 167.925 195.615 167.895 195.643 167.859 195.643 C 167.823 195.643 167.794 195.673 167.794 195.71 C 167.794 195.747 167.726 195.887 167.644 196.021 C 167.561 196.156 167.44 196.399 167.374 196.561 C 167.308 196.724 167.213 196.935 167.163 197.031 C 167.113 197.127 167.072 197.252 167.072 197.31 C 167.072 197.367 167.042 197.415 167.006 197.415 C 166.97 197.415 166.941 197.54 166.941 197.693 L 166.941 197.972 L 167.174 197.513 C 167.302 197.26 167.464 196.965 167.534 196.857 C 167.604 196.748 167.689 196.601 167.723 196.529 C 168.012 195.916 169.33 194.483 170.288 193.74 C 170.45 193.614 170.641 193.458 170.713 193.393 C 170.785 193.328 171.065 193.137 171.336 192.97 C 171.608 192.802 171.845 192.648 171.862 192.628 C 171.979 192.498 173.968 191.508 174.113 191.508 C 174.175 191.508 174.225 191.481 174.225 191.448 C 174.225 191.415 174.313 191.368 174.421 191.344 C 174.529 191.321 174.634 191.274 174.655 191.241 C 174.675 191.207 174.771 191.179 174.869 191.178 C 174.966 191.177 175.103 191.133 175.173 191.08 C 175.243 191.027 175.362 190.983 175.438 190.983 C 175.514 190.983 175.606 190.954 175.642 190.918 C 175.711 190.85 176.179 190.733 176.62 190.675 C 176.765 190.656 176.92 190.61 176.965 190.574 C 177.043 190.511 177.286 190.47 178.392 190.332 C 178.645 190.3 179.027 190.242 179.241 190.202 C 179.746 190.109 182.825 190.108 183.289 190.202 C 183.483 190.241 183.893 190.299 184.2 190.33 C 185.108 190.424 185.62 190.502 185.716 190.561 C 185.766 190.592 185.94 190.639 186.103 190.665 C 186.589 190.743 187.046 190.847 187.186 190.912 C 187.258 190.946 187.391 190.987 187.481 191.004 C 187.654 191.038 188.036 191.165 188.205 191.246 C 188.26 191.273 188.401 191.316 188.517 191.341 C 188.633 191.367 188.728 191.415 188.728 191.448 C 188.728 191.481 188.794 191.508 188.875 191.508 C 188.956 191.508 189.169 191.58 189.35 191.667 C 189.531 191.754 189.967 191.962 190.318 192.129 C 190.668 192.297 190.973 192.462 190.994 192.496 C 191.015 192.53 191.09 192.558 191.16 192.558 C 191.23 192.558 191.287 192.584 191.287 192.616 C 191.287 192.648 191.339 192.693 191.402 192.716 C 191.54 192.766 191.711 192.868 191.988 193.067 C 192.101 193.148 192.214 193.215 192.24 193.215 C 192.297 193.215 192.822 193.622 192.852 193.69 C 192.863 193.717 192.903 193.74 192.94 193.74 C 193.161 193.74 194.903 195.322 195.545 196.105 C 196.025 196.691 196.004 196.662 196.407 197.284 C 196.875 198.006 196.891 198.033 197.116 198.497 C 197.432 199.149 197.522 199.365 197.522 199.475 C 197.522 199.533 197.551 199.58 197.587 199.58 C 197.623 199.58 197.653 199.654 197.653 199.744 L 197.653 199.908 L 198.49 199.911 C 199.046 199.913 199.414 199.946 199.589 200.009 C 200.019 200.164 200.169 200.14 200.124 199.925 C 200.104 199.825 200.061 199.603 200.028 199.429 C 199.996 199.256 199.936 199.08 199.894 199.039 C 199.853 198.997 199.819 198.897 199.819 198.816 C 199.819 198.735 199.791 198.652 199.758 198.632 C 199.725 198.611 199.677 198.5 199.651 198.384 C 199.608 198.188 199.552 198.051 199.414 197.808 C 199.383 197.754 199.341 197.666 199.32 197.611 C 199.24 197.405 198.931 196.79 198.892 196.758 C 198.869 196.74 198.795 196.621 198.727 196.493 C 198.597 196.249 198.133 195.591 198.012 195.479 C 197.973 195.443 197.854 195.295 197.749 195.15 C 197.481 194.785 196.262 193.591 195.785 193.227 C 195.567 193.061 195.374 192.909 195.356 192.888 C 195.282 192.803 194.776 192.427 194.737 192.427 C 194.676 192.427 193.884 191.88 193.858 191.82 C 193.846 191.793 193.805 191.771 193.766 191.771 C 193.708 191.771 193.259 191.514 192.762 191.196 C 192.691 191.151 192.589 191.097 192.534 191.075 C 192.48 191.055 192.273 190.963 192.075 190.872 C 191.677 190.689 191.421 190.578 191.123 190.459 C 191.015 190.416 190.843 190.339 190.741 190.288 C 190.639 190.238 190.5 190.196 190.433 190.196 C 190.366 190.196 190.293 190.166 190.27 190.13 C 190.248 190.094 190.18 190.064 190.119 190.064 C 190.058 190.064 189.923 190.02 189.82 189.966 C 189.716 189.912 189.567 189.868 189.488 189.868 C 189.409 189.868 189.286 189.824 189.216 189.771 C 189.146 189.718 188.995 189.674 188.88 189.673 C 188.764 189.672 188.652 189.641 188.63 189.605 C 188.607 189.569 188.501 189.54 188.394 189.54 C 188.287 189.54 188.093 189.495 187.963 189.441 C 187.834 189.387 187.641 189.343 187.534 189.343 C 187.428 189.343 187.282 189.311 187.21 189.273 C 187.062 189.193 186.43 189.099 185.513 189.019 C 185.17 188.99 184.806 188.932 184.704 188.892 C 184.474 188.799 180.238 188.797 180.009 188.888 Z "
              fill-rule="evenodd"
              fill="rgb(70,216,70)"/>
    </g>
</svg>
