<?xml version="1.0" standalone="no"?><!-- Generator: Gravit.io -->
<svg xmlns="http://www.w3.org/2000/svg"
     style="isolation:isolate"
     viewBox="229.606 428 136.063 136.063"
     width="136.063"
     height="136.063">
    <g>
        <circle vector-effect="non-scaling-stroke"
                cx="297.6377952755906"
                cy="496.0314960629921"
                r="68.03149606299212"
                fill="rgb(21,166,207)"/>
        <path d=" M 279.351 476.438 L 315.925 476.438 C 320.974 476.438 325.068 480.532 325.068 485.582 L 325.068 509.094 C 325.068 514.143 320.974 518.237 315.925 518.237 L 279.351 518.237 C 274.301 518.237 270.207 514.143 270.207 509.094 L 270.207 485.582 C 270.207 480.532 274.301 476.438 279.351 476.438 Z  M 279.351 479.051 C 275.744 479.051 272.82 481.975 272.82 485.582 L 272.82 509.094 C 272.82 512.701 275.744 515.625 279.351 515.625 L 315.925 515.625 C 319.532 515.625 322.456 512.701 322.456 509.094 L 322.456 485.582 C 322.456 481.975 319.532 479.051 315.925 479.051 L 279.351 479.051 Z  M 307.131 498.925 C 309.697 496.705 313.58 496.814 316.017 499.251 C 318.568 501.801 318.568 505.936 316.017 508.487 C 313.58 510.924 309.697 511.032 307.131 508.812 C 305.986 509.801 304.494 510.4 302.863 510.4 C 299.256 510.4 296.332 507.476 296.332 503.869 C 296.332 500.262 299.256 497.338 302.863 497.338 C 304.494 497.338 305.986 497.936 307.131 498.925 Z  M 308.731 500.999 C 309.155 501.865 309.394 502.839 309.394 503.869 C 309.394 504.898 309.155 505.872 308.731 506.739 C 310.268 508.169 312.674 508.136 314.17 506.64 C 315.701 505.109 315.701 502.628 314.17 501.098 C 312.674 499.601 310.268 499.568 308.731 500.999 Z  M 279.351 486.888 C 278.63 486.888 278.045 486.303 278.045 485.582 C 278.045 484.86 278.63 484.276 279.351 484.276 L 289.801 484.276 C 290.522 484.276 291.107 484.86 291.107 485.582 C 291.107 486.303 290.522 486.888 289.801 486.888 L 279.351 486.888 Z  M 302.863 507.787 C 305.027 507.787 306.781 506.033 306.781 503.869 C 306.781 501.705 305.027 499.95 302.863 499.95 C 300.698 499.95 298.944 501.705 298.944 503.869 C 298.944 506.033 300.698 507.787 302.863 507.787 Z "
              fill="rgb(255,255,255)"/>
    </g>
</svg>
