<?xml version="1.0" standalone="no"?><!-- Generator: Gravit.io -->
<svg xmlns="http://www.w3.org/2000/svg"
     style="isolation:isolate" viewBox="140.848 305.306 213.648 136.063" width="213.648" height="136.063">
    <g>
        <g>
            <path d=" M 217.657 308.634 C 217.818 312.016 217.818 312.016 219.59 312.177 L 221.307 312.338 L 221.307 315.504 L 221.307 318.725 L 219.912 318.188 C 218.141 317.49 213.524 317.49 211.055 318.188 C 207.942 319.047 204.346 322.59 203.111 326.025 C 201.716 329.728 201.716 332.412 203.058 336.062 C 204.131 338.853 206.922 342.127 209.338 343.362 C 211.914 344.65 216.101 345.08 218.785 344.274 C 220.18 343.845 221.307 343.738 221.307 344.006 C 221.307 344.274 224.206 344.489 227.748 344.489 L 234.189 344.489 L 234.189 341 L 234.189 337.511 L 231.774 337.511 L 229.359 337.511 L 229.359 321.409 L 229.359 305.306 L 223.454 305.306 L 217.496 305.306 L 217.657 308.634 Z  M 219.912 325.756 C 221.307 326.83 221.361 327.098 221.2 331.178 C 221.039 335.15 220.932 335.633 219.643 336.599 C 217.872 337.887 214.383 337.941 212.558 336.706 C 210.841 335.579 210.036 333.7 210.036 330.748 C 210.036 328.655 210.304 328.011 211.861 326.454 C 213.417 324.898 214.061 324.629 216.101 324.629 C 217.711 324.629 218.946 325.005 219.912 325.756 Z "
                  fill="rgb(0,0,0)"/>
            <path d=" M 245.783 317.974 C 240.631 319.852 237.464 324.093 237.034 329.675 C 236.337 338.155 241.489 344.221 249.97 344.865 C 253.674 345.187 258.504 344.06 260.49 342.45 C 261.671 341.483 261.671 341.43 260.759 339.605 C 259.202 336.545 259.095 336.492 256.841 337.297 C 255.767 337.672 253.298 337.994 251.473 338.048 C 248.252 338.048 247.93 337.941 246.213 336.223 C 245.193 335.203 244.388 334.13 244.388 333.808 C 244.388 333.432 247.555 333.217 253.942 333.11 L 263.443 332.949 L 263.389 330.104 C 263.282 326.24 261.993 323.126 259.524 320.711 C 256.089 317.329 250.507 316.202 245.783 317.974 Z  M 253.727 324.683 C 256.411 326.776 255.66 327.313 250.024 327.313 C 246.857 327.313 244.925 327.098 244.925 326.776 C 244.925 326.454 245.515 325.595 246.266 324.898 C 247.984 323.126 251.634 323.019 253.727 324.683 Z "
                  fill="rgb(0,0,0)"/>
            <path d=" M 149.49 318.242 C 146.591 319.101 142.673 323.341 141.653 326.723 C 140.58 330.373 140.58 331.768 141.653 335.418 C 143.424 341.269 149.973 345.563 156.145 344.865 C 159.688 344.489 164.25 342.02 166.075 339.497 C 168.383 336.331 168.169 335.686 164.572 334.667 L 161.459 333.808 L 160.117 335.311 C 157.702 338.102 155.018 338.746 152.066 337.243 C 149.704 336.008 148.846 334.398 148.846 331.178 C 148.846 328.601 149.06 328.065 150.671 326.454 C 153.032 324.093 156.253 323.931 159.259 325.971 C 160.815 327.045 161.889 327.313 164.411 327.313 L 167.632 327.313 L 167.632 323.556 L 167.632 319.798 L 165.27 319.798 C 163.982 319.798 161.889 319.315 160.6 318.725 C 158.024 317.598 152.657 317.329 149.49 318.242 Z "
                  fill="rgb(0,0,0)"/>
            <path d=" M 179.441 318.349 C 176.757 319.208 172.141 323.878 171.443 326.508 C 169.886 332.305 171.497 338.424 175.469 341.698 C 177.669 343.523 181.749 345.026 184.54 345.026 C 187.331 345.026 191.41 343.523 193.611 341.698 C 197.583 338.424 199.193 332.305 197.637 326.508 C 196.885 323.663 192.323 319.208 189.317 318.296 C 186.633 317.49 182.017 317.544 179.441 318.349 Z  M 188.619 326.132 C 191.947 329.138 191.195 335.311 187.223 337.189 C 185.023 338.263 184.057 338.263 181.91 337.243 C 179.602 336.169 178.367 333.861 178.367 330.802 C 178.367 328.655 178.635 328.011 180.192 326.454 C 181.749 324.898 182.393 324.629 184.486 324.629 C 186.418 324.629 187.277 324.951 188.619 326.132 Z "
                  fill="rgb(0,0,0)"/>
        </g>
        <g>
            <path d=" M 282.678 406.694 L 279.297 408.358 L 279.297 411.471 L 279.297 414.584 L 277.418 414.584 L 275.54 414.584 L 275.54 418.073 L 275.54 421.562 L 277.418 421.562 L 279.297 421.562 L 279.297 428.54 C 279.297 436.162 279.726 437.718 282.303 439.758 C 283.054 440.349 284.503 440.993 285.523 441.207 C 287.402 441.529 292.501 440.563 292.984 439.812 C 293.145 439.543 293.091 438.309 292.93 437.128 C 292.555 434.874 292.555 434.874 290.622 435.196 C 287.348 435.679 287.08 435.249 286.919 428.003 L 286.704 421.562 L 289.442 421.562 L 292.179 421.562 L 292.179 418.073 L 292.179 414.584 L 289.764 414.584 L 287.348 414.584 L 287.348 409.754 C 287.348 406.211 287.187 404.923 286.704 404.976 C 286.328 404.976 284.503 405.728 282.678 406.694 Z "
                  fill="rgb(0,0,0)"/>
            <path d=" M 305.813 414.209 C 299.694 416.624 295.99 422.636 296.741 428.808 C 298.03 439.221 308.443 444.321 318.748 439.597 L 321.754 438.202 L 320.359 435.571 L 318.909 432.995 L 316.494 433.693 C 311.126 435.303 306.403 434.283 304.793 431.224 L 303.934 429.613 L 313.649 429.613 L 323.311 429.613 L 323.311 427.305 C 323.311 421.938 320.681 417.053 316.709 415.014 C 314.025 413.672 308.282 413.189 305.813 414.209 Z  M 312.844 420.274 C 313.273 420.489 314.025 421.294 314.508 422.153 L 315.313 423.709 L 309.892 423.709 C 304.685 423.709 304.524 423.655 305.061 422.689 C 306.296 420.381 310.053 419.2 312.844 420.274 Z "
                  fill="rgb(0,0,0)"/>
            <path d=" M 334.314 414.799 C 332.543 415.336 328.839 417 328.249 417.536 C 328.141 417.59 328.625 418.771 329.269 420.113 L 330.45 422.582 L 332.328 421.777 C 334.851 420.757 340.433 420.811 341.99 421.884 C 342.634 422.314 343.171 423.226 343.171 423.87 C 343.171 425.051 343.01 425.051 339.36 424.89 C 334.422 424.568 331.255 425.534 329.215 427.842 C 327.336 429.989 326.8 431.653 327.283 434.337 C 327.873 438.255 330.986 440.778 335.763 441.261 C 337.749 441.476 339.252 441.261 340.702 440.671 C 342.151 440.08 342.956 439.973 343.171 440.349 C 343.385 440.724 345.532 440.885 348.86 440.778 L 354.174 440.617 L 354.335 437.235 L 354.496 433.907 L 352.564 433.907 L 350.685 433.907 L 350.685 427.735 C 350.685 420.757 350.148 418.771 347.518 416.57 C 344.566 414.101 338.93 413.35 334.314 414.799 Z  M 343.171 431.975 C 343.171 433.854 342.419 434.444 338.877 435.249 C 335.656 436.001 332.972 433.263 334.905 431.17 C 335.656 430.365 336.569 430.15 339.521 430.15 L 343.171 430.15 L 343.171 431.975 Z "
                  fill="rgb(0,0,0)"/>
        </g>
        <g>
            <path d=" M 262.335 355.919 C 259.92 356.939 259.222 361.018 261.101 362.897 C 263.463 365.258 267.059 364.668 268.293 361.716 C 269.099 359.891 268.615 357.583 267.327 356.509 C 266.307 355.65 263.677 355.328 262.335 355.919 Z "
                  fill="rgb(0,0,0)"/>
            <path d=" M 275.701 358.71 L 275.862 362.091 L 277.901 362.252 L 279.887 362.413 L 279.887 375.027 L 279.887 387.587 L 277.74 387.587 L 275.593 387.587 L 275.593 391.076 L 275.593 394.565 L 283.645 394.565 L 291.696 394.565 L 291.696 391.076 L 291.696 387.587 L 289.549 387.587 L 287.402 387.587 L 287.402 371.485 L 287.402 355.382 L 281.498 355.382 L 275.54 355.382 L 275.701 358.71 Z "
                  fill="rgb(0,0,0)"/>
            <path d=" M 295.453 358.871 L 295.453 362.36 L 297.332 362.36 L 299.21 362.36 L 299.21 374.974 L 299.21 387.587 L 297.332 387.587 L 295.453 387.587 L 295.453 391.076 L 295.453 394.565 L 302.699 394.565 L 309.946 394.565 L 309.946 391.076 C 309.946 387.695 309.892 387.587 308.604 387.587 C 307.423 387.587 307.262 387.373 307.262 385.44 C 307.262 383.293 307.262 383.293 309.301 383.293 C 311.18 383.293 311.448 383.562 315.528 388.929 L 319.768 394.565 L 323.15 394.565 L 326.585 394.565 L 326.585 390.539 L 326.585 386.514 L 324.331 386.514 C 322.345 386.514 321.808 386.245 320.412 384.528 C 317.192 380.556 317.245 380.985 319.929 377.979 C 322.184 375.457 322.613 375.242 324.76 375.242 L 327.122 375.242 L 327.122 371.753 L 327.122 368.264 L 320.144 368.264 L 313.166 368.264 L 313.166 371.914 C 313.166 376.584 312.307 377.926 309.355 377.926 L 307.262 377.926 L 307.262 366.654 L 307.262 355.382 L 301.357 355.382 L 295.453 355.382 L 295.453 358.871 Z "
                  fill="rgb(0,0,0)"/>
            <path d=" M 218.697 368.21 C 217.946 368.479 216.55 369.069 215.584 369.552 C 213.92 370.411 213.867 370.411 213.867 369.338 C 213.867 368.318 213.544 368.264 207.962 368.264 L 202.058 368.264 L 202.058 371.753 L 202.058 375.242 L 203.937 375.242 L 205.815 375.242 L 205.815 381.415 L 205.815 387.587 L 203.937 387.587 L 202.058 387.587 L 202.058 391.076 L 202.058 394.565 L 210.109 394.565 L 218.161 394.565 L 218.161 391.076 L 218.161 387.587 L 216.282 387.587 L 214.403 387.587 L 214.403 382.22 L 214.403 376.852 L 216.175 375.779 C 218.536 374.329 220.63 374.437 222.186 376.047 C 223.474 377.335 223.528 377.496 223.528 385.977 L 223.528 394.619 L 229.593 394.458 L 235.605 394.297 L 235.766 390.915 L 235.927 387.587 L 234.048 387.587 L 232.17 387.587 L 232.009 382.595 C 231.901 379.912 232.062 377.335 232.331 376.96 C 233.351 375.564 235.927 374.598 237.806 374.974 C 240.758 375.51 241.241 377.121 241.241 386.514 L 241.241 394.565 L 247.145 394.565 L 253.05 394.565 L 253.05 391.076 L 253.05 387.587 L 251.171 387.587 L 249.292 387.587 L 249.292 381.254 C 249.292 376.208 249.078 374.544 248.219 372.719 C 245.803 367.405 238.504 366.224 232.653 370.143 C 230.13 371.807 229.915 371.86 229.432 370.948 C 228.144 368.586 222.401 367.083 218.697 368.21 Z "
                  fill="rgb(0,0,0)"/>
            <path d=" M 256.27 371.753 L 256.27 375.242 L 258.149 375.242 L 260.027 375.242 L 260.027 381.415 L 260.027 387.587 L 258.149 387.587 L 256.27 387.587 L 256.27 391.076 L 256.27 394.565 L 264.053 394.565 L 271.836 394.565 L 271.836 391.076 L 271.836 387.587 L 269.957 387.587 L 268.079 387.587 L 268.079 377.926 L 268.079 368.264 L 262.174 368.264 L 256.27 368.264 L 256.27 371.753 Z "
                  fill="rgb(0,0,0)"/>
        </g>
    </g>
</svg>
