<?xml version="1.0" encoding="UTF-8"?>
<svg width="6px"
     height="3px"
     viewBox="0 0 6 3"
     version="1.1"
     xmlns="http://www.w3.org/2000/svg"
>
    <!-- Generator: sketchtool 55.2 (78181) - https://sketchapp.com -->
    <title>B5535965-E8DE-4BBF-8B9D-C9E97F2EBFEE</title>
    <desc>Created with sketchtool.</desc>
    <g id="Page-1" stroke="none" stroke-width="1" fill="none" fill-rule="evenodd" fill-opacity="0.9">
        <g id="Result-Listing-Summary"
           transform="translate(-424.000000, -44.000000)"
           fill="#262626"
           fill-rule="nonzero">
            <g id="Header">
                <g id="Group-3" transform="translate(359.000000, 38.000000)">
                    <g id="sort-down" transform="translate(65.000000, 6.000000)">
                        <path d="M5.18557229,0.115246988 C5.12025904,0.0498795181 5.04283735,0.0172228916 4.95337952,0.0172228916 L0.330253012,0.0172228916 C0.240759036,0.0172228916 0.163391566,0.0498795181 0.0980240964,0.115246988 C0.0326566265,0.180686747 0,0.258054217 0,0.347493976 C0,0.436915663 0.0326566265,0.514283133 0.0980240964,0.579668675 L2.40959639,2.89124096 C2.47503614,2.95660843 2.55240361,2.98933735 2.6418253,2.98933735 C2.73124699,2.98933735 2.80868675,2.95660843 2.874,2.89124096 L5.18557229,0.579650602 C5.25086747,0.514283133 5.2836506,0.436915663 5.2836506,0.347475904 C5.2836506,0.258054217 5.25086747,0.180686747 5.18557229,0.115246988 Z"
                              id="Path"></path>
                    </g>
                </g>
            </g>
        </g>
    </g>
</svg>
