<?xml version="1.0" standalone="no"?><!-- Generator: Gravit.io -->
<svg xmlns="http://www.w3.org/2000/svg"
     style="isolation:isolate" viewBox="68.41 618.4 56.693 36.757" width="56.693" height="36.757">
    <g>
        <path d=" M 71.726 635.44 L 124.075 635.44 C 124.355 635.44 124.617 635.561 124.804 635.829 C 125.009 636.072 125.103 636.413 125.103 636.778 C 125.103 637.119 125.009 637.46 124.804 637.703 C 124.617 637.971 124.355 638.117 124.094 638.117 L 71.726 638.117 C 71.446 638.117 71.184 637.971 70.997 637.703 C 70.81 637.46 70.698 637.119 70.698 636.778 C 70.698 636.413 70.81 636.072 70.997 635.829 C 71.184 635.561 71.446 635.44 71.726 635.44 Z "
              fill="rgb(0,0,0)"/>
        <path d=" M 70.698 635.829 L 87.738 652.868 C 87.981 653.112 88.127 653.453 88.127 653.818 C 88.127 654.159 87.981 654.499 87.738 654.743 C 87.47 655.011 87.129 655.157 86.788 655.157 C 86.423 655.157 86.082 655.011 85.839 654.743 L 68.799 637.703 C 68.556 637.46 68.41 637.119 68.41 636.778 C 68.41 636.413 68.556 636.072 68.799 635.829 C 69.043 635.561 69.384 635.44 69.749 635.44 C 70.09 635.44 70.43 635.561 70.698 635.829 Z "
              fill="rgb(0,0,0)"/>
        <path d=" M 68.799 635.829 L 85.839 618.789 C 86.082 618.522 86.423 618.4 86.788 618.4 C 87.129 618.4 87.47 618.522 87.738 618.789 C 87.981 619.033 88.127 619.374 88.127 619.739 C 88.127 620.08 87.981 620.42 87.738 620.664 L 70.698 637.703 C 70.43 637.971 70.09 638.117 69.749 638.117 C 69.384 638.117 69.043 637.971 68.799 637.703 C 68.556 637.46 68.41 637.119 68.41 636.778 C 68.41 636.413 68.556 636.072 68.799 635.829 Z "
              fill="rgb(0,0,0)"/>
    </g>
</svg>
