<?xml version="1.0" standalone="no"?><!-- Generator: Gravit.io -->
<svg xmlns="http://www.w3.org/2000/svg"
     style="isolation:isolate" viewBox="126.666 93.686 75.37 48" width="75.37" height="48">
    <g>
        <g>
            <path d=" M 153.762 94.86 C 153.819 96.053 153.819 96.053 154.444 96.11 L 155.05 96.166 L 155.05 97.284 L 155.05 98.42 L 154.558 98.23 C 153.933 97.984 152.304 97.984 151.433 98.23 C 150.335 98.533 149.066 99.783 148.631 100.995 C 148.138 102.301 148.138 103.248 148.612 104.536 C 148.991 105.521 149.975 106.676 150.827 107.111 C 151.736 107.566 153.213 107.717 154.16 107.433 C 154.652 107.282 155.05 107.244 155.05 107.338 C 155.05 107.433 156.072 107.509 157.322 107.509 L 159.594 107.509 L 159.594 106.278 L 159.594 105.047 L 158.742 105.047 L 157.89 105.047 L 157.89 99.366 L 157.89 93.686 L 155.807 93.686 L 153.706 93.686 L 153.762 94.86 Z  M 154.558 100.9 C 155.05 101.279 155.069 101.374 155.012 102.813 C 154.955 104.214 154.917 104.384 154.463 104.725 C 153.838 105.18 152.607 105.199 151.963 104.763 C 151.358 104.365 151.073 103.703 151.073 102.661 C 151.073 101.923 151.168 101.696 151.717 101.146 C 152.266 100.597 152.494 100.503 153.213 100.503 C 153.781 100.503 154.217 100.635 154.558 100.9 Z "
                  fill="rgb(0,0,0)"/>
            <path d=" M 163.685 98.155 C 161.867 98.817 160.75 100.313 160.598 102.283 C 160.352 105.274 162.17 107.414 165.162 107.641 C 166.468 107.755 168.172 107.357 168.873 106.789 C 169.289 106.448 169.289 106.429 168.968 105.786 C 168.418 104.706 168.381 104.687 167.585 104.971 C 167.207 105.104 166.336 105.218 165.692 105.236 C 164.556 105.236 164.442 105.199 163.836 104.593 C 163.476 104.233 163.192 103.854 163.192 103.741 C 163.192 103.608 164.309 103.532 166.563 103.494 L 169.914 103.438 L 169.895 102.434 C 169.858 101.071 169.403 99.972 168.532 99.12 C 167.32 97.927 165.351 97.53 163.685 98.155 Z  M 166.487 100.522 C 167.434 101.26 167.169 101.449 165.18 101.449 C 164.063 101.449 163.382 101.374 163.382 101.26 C 163.382 101.146 163.59 100.843 163.855 100.597 C 164.461 99.972 165.749 99.935 166.487 100.522 Z "
                  fill="rgb(0,0,0)"/>
            <path d=" M 129.714 98.249 C 128.692 98.552 127.309 100.048 126.95 101.241 C 126.571 102.529 126.571 103.021 126.95 104.309 C 127.575 106.373 129.885 107.887 132.062 107.641 C 133.312 107.509 134.922 106.638 135.565 105.748 C 136.38 104.631 136.304 104.403 135.035 104.044 L 133.937 103.741 L 133.463 104.271 C 132.611 105.255 131.665 105.483 130.623 104.952 C 129.79 104.517 129.487 103.949 129.487 102.813 C 129.487 101.904 129.563 101.714 130.131 101.146 C 130.964 100.313 132.1 100.256 133.161 100.976 C 133.71 101.355 134.088 101.449 134.978 101.449 L 136.114 101.449 L 136.114 100.124 L 136.114 98.798 L 135.281 98.798 C 134.827 98.798 134.088 98.628 133.634 98.42 C 132.725 98.022 130.831 97.927 129.714 98.249 Z "
                  fill="rgb(0,0,0)"/>
            <path d=" M 140.28 98.287 C 139.333 98.59 137.705 100.238 137.459 101.165 C 136.91 103.21 137.478 105.369 138.879 106.524 C 139.655 107.168 141.094 107.698 142.079 107.698 C 143.064 107.698 144.503 107.168 145.279 106.524 C 146.68 105.369 147.249 103.21 146.699 101.165 C 146.434 100.162 144.825 98.59 143.764 98.268 C 142.818 97.984 141.189 98.003 140.28 98.287 Z  M 143.518 101.033 C 144.692 102.093 144.427 104.271 143.026 104.934 C 142.25 105.312 141.909 105.312 141.151 104.952 C 140.337 104.574 139.902 103.76 139.902 102.68 C 139.902 101.923 139.996 101.696 140.545 101.146 C 141.094 100.597 141.322 100.503 142.06 100.503 C 142.742 100.503 143.045 100.616 143.518 101.033 Z "
                  fill="rgb(0,0,0)"/>
        </g>
        <g>
            <path d=" M 176.7 129.453 L 175.507 130.04 L 175.507 131.138 L 175.507 132.237 L 174.845 132.237 L 174.182 132.237 L 174.182 133.468 L 174.182 134.698 L 174.845 134.698 L 175.507 134.698 L 175.507 137.16 C 175.507 139.849 175.659 140.398 176.568 141.117 C 176.833 141.326 177.344 141.553 177.704 141.629 C 178.367 141.742 180.165 141.402 180.336 141.136 C 180.393 141.042 180.374 140.606 180.317 140.19 C 180.184 139.394 180.184 139.394 179.503 139.508 C 178.348 139.678 178.253 139.527 178.196 136.971 L 178.12 134.698 L 179.086 134.698 L 180.052 134.698 L 180.052 133.468 L 180.052 132.237 L 179.2 132.237 L 178.348 132.237 L 178.348 130.533 C 178.348 129.283 178.291 128.828 178.12 128.847 C 177.988 128.847 177.344 129.112 176.7 129.453 Z "
                  fill="rgb(0,0,0)"/>
            <path d=" M 184.861 132.104 C 182.703 132.956 181.396 135.077 181.661 137.255 C 182.116 140.928 185.789 142.727 189.425 141.061 L 190.485 140.568 L 189.993 139.641 L 189.482 138.732 L 188.63 138.978 C 186.736 139.546 185.07 139.186 184.502 138.107 L 184.199 137.539 L 187.626 137.539 L 191.034 137.539 L 191.034 136.724 C 191.034 134.831 190.107 133.108 188.705 132.388 C 187.759 131.915 185.733 131.744 184.861 132.104 Z  M 187.342 134.244 C 187.494 134.32 187.759 134.604 187.929 134.907 L 188.213 135.456 L 186.301 135.456 C 184.464 135.456 184.407 135.437 184.596 135.096 C 185.032 134.282 186.357 133.865 187.342 134.244 Z "
                  fill="rgb(0,0,0)"/>
            <path d=" M 194.916 132.312 C 194.291 132.502 192.985 133.089 192.777 133.278 C 192.739 133.297 192.909 133.714 193.136 134.187 L 193.553 135.058 L 194.216 134.774 C 195.106 134.414 197.075 134.433 197.624 134.812 C 197.851 134.963 198.041 135.285 198.041 135.513 C 198.041 135.929 197.984 135.929 196.696 135.872 C 194.954 135.759 193.837 136.1 193.117 136.914 C 192.455 137.671 192.265 138.258 192.436 139.205 C 192.644 140.587 193.742 141.477 195.427 141.648 C 196.128 141.723 196.658 141.648 197.17 141.439 C 197.681 141.231 197.965 141.193 198.041 141.326 C 198.116 141.458 198.874 141.515 200.048 141.477 L 201.922 141.42 L 201.979 140.228 L 202.036 139.054 L 201.354 139.054 L 200.692 139.054 L 200.692 136.876 C 200.692 134.414 200.502 133.714 199.574 132.937 C 198.533 132.066 196.545 131.801 194.916 132.312 Z  M 198.041 138.372 C 198.041 139.035 197.775 139.243 196.526 139.527 C 195.39 139.792 194.443 138.826 195.125 138.088 C 195.39 137.804 195.712 137.728 196.753 137.728 L 198.041 137.728 L 198.041 138.372 Z "
                  fill="rgb(0,0,0)"/>
        </g>
        <g>
            <path d=" M 169.524 111.541 C 168.672 111.901 168.425 113.34 169.088 114.002 C 169.921 114.836 171.19 114.627 171.626 113.586 C 171.91 112.942 171.739 112.128 171.285 111.749 C 170.925 111.446 169.997 111.333 169.524 111.541 Z "
                  fill="rgb(0,0,0)"/>
            <path d=" M 174.239 112.525 L 174.295 113.718 L 175.015 113.775 L 175.716 113.832 L 175.716 118.282 L 175.716 122.713 L 174.958 122.713 L 174.201 122.713 L 174.201 123.944 L 174.201 125.174 L 177.041 125.174 L 179.881 125.174 L 179.881 123.944 L 179.881 122.713 L 179.124 122.713 L 178.367 122.713 L 178.367 117.032 L 178.367 111.351 L 176.284 111.351 L 174.182 111.351 L 174.239 112.525 Z "
                  fill="rgb(0,0,0)"/>
            <path d=" M 181.207 112.582 L 181.207 113.813 L 181.87 113.813 L 182.532 113.813 L 182.532 118.263 L 182.532 122.713 L 181.87 122.713 L 181.207 122.713 L 181.207 123.944 L 181.207 125.174 L 183.763 125.174 L 186.32 125.174 L 186.32 123.944 C 186.32 122.751 186.301 122.713 185.846 122.713 C 185.43 122.713 185.373 122.637 185.373 121.955 C 185.373 121.198 185.373 121.198 186.092 121.198 C 186.755 121.198 186.85 121.293 188.289 123.186 L 189.785 125.174 L 190.978 125.174 L 192.19 125.174 L 192.19 123.754 L 192.19 122.334 L 191.394 122.334 C 190.694 122.334 190.504 122.239 190.012 121.633 C 188.876 120.232 188.895 120.384 189.842 119.323 C 190.637 118.433 190.788 118.358 191.546 118.358 L 192.379 118.358 L 192.379 117.127 L 192.379 115.896 L 189.917 115.896 L 187.456 115.896 L 187.456 117.184 C 187.456 118.831 187.153 119.304 186.111 119.304 L 185.373 119.304 L 185.373 115.328 L 185.373 111.351 L 183.29 111.351 L 181.207 111.351 L 181.207 112.582 Z "
                  fill="rgb(0,0,0)"/>
            <path d=" M 154.129 115.877 C 153.864 115.972 153.372 116.18 153.031 116.35 C 152.444 116.653 152.425 116.653 152.425 116.275 C 152.425 115.915 152.311 115.896 150.342 115.896 L 148.259 115.896 L 148.259 117.127 L 148.259 118.358 L 148.922 118.358 L 149.585 118.358 L 149.585 120.535 L 149.585 122.713 L 148.922 122.713 L 148.259 122.713 L 148.259 123.944 L 148.259 125.174 L 151.099 125.174 L 153.94 125.174 L 153.94 123.944 L 153.94 122.713 L 153.277 122.713 L 152.614 122.713 L 152.614 120.819 L 152.614 118.926 L 153.239 118.547 C 154.072 118.036 154.811 118.074 155.36 118.642 C 155.814 119.096 155.833 119.153 155.833 122.145 L 155.833 125.193 L 157.973 125.137 L 160.094 125.08 L 160.151 123.887 L 160.207 122.713 L 159.545 122.713 L 158.882 122.713 L 158.825 120.952 C 158.787 120.005 158.844 119.096 158.939 118.964 C 159.299 118.471 160.207 118.13 160.87 118.263 C 161.912 118.452 162.082 119.02 162.082 122.334 L 162.082 125.174 L 164.165 125.174 L 166.248 125.174 L 166.248 123.944 L 166.248 122.713 L 165.585 122.713 L 164.922 122.713 L 164.922 120.478 C 164.922 118.698 164.847 118.111 164.544 117.468 C 163.692 115.593 161.116 115.176 159.052 116.559 C 158.162 117.146 158.087 117.165 157.916 116.843 C 157.462 116.01 155.436 115.479 154.129 115.877 Z "
                  fill="rgb(0,0,0)"/>
            <path d=" M 167.384 117.127 L 167.384 118.358 L 168.047 118.358 L 168.71 118.358 L 168.71 120.535 L 168.71 122.713 L 168.047 122.713 L 167.384 122.713 L 167.384 123.944 L 167.384 125.174 L 170.13 125.174 L 172.875 125.174 L 172.875 123.944 L 172.875 122.713 L 172.213 122.713 L 171.55 122.713 L 171.55 119.304 L 171.55 115.896 L 169.467 115.896 L 167.384 115.896 L 167.384 117.127 Z "
                  fill="rgb(0,0,0)"/>
        </g>
    </g>
</svg>
