<?xml version="1.0" standalone="no"?><!-- Generator: Gravit.io -->
<svg xmlns="http://www.w3.org/2000/svg"
     style="isolation:isolate" viewBox="221.128 621.336 26.145 34.016" width="26.145" height="34.016">
    <g>
        <g>
            <g>
                <g>
                    <g>
                        <g>
                            <g>
                                <path d=" M 232.795 634.421 C 232.795 634.042 232.947 633.687 233.2 633.434 C 233.478 633.181 233.833 633.029 234.187 633.029 C 234.567 633.029 234.921 633.181 235.174 633.434 C 235.427 633.687 235.579 634.042 235.579 634.421 L 235.579 653.884 C 235.579 654.264 235.427 654.618 235.174 654.871 C 234.921 655.124 234.567 655.276 234.187 655.276 C 233.833 655.276 233.478 655.124 233.2 654.871 C 232.947 654.618 232.795 654.264 232.795 653.884 L 232.795 634.421 Z "
                                      fill="rgb(0,0,0)"/>
                                <path d=" M 221.128 622.728 C 221.128 622.374 221.279 622.02 221.532 621.741 C 221.786 621.488 222.14 621.336 222.52 621.336 C 222.874 621.336 223.228 621.488 223.507 621.741 C 223.76 622.02 223.912 622.374 223.912 622.728 L 223.912 653.884 C 223.912 654.264 223.76 654.618 223.507 654.871 C 223.228 655.124 222.874 655.276 222.52 655.276 C 222.14 655.276 221.786 655.124 221.532 654.871 C 221.279 654.618 221.128 654.264 221.128 653.884 L 221.128 622.728 Z "
                                      fill="rgb(0,0,0)"/>
                                <path d=" M 244.488 646.19 C 244.488 645.81 244.64 645.456 244.893 645.203 C 245.146 644.925 245.5 644.798 245.88 644.798 C 246.234 644.798 246.589 644.925 246.867 645.203 C 247.12 645.456 247.272 645.81 247.272 646.19 L 247.272 653.96 C 247.272 654.34 247.12 654.694 246.867 654.947 C 246.589 655.2 246.234 655.352 245.88 655.352 C 245.5 655.352 245.146 655.2 244.893 654.947 C 244.64 654.694 244.488 654.34 244.488 653.96 L 244.488 646.19 Z "
                                      fill="rgb(0,0,0)"/>
                            </g>
                        </g>
                    </g>
                </g>
            </g>
        </g>
    </g>
</svg>
