<?xml version="1.0" encoding="UTF-8"?>
<svg width="25px" height="28px" viewBox="0 0 25 28" version="1.1" xmlns="http://www.w3.org/2000/svg">
    <defs>
        <linearGradient x1="82.6710516%" y1="17.2335404%" x2="-17.365562%" y2="83.8463081%" id="linearGradient-1">
            <stop stop-color="#15A6CF" offset="0%"/>
            <stop stop-color="#BDEFFD" offset="100%"/>
        </linearGradient>
        <linearGradient x1="77.9459033%" y1="25.7078609%" x2="-16.329534%" y2="124.903199%" id="linearGradient-2">
            <stop stop-color="#15A6CF" offset="0%"/>
            <stop stop-color="#BDEFFD" offset="100%"/>
        </linearGradient>
    </defs>
    <g id="Page-1" stroke="none" stroke-width="1" fill="none" fill-rule="evenodd">
        <g id="Result-Detail-Tokopedia" transform="translate(-113.000000, -369.000000)" fill-rule="nonzero">
            <g id="Product-button" transform="translate(100.000000, 358.000000)">
                <g id="Group-4">
                    <g id="open_box_with_two_hearts" transform="translate(13.000000, 11.000000)">
                        <path d="M24.6061126,12.5657967 L22.8348214,10.8879808 C22.6802885,10.7415522 22.4793269,10.6241758 22.2578984,10.5447115 C22.2002747,10.4926511 22.1303571,10.4524725 22.0504121,10.4304258 L20.4548764,9.98942308 C20.5173764,9.85384615 20.5723901,9.70631868 20.6157967,9.54395604 C20.9655907,8.23228022 20.2520604,6.88392857 18.9913462,6.47424451 C18.7974588,6.41126374 18.5926511,6.37925824 18.3825549,6.37925824 C17.804533,6.37925824 17.2959478,6.61504121 16.9394231,6.80837912 C16.7136676,6.32067308 16.295467,5.59821429 15.4561126,5.32541209 C15.2141484,5.2467033 14.9625687,5.20686813 14.7085165,5.20686813 C13.6697115,5.20686813 12.7167582,5.86868132 12.3372253,6.85377747 C12.1821429,7.25652473 12.1423077,7.62754121 12.1559066,7.95116758 C12.012294,7.96627747 11.8758929,7.9896978 11.7558379,8.02218407 L2.85934066,10.4296703 C2.84429945,10.4337225 2.82973901,10.4386676 2.81538462,10.443956 C2.55563187,10.521978 2.31792582,10.6515797 2.14093407,10.8192308 L0.369642857,12.4971841 C0.109203297,12.7438874 -0.00631868132,13.0642857 0.0527472527,13.3760989 C0.111675824,13.6879808 0.336332418,13.9440247 0.668887363,14.0785714 L2.47884615,14.8107143 L2.47884615,21.5955357 C2.47884615,22.1653159 2.85995879,22.7932692 3.36538462,23.0563874 L11.7063187,27.396772 C11.9404533,27.518544 12.2412775,27.5857143 12.5533654,27.5857143 C12.8653846,27.5857143 13.1662088,27.518544 13.4003434,27.396772 L21.7412088,23.0563187 C22.2466346,22.7932692 22.6278159,22.1652473 22.6278159,21.595467 L22.6278159,14.8263736 L24.3068681,14.1471154 C24.6394231,14.0125687 24.864011,13.7565247 24.9230082,13.4446429 C24.9820742,13.132967 24.8665522,12.8125687 24.6061126,12.5657967 Z M13.2985577,7.22424451 C13.5260302,6.63385989 14.0926511,6.23722527 14.7084478,6.23722527 C14.8541896,6.23722527 14.9986264,6.26009615 15.1375687,6.30528846 C15.6798764,6.48145604 15.9396291,7.08509615 16.0948489,7.44581044 C16.1998626,7.68990385 16.2905907,7.90061813 16.5463599,7.98379121 C16.601717,8.00178571 16.6597527,8.01092033 16.7190247,8.01092033 C16.7190934,8.01092033 16.7192308,8.01092033 16.7192995,8.01092033 C16.9032967,8.01085165 17.0458104,7.93021978 17.2615385,7.80831044 C17.5423077,7.64945055 17.9665522,7.4095467 18.3824863,7.4095467 C18.4857143,7.4095467 18.5807005,7.42410714 18.6728709,7.4540522 C19.4006181,7.69052198 19.8255495,8.50892857 19.6203984,9.27843407 C19.5159341,9.66964286 19.3103709,9.96538462 18.9331731,10.2671703 C18.2649038,10.8019918 15.9391484,11.7342033 15.3157967,11.7802198 C14.865522,11.4043269 13.4936813,9.22891484 13.2731456,8.42747253 C13.1451923,7.9625 13.1528159,7.60254121 13.2985577,7.22424451 Z M12.0249313,9.01668956 C12.1191621,8.99120879 12.2400412,8.97513736 12.3688874,8.96730769 C12.5929258,9.55796703 13.0543269,10.3736264 13.450206,10.9974588 C13.9214973,11.7402473 14.2563874,12.1653846 14.4945742,12.412706 L12.5533654,12.9805632 L5.2603022,10.8471841 L12.0249313,9.01668956 Z M2.84951923,11.5671703 C2.95542582,11.4668269 3.17870879,11.3911401 3.36895604,11.3911401 C3.43633242,11.3911401 3.48200549,11.4004121 3.50851648,11.4081044 L11.6953984,13.803022 L9.7845467,16.3519231 C9.72252747,16.4347527 9.58399725,16.4947802 9.4551511,16.4947802 C9.41208791,16.4947802 9.37273352,16.4880495 9.34127747,16.4753434 L1.16126374,13.1662775 L2.84951923,11.5671703 Z M3.84086538,22.1424451 C3.67644231,22.0569368 3.50899725,21.7809066 3.50899725,21.5955357 L3.50899725,15.2274725 L8.95487637,17.4304945 C9.11009615,17.4932692 9.27836538,17.5250687 9.45494505,17.5250687 C9.45501374,17.5250687 9.45501374,17.5250687 9.45508242,17.5250687 C9.91002747,17.5250687 10.3521978,17.312294 10.6088599,16.9699176 L12.0381868,15.0633242 L12.0381868,26.4080357 L3.84086538,22.1424451 Z M21.5975962,21.5955357 C21.5975962,21.7808379 21.4300824,22.0568681 21.2656593,22.1424451 L13.0683379,26.4081044 L13.0683379,15.306456 L14.3668269,17.0385302 C14.623489,17.3809753 15.0656593,17.59375 15.5206731,17.59375 C15.6973214,17.59375 15.8655907,17.5619505 16.0208104,17.4991758 L21.5975962,15.2432005 L21.5975962,21.5955357 L21.5975962,21.5955357 Z M15.6345467,16.5440934 C15.6030907,16.5568681 15.5637363,16.5635302 15.5207418,16.5635302 C15.3918956,16.5635302 15.2532967,16.5034341 15.1912088,16.4206044 L13.2804258,13.871772 L21.4673764,11.4768544 C21.4938187,11.4691621 21.5394918,11.4598901 21.6068681,11.4598901 C21.7971154,11.4598901 22.0203984,11.5355769 22.1263049,11.6359203 L23.8145604,13.2350275 L15.6345467,16.5440934 Z"
                              id="Shape"
                              fill="url(#linearGradient-1)"/>
                        <path d="M5.47163462,6.58385989 C6.27342033,7.03976648 8.70027473,7.64423077 9.72850275,7.64423077 C9.96662088,7.64423077 10.1335852,7.61325549 10.2700549,7.54375 C10.4067308,7.47410714 10.7696429,7.28921703 11.5182005,5.55137363 C11.8553571,4.76847527 12.2399038,3.71339286 12.3078984,3.10041209 C12.3565934,2.66181319 12.3737637,1.99656593 11.9624313,1.28571429 C11.5032967,0.49271978 10.6537775,0 9.74539835,0 C9.35762363,0 8.98681319,0.0887362637 8.64306319,0.263873626 C7.88385989,0.650686813 7.58035714,1.44306319 7.42864011,1.9510989 C7.13413462,1.84299451 6.73839286,1.72534341 6.3010989,1.72534341 C5.95171703,1.72534341 5.62527473,1.80130495 5.33090659,1.95130495 C4.14972527,2.55315934 3.65576923,3.99656593 4.20645604,5.2375 C4.54017857,5.98928571 5.08832418,6.36593407 5.47163462,6.58385989 Z M5.79862637,2.86923077 C5.94883242,2.79271978 6.11318681,2.75556319 6.3010989,2.75556319 C6.67101648,2.75556319 7.03866758,2.90199176 7.28193681,2.9989011 C7.46490385,3.07184066 7.58578297,3.11991758 7.72850275,3.11991758 C7.81861264,3.11991758 7.90377747,3.09979396 7.98186813,3.06002747 C8.22245879,2.93736264 8.2845467,2.7135989 8.36318681,2.43028846 C8.46806319,2.05233516 8.64361264,1.41978022 9.11071429,1.18179945 C9.30824176,1.08118132 9.5217033,1.03021978 9.74532967,1.03021978 C10.287294,1.03021978 10.7951923,1.32596154 11.0707418,1.80192308 C11.273489,2.15226648 11.337294,2.50666209 11.2839286,2.98688187 C11.1887363,3.84443681 10.1921703,6.17053571 9.80041209,6.61215659 C9.78228022,6.61325549 9.75865385,6.61401099 9.72843407,6.61401099 C8.89649725,6.61401099 6.6198489,6.05164835 5.98076923,5.68825549 C5.56153846,5.44986264 5.3125,5.19004121 5.14793956,4.81950549 C4.825,4.0915522 5.11682692,3.21662088 5.79862637,2.86923077 Z"
                              id="Shape"
                              fill="url(#linearGradient-2)"/>
                    </g>
                </g>
            </g>
        </g>
    </g>
</svg>
