<?xml version="1.0" encoding="UTF-8"?>
<svg width="25px" height="22px" viewBox="0 0 25 22" version="1.1" xmlns="http://www.w3.org/2000/svg">
    <defs>
        <linearGradient x1="82.6710516%" y1="17.2335404%" x2="-17.365562%" y2="83.8463081%" id="linearGradient-1">
            <stop stop-color="#15A6CF" offset="0%"/>
            <stop stop-color="#BDEFFD" offset="100%"/>
        </linearGradient>
        <linearGradient x1="77.9459033%" y1="25.7078609%" x2="-16.329534%" y2="124.903199%" id="linearGradient-2">
            <stop stop-color="#15A6CF" offset="0%"/>
            <stop stop-color="#BDEFFD" offset="100%"/>
        </linearGradient>
    </defs>
    <g id="Page-1" stroke="none" stroke-width="1" fill="none" fill-rule="evenodd" fill-opacity="1">
        <g id="Result-Detail-Tokopedia" transform="translate(-268.000000, -372.000000)" fill-rule="nonzero">
            <g id="Store-button" transform="translate(255.000000, 358.000000)">
                <g id="Group-4">
                    <g id="Group-6">
                        <g id="shop" transform="translate(13.000000, 14.000000)">
                            <path d="M17.7397959,11.875 L14.3469388,11.875 C13.4183673,11.875 12.6632653,12.630102 12.6632653,13.5586735 L12.6632653,16.1607143 C12.6632653,17.0892857 13.4183673,17.8443878 14.3469388,17.8443878 L17.7397959,17.8443878 C18.6683673,17.8443878 19.4234694,17.0892857 19.4234694,16.1607143 L19.4234694,13.5586735 C19.4234694,12.630102 18.6683673,11.875 17.7397959,11.875 Z M18.1989796,16.1607143 C18.1989796,16.4158163 17.9897959,16.619898 17.7397959,16.619898 L14.3469388,16.619898 C14.0918367,16.619898 13.8877551,16.4107143 13.8877551,16.1607143 L13.8877551,13.5586735 C13.8877551,13.3035714 14.0969388,13.0994898 14.3469388,13.0994898 L17.7397959,13.0994898 C17.994898,13.0994898 18.1989796,13.3086735 18.1989796,13.5586735 L18.1989796,16.1607143 Z"
                                  id="Shape" fill="url(#linearGradient-1)"/>
                            <path d="M24.9693878,7.14540816 C24.9693878,7.03826531 24.9438776,6.93622449 24.8877551,6.84438776 L21.1734694,0.31377551 C21.0663265,0.125 20.8622449,0.00255102041 20.6428571,0.00255102041 L4.32142857,0.00255102041 C4.10204082,0.00255102041 3.89795918,0.119897959 3.79081633,0.31377551 L0.0816326531,6.84438776 C0.0306122449,6.93622449 0,7.03826531 0,7.14540816 C0,8.60969388 0.882653061,9.86479592 2.14285714,10.4209184 L2.14285714,21.1913265 C2.14285714,21.5280612 2.41836735,21.8035714 2.75510204,21.8035714 L6.1377551,21.8035714 C6.14285714,21.8035714 6.14795918,21.8035714 6.15306122,21.8035714 L10.8979592,21.8035714 C10.9030612,21.8035714 10.9081633,21.8035714 10.9132653,21.8035714 L22.2091837,21.8035714 C22.5459184,21.8035714 22.8214286,21.5280612 22.8214286,21.1913265 L22.8214286,10.497449 C22.8214286,10.4719388 22.8214286,10.4515306 22.8163265,10.4311224 C24.0816327,9.875 24.9693878,8.61479592 24.9693878,7.14540816 Z M4.67857143,1.23214286 L20.2857143,1.23214286 L23.1887755,6.33928571 L1.78061224,6.33928571 L4.67857143,1.23214286 Z M17.7704082,7.55867347 C17.5765306,8.66071429 16.6122449,9.49744898 15.4540816,9.49744898 C14.2959184,9.49744898 13.3316327,8.66071429 13.1377551,7.55867347 L17.7704082,7.55867347 Z M11.8367347,7.55867347 C11.6428571,8.66071429 10.6785714,9.49744898 9.52040816,9.49744898 C8.3622449,9.49744898 7.39795918,8.66071429 7.19897959,7.55867347 L11.8367347,7.55867347 Z M1.26530612,7.55867347 L5.90306122,7.55867347 C5.70918367,8.66071429 4.73979592,9.49744898 3.58163265,9.49744898 C2.42346939,9.50255102 1.45918367,8.66071429 1.26530612,7.55867347 Z M10.2857143,20.5790816 L6.76530612,20.5790816 L6.76530612,13.9719388 C6.76530612,13.4923469 7.15306122,13.0994898 7.6377551,13.0994898 L9.41836735,13.0994898 C9.89795918,13.0994898 10.2908163,13.4872449 10.2908163,13.9719388 L10.2908163,20.5790816 L10.2857143,20.5790816 Z M21.5969388,20.5790816 L11.5102041,20.5790816 L11.5102041,13.9719388 C11.5102041,12.8188776 10.5714286,11.875 9.41326531,11.875 L7.63265306,11.875 C6.47959184,11.875 5.53571429,12.8137755 5.53571429,13.9719388 L5.53571429,20.5841837 L3.36734694,20.5841837 L3.36734694,10.7219388 C3.43877551,10.7270408 3.51020408,10.7270408 3.58163265,10.7270408 C4.81632653,10.7270408 5.90816327,10.0994898 6.55102041,9.14540816 C7.19387755,10.0994898 8.28571429,10.7270408 9.52040816,10.7270408 C10.755102,10.7270408 11.8418367,10.0994898 12.4897959,9.14540816 C13.1326531,10.0994898 14.2244898,10.7270408 15.4540816,10.7270408 C16.6887755,10.7270408 17.7755102,10.0994898 18.4183673,9.14540816 C19.0612245,10.0994898 20.1530612,10.7270408 21.3877551,10.7270408 C21.4591837,10.7270408 21.5255102,10.7219388 21.5969388,10.7219388 L21.5969388,20.5790816 L21.5969388,20.5790816 Z M21.3877551,9.50255102 C20.2295918,9.50255102 19.2653061,8.66581633 19.0714286,7.56377551 L23.7091837,7.56377551 C23.5102041,8.66071429 22.5459184,9.50255102 21.3877551,9.50255102 Z"
                                  id="Shape" fill="url(#linearGradient-2)"/>
                        </g>
                    </g>
                </g>
            </g>
        </g>
    </g>
</svg>
