<?xml version="1.0" encoding="UTF-8"?>
<svg width="11px" height="10px" viewBox="0 0 11 10" version="1.1" xmlns="http://www.w3.org/2000/svg">
    <g id="Page-2" stroke="none" stroke-width="1" fill="none" fill-rule="evenodd" opacity="0.799804688">
        <g id="Filter-Click-In-Item-Lists"
           transform="translate(-870.000000, -377.000000)"
           fill="#FAAE32"
           fill-rule="nonzero">
            <g id="Filter-Click" transform="translate(100.000000, 272.000000)">
                <g id="Group-23" transform="translate(55.000000, 62.000000)">
                    <g id="Condition" transform="translate(695.000000, 0.000000)">
                        <g id="Group-22" transform="translate(0.000000, 30.000000)">
                            <g id="rating" transform="translate(20.000000, 13.000000)">
                                <g id="Group-10">
                                    <path d="M5.73311761,0.313927365 L6.91248552,2.70363604 C6.99449816,2.86984251 7.15307047,2.98500919 7.33650831,3.01161967 L9.97378173,3.39485426 C10.4357572,3.46203483 10.6200675,4.02957973 10.2859096,4.35523098 L8.37758895,6.21534741 C8.24497277,6.34469181 8.18433577,6.53118331 8.21574486,6.71374868 L8.66616002,9.34033428 C8.74511899,9.80034666 8.26220415,10.1510816 7.8490873,9.93405343 L5.49035148,8.69404852 C5.3263262,8.60789163 5.13023747,8.60789163 4.9662122,8.69404852 L2.60747638,9.93405343 C2.19435953,10.1512997 1.71144468,9.80034666 1.79040366,9.34033428 L2.24081881,6.71374868 C2.27222791,6.53118331 2.2115909,6.34469181 2.07897472,6.21534741 L0.170654057,4.35523098 C-0.163503819,4.02936161 0.020806498,3.46181671 0.482781943,3.39485426 L3.12005537,3.01161967 C3.30349321,2.98500919 3.46206552,2.86984251 3.54407815,2.70363604 L4.72344606,0.313927365 C4.92978637,-0.104642455 5.52655918,-0.104642455 5.73311761,0.313927365 Z"
                                          id="Path"/>
                                </g>
                            </g>
                        </g>
                    </g>
                </g>
            </g>
        </g>
    </g>
</svg>
