<?xml version="1.0" standalone="no"?><!-- Generator: Gravit.io -->
<svg xmlns="http://www.w3.org/2000/svg"
     style="isolation:isolate" viewBox="238.298 113.936 72 72" width="72" height="72">
    <g>
        <circle vector-effect="non-scaling-stroke"
                cx="274.2976564645768"
                cy="149.93583080405114"
                r="36"
                fill="rgb(244,244,244)"/>
        <g>
            <path d=" M 279.698 157.892 C 279.374 157.568 279.194 157.1 279.194 156.632 C 279.194 156.128 279.374 155.696 279.698 155.336 C 280.058 155.012 280.526 154.832 280.994 154.832 C 281.462 154.832 281.93 155.012 282.254 155.336 L 288.518 161.6 C 288.842 161.96 289.058 162.392 289.058 162.896 C 289.058 163.364 288.842 163.832 288.518 164.156 C 288.194 164.48 287.726 164.696 287.258 164.696 C 286.79 164.696 286.322 164.48 285.962 164.156 L 279.698 157.892 Z "
                  fill="rgb(68,68,68)"/>
            <path d=" M 259.538 148.496 C 259.538 144.932 260.942 141.548 263.426 139.064 C 265.91 136.58 269.33 135.176 272.858 135.176 C 276.386 135.176 279.77 136.58 282.254 139.064 C 284.774 141.548 286.178 144.932 286.178 148.496 C 286.178 152.024 284.774 155.408 282.254 157.892 C 279.77 160.412 276.386 161.816 272.858 161.816 C 269.33 161.816 265.91 160.412 263.426 157.892 C 260.942 155.408 259.538 152.024 259.538 148.496 Z  M 263.138 148.496 C 263.138 145.904 264.146 143.42 265.982 141.62 C 267.782 139.784 270.266 138.776 272.858 138.776 C 275.414 138.776 277.898 139.784 279.734 141.62 C 281.534 143.42 282.578 145.904 282.578 148.496 C 282.578 151.052 281.534 153.536 279.734 155.372 C 277.898 157.172 275.414 158.216 272.858 158.216 C 270.266 158.216 267.782 157.172 265.982 155.372 C 264.146 153.536 263.138 151.052 263.138 148.496 Z "
                  fill-rule="evenodd"
                  fill="rgb(68,68,68)"/>
        </g>
    </g>
</svg>
