<?xml version="1.0" standalone="no"?><!-- Generator: Gravit.io -->
<svg xmlns="http://www.w3.org/2000/svg"
     style="isolation:isolate" viewBox="330.548 113.936 72 72" width="72" height="72">
    <g>
        <circle vector-effect="non-scaling-stroke"
                cx="366.5476564645768"
                cy="149.93583080405114"
                r="36"
                fill="rgb(255,238,238)"/>
        <g>
            <path d="M 366.217 135.407 L 366.878 135.407 C 367.689 135.407 368.348 136.065 368.348 136.877 L 368.348 155.537 C 368.348 156.348 367.689 157.007 366.878 157.007 L 366.217 157.007 C 365.406 157.007 364.748 156.348 364.748 155.537 L 364.748 136.877 C 364.748 136.065 365.406 135.407 366.217 135.407 Z"
                  style="stroke:none;fill:#FF4F4F;stroke-miterlimit:10;"/>
            <path d="M 366.548 161.198 L 366.548 161.198 C 367.541 161.198 368.348 162.004 368.348 162.998 L 368.348 162.998 C 368.348 163.991 367.541 164.798 366.548 164.798 L 366.548 164.798 C 365.554 164.798 364.748 163.991 364.748 162.998 L 364.748 162.998 C 364.748 162.004 365.554 161.198 366.548 161.198 Z"
                  style="stroke:none;fill:#FF4F4F;stroke-miterlimit:10;"/>
        </g>
    </g>
</svg>
