<?xml version="1.0" standalone="no"?><!-- Generator: Gravit.io -->
<svg xmlns="http://www.w3.org/2000/svg"
     style="isolation:isolate" viewBox="422.798 113.936 72 72" width="72" height="72">
    <g>
        <circle vector-effect="non-scaling-stroke"
                cx="458.7976564645768"
                cy="149.93583080405114"
                r="36"
                fill="rgb(229,243,255)"/>
        <g>
            <path d=" M 464.206 157.907 C 463.882 157.583 463.702 157.115 463.702 156.647 C 463.702 156.143 463.882 155.711 464.206 155.351 C 464.566 155.027 465.034 154.847 465.502 154.847 C 465.97 154.847 466.438 155.027 466.762 155.351 L 473.026 161.615 C 473.35 161.975 473.566 162.407 473.566 162.911 C 473.566 163.379 473.35 163.847 473.026 164.171 C 472.702 164.495 472.234 164.711 471.766 164.711 C 471.298 164.711 470.83 164.495 470.47 164.171 L 464.206 157.907 Z "
                  fill="rgb(52,156,255)"/>
            <path d=" M 444.046 148.511 C 444.046 144.947 445.45 141.563 447.934 139.079 C 450.418 136.595 453.838 135.191 457.366 135.191 C 460.894 135.191 464.278 136.595 466.762 139.079 C 469.282 141.563 470.686 144.947 470.686 148.511 C 470.686 152.039 469.282 155.423 466.762 157.907 C 464.278 160.427 460.894 161.831 457.366 161.831 C 453.838 161.831 450.418 160.427 447.934 157.907 C 445.45 155.423 444.046 152.039 444.046 148.511 Z  M 447.646 148.511 C 447.646 145.919 448.654 143.435 450.49 141.635 C 452.29 139.799 454.774 138.791 457.366 138.791 C 459.922 138.791 462.406 139.799 464.242 141.635 C 466.042 143.435 467.086 145.919 467.086 148.511 C 467.086 151.067 466.042 153.551 464.242 155.387 C 462.406 157.187 459.922 158.231 457.366 158.231 C 454.774 158.231 452.29 157.187 450.49 155.387 C 448.654 153.551 447.646 151.067 447.646 148.511 Z "
                  fill-rule="evenodd"
                  fill="rgb(52,156,255)"/>
        </g>
    </g>
</svg>
