<?xml version="1.0" encoding="UTF-8"?>
<svg width="14px" height="14px" viewBox="0 0 14 14" version="1.1" xmlns="http://www.w3.org/2000/svg">
    <title>3C802756-561C-4D83-9862-6AE478A5E4C6</title>
    <desc>Created with sketchtool.</desc>
    <g id="Page-1" stroke="none" stroke-width="1" fill="none" fill-rule="evenodd">
        <g id="Result-Listing-Summary"
           transform="translate(-1095.000000, -230.000000)"
           fill="#000000"
           fill-rule="nonzero">
            <g id="Group-5" transform="translate(790.000000, 212.000000)">
                <g id="Group-13-Copy-2" transform="translate(285.000000, 0.000000)">
                    <g id="Group-19" transform="translate(15.000000, 13.000000)">
                        <g id="sort" transform="translate(5.000000, 5.000000)">
                            <path d="M10.0350494,14 C9.73298646,14 9.48817445,13.755188 9.48817445,13.453125 L9.48817445,4.81228639 L7.13682555,4.81228639 C6.7054138,4.81228639 6.31939697,4.55433655 6.15330505,4.15507507 C5.98657227,3.75421143 6.07640075,3.29652405 6.38209534,2.98890687 L8.87294007,0.483322137 C9.18280029,0.171646125 9.59552002,0 10.0350494,0 C10.4745788,0 10.8872986,0.171646125 11.1971588,0.483322137 L13.6880035,2.98890687 C13.9938049,3.29641725 14.0836334,3.75421143 13.9169006,4.15507507 C13.7508087,4.55433655 13.3646851,4.81228639 12.9332733,4.81228639 L12.3320312,4.81228639 C12.0299683,4.81228639 11.7851562,4.56747435 11.7851562,4.26541139 C11.7851562,3.96334837 12.0299683,3.71853639 12.3320312,3.71853639 L12.8710022,3.71853639 L10.4214935,1.25450134 C10.3184204,1.15089417 10.1812744,1.09375 10.0350494,1.09375 C9.88893128,1.09375 9.75167845,1.15089417 9.64860534,1.25450134 L7.19909668,3.71853639 L9.48817445,3.71853639 C10.0913391,3.71853639 10.5819244,4.20922852 10.5819244,4.81228639 L10.5819244,13.453125 C10.5819244,13.7550812 10.3371124,14 10.0350494,14 L10.0350494,14 Z"
                                  id="Path"/>
                            <path d="M3.96452331,14 C3.52499388,14 3.11227416,13.8283539 2.80241393,13.5166779 L0.311569207,11.0110931 C0.00576783594,10.7034759 -0.0840606758,10.2457886 0.0827789375,9.84492493 C0.248764031,9.44566345 0.634887695,9.1876068 1.06629945,9.1876068 L3.41764831,9.1876068 L3.41764831,0.546875 C3.41764831,0.244812012 3.66246032,0 3.96452331,0 C4.2665863,0 4.51139831,0.244812012 4.51139831,0.546875 L4.51139831,9.18771361 C4.51139831,9.79077148 4.02070618,10.2814636 3.41764831,10.2814636 L1.12857057,10.2814636 L3.57807923,12.7454987 C3.68115234,12.8491058 3.81840514,12.90625 3.96452331,12.90625 C4.11064147,12.90625 4.24789427,12.8491058 4.35096741,12.7454987 L6.80047607,10.2814636 L6.26150514,10.2814636 C5.95944212,10.2814636 5.71463014,10.0366516 5.71463014,9.73458861 C5.71463014,9.43252565 5.95944212,9.18771361 6.26150514,9.18771361 L6.8627472,9.18771361 C7.29415892,9.18771361 7.68017578,9.44566345 7.84626771,9.84492493 C8.01300049,10.2457886 7.92327881,10.7035827 7.61747741,11.0110931 L5.12663268,13.5166779 C4.81677246,13.8283539 4.40405273,14 3.96452331,14 Z"
                                  id="Path"/>
                        </g>
                    </g>
                </g>
            </g>
        </g>
    </g>
</svg>
