<?xml version="1.0" encoding="UTF-8"?>
<svg width="13px"
     height="13px"
     viewBox="0 0 13 13"
     version="1.1"
     xmlns="http://www.w3.org/2000/svg"
>
    <!-- Generator: sketchtool 55.2 (78181) - https://sketchapp.com -->
    <title>15EF6F5F-8F6F-49CD-B030-1D3E1A6BB582</title>
    <desc>Created with sketchtool.</desc>
    <g id="Page-1" stroke="none" stroke-width="1" fill="none" fill-rule="evenodd">
        <g id="Result-Listing-Summary" transform="translate(-1231.000000, -231.000000)" fill="#000000">
            <g id="Group-5" transform="translate(790.000000, 212.000000)">
                <g id="Group-16" transform="translate(420.000000, 0.000000)">
                    <g id="Group-15" transform="translate(15.000000, 13.000000)">
                        <g id="Group-14">
                            <path d="M7.3,8.6 C6.58202983,8.6 6,8.01797017 6,7.3 C6,6.58202983 6.58202983,6 7.3,6 C8.01797017,6 8.6,6.58202983 8.6,7.3 C8.6,8.01797017 8.01797017,8.6 7.3,8.6 Z M12.5,8.6 C11.7820298,8.6 11.2,8.01797017 11.2,7.3 C11.2,6.58202983 11.7820298,6 12.5,6 C13.2179702,6 13.8,6.58202983 13.8,7.3 C13.8,8.01797017 13.2179702,8.6 12.5,8.6 Z M17.7,8.6 C16.9820298,8.6 16.4,8.01797017 16.4,7.3 C16.4,6.58202983 16.9820298,6 17.7,6 C18.4179702,6 19,6.58202983 19,7.3 C19,8.01797017 18.4179702,8.6 17.7,8.6 Z M7.3,13.8 C6.58202983,13.8 6,13.2179702 6,12.5 C6,11.7820298 6.58202983,11.2 7.3,11.2 C8.01797017,11.2 8.6,11.7820298 8.6,12.5 C8.6,13.2179702 8.01797017,13.8 7.3,13.8 Z M12.5,13.8 C11.7820298,13.8 11.2,13.2179702 11.2,12.5 C11.2,11.7820298 11.7820298,11.2 12.5,11.2 C13.2179702,11.2 13.8,11.7820298 13.8,12.5 C13.8,13.2179702 13.2179702,13.8 12.5,13.8 Z M17.7,13.8 C16.9820298,13.8 16.4,13.2179702 16.4,12.5 C16.4,11.7820298 16.9820298,11.2 17.7,11.2 C18.4179702,11.2 19,11.7820298 19,12.5 C19,13.2179702 18.4179702,13.8 17.7,13.8 Z M7.3,19 C6.58202983,19 6,18.4179702 6,17.7 C6,16.9820298 6.58202983,16.4 7.3,16.4 C8.01797017,16.4 8.6,16.9820298 8.6,17.7 C8.6,18.4179702 8.01797017,19 7.3,19 Z M12.5,19 C11.7820298,19 11.2,18.4179702 11.2,17.7 C11.2,16.9820298 11.7820298,16.4 12.5,16.4 C13.2179702,16.4 13.8,16.9820298 13.8,17.7 C13.8,18.4179702 13.2179702,19 12.5,19 Z M17.7,19 C16.9820298,19 16.4,18.4179702 16.4,17.7 C16.4,16.9820298 16.9820298,16.4 17.7,16.4 C18.4179702,16.4 19,16.9820298 19,17.7 C19,18.4179702 18.4179702,19 17.7,19 Z"
                                  id="Combined-Shape"></path>
                        </g>
                    </g>
                </g>
            </g>
        </g>
    </g>
</svg>
